<?xml version="1.0" standalone="no"?>
<!DOCTYPE svg PUBLIC "-//W3C//DTD SVG 20010904//EN"
 "http://www.w3.org/TR/2001/REC-SVG-20010904/DTD/svg10.dtd">
<svg version="1.0" xmlns="http://www.w3.org/2000/svg"
 width="531.000000pt" height="531.000000pt" viewBox="0 0 531.000000 531.000000"
 preserveAspectRatio="xMidYMid meet">

<g transform="translate(0.000000,531.000000) scale(0.100000,-0.100000)"
fill="#000000" stroke="none">
<path d="M90 4905 l0 -315 315 0 315 0 0 315 0 315 -315 0 -315 0 0 -315z
m540 0 l0 -225 -225 0 -225 0 0 225 0 225 225 0 225 0 0 -225z"/>
<path d="M270 4905 l0 -135 135 0 135 0 0 135 0 135 -135 0 -135 0 0 -135z"/>
<path d="M900 5175 l0 -45 -45 0 -45 0 0 -270 0 -270 45 0 45 0 0 45 0 45 45
0 45 0 0 -45 0 -45 45 0 45 0 0 -90 0 -90 -45 0 -45 0 0 45 0 45 -225 0 -225
0 0 -90 0 -90 -45 0 -45 0 0 45 0 45 -45 0 -45 0 0 45 0 45 -45 0 -45 0 0 -45
0 -45 45 0 45 0 0 -45 0 -45 45 0 45 0 0 -45 0 -45 -135 0 -135 0 0 -45 0 -45
-45 0 -45 0 0 -45 0 -45 45 0 45 0 0 45 0 45 45 0 45 0 0 -90 0 -90 -90 0 -90
0 0 -135 0 -135 45 0 45 0 0 -135 0 -135 -45 0 -45 0 0 -45 0 -45 45 0 45 0 0
-45 0 -45 -45 0 -45 0 0 -135 0 -135 45 0 45 0 0 -45 0 -45 -45 0 -45 0 0
-135 0 -135 45 0 45 0 0 45 0 45 45 0 45 0 0 -45 0 -45 45 0 45 0 0 -45 0 -45
-135 0 -135 0 0 -135 0 -135 45 0 45 0 0 45 0 45 45 0 45 0 0 -45 0 -45 45 0
45 0 0 -45 0 -45 45 0 45 0 0 -45 0 -45 -45 0 -45 0 0 -45 0 -45 -45 0 -45 0
0 -45 0 -45 45 0 45 0 0 -45 0 -45 -45 0 -45 0 0 -45 0 -45 45 0 45 0 0 -45 0
-45 45 0 45 0 0 45 0 45 -45 0 -45 0 0 45 0 45 90 0 90 0 0 90 0 90 45 0 45 0
0 -45 0 -45 45 0 45 0 0 -45 0 -45 -45 0 -45 0 0 -45 0 -45 45 0 45 0 0 -45 0
-45 -45 0 -45 0 0 -45 0 -45 45 0 45 0 0 45 0 45 90 0 90 0 0 -90 0 -90 45 0
45 0 0 -135 0 -135 -45 0 -45 0 0 90 0 90 -45 0 -45 0 0 -135 0 -135 -90 0
-90 0 0 45 0 45 45 0 45 0 0 45 0 45 -135 0 -135 0 0 90 0 90 45 0 45 0 0 -45
0 -45 90 0 90 0 0 45 0 45 -90 0 -90 0 0 45 0 45 -225 0 -225 0 0 -90 0 -90
45 0 45 0 0 45 0 45 90 0 90 0 0 -45 0 -45 -45 0 -45 0 0 -180 0 -180 -45 0
-45 0 0 135 0 135 -45 0 -45 0 0 -180 0 -180 225 0 225 0 0 45 0 45 135 0 135
0 0 -45 0 -45 -90 0 -90 0 0 -45 0 -45 90 0 90 0 0 -135 0 -135 45 0 45 0 0
-90 0 -90 -45 0 -45 0 0 -45 0 -45 45 0 45 0 0 -90 0 -90 45 0 45 0 0 45 0 45
45 0 45 0 0 -45 0 -45 90 0 90 0 0 45 0 45 90 0 90 0 0 45 0 45 45 0 45 0 0
-90 0 -90 135 0 135 0 0 45 0 45 45 0 45 0 0 -45 0 -45 45 0 45 0 0 45 0 45
-45 0 -45 0 0 45 0 45 -45 0 -45 0 0 -45 0 -45 -45 0 -45 0 0 45 0 45 -45 0
-45 0 0 45 0 45 270 0 270 0 0 45 0 45 -135 0 -135 0 0 45 0 45 45 0 45 0 0
45 0 45 45 0 45 0 0 45 0 45 -45 0 -45 0 0 90 0 90 45 0 45 0 0 -45 0 -45 45
0 45 0 0 -45 0 -45 90 0 90 0 0 90 0 90 -45 0 -45 0 0 45 0 45 45 0 45 0 0 90
0 90 -90 0 -90 0 0 -135 0 -135 -45 0 -45 0 0 45 0 45 -45 0 -45 0 0 45 0 45
-90 0 -90 0 0 -45 0 -45 -45 0 -45 0 0 -45 0 -45 45 0 45 0 0 -45 0 -45 -45 0
-45 0 0 -45 0 -45 -45 0 -45 0 0 -45 0 -45 -90 0 -90 0 0 90 0 90 90 0 90 0 0
90 0 90 -45 0 -45 0 0 90 0 90 -90 0 -90 0 0 45 0 45 135 0 135 0 0 -90 0 -90
45 0 45 0 0 90 0 90 -45 0 -45 0 0 45 0 45 45 0 45 0 0 45 0 45 45 0 45 0 0
45 0 45 90 0 90 0 0 -45 0 -45 45 0 45 0 0 135 0 135 90 0 90 0 0 -90 0 -90
-45 0 -45 0 0 -90 0 -90 -45 0 -45 0 0 -45 0 -45 90 0 90 0 0 45 0 45 45 0 45
0 0 90 0 90 45 0 45 0 0 -90 0 -90 45 0 45 0 0 -45 0 -45 -45 0 -45 0 0 -90 0
-90 45 0 45 0 0 -90 0 -90 -45 0 -45 0 0 -135 0 -135 -135 0 -135 0 0 -45 0
-45 90 0 90 0 0 -45 0 -45 -45 0 -45 0 0 -135 0 -135 -45 0 -45 0 0 45 0 45
-45 0 -45 0 0 -45 0 -45 45 0 45 0 0 -45 0 -45 45 0 45 0 0 45 0 45 45 0 45 0
0 45 0 45 90 0 90 0 0 -45 0 -45 -45 0 -45 0 0 -45 0 -45 45 0 45 0 0 45 0 45
90 0 90 0 0 45 0 45 45 0 45 0 0 -45 0 -45 45 0 45 0 0 -45 0 -45 135 0 135 0
0 45 0 45 -45 0 -45 0 0 45 0 45 -135 0 -135 0 0 90 0 90 45 0 45 0 0 -45 0
-45 45 0 45 0 0 45 0 45 45 0 45 0 0 -45 0 -45 90 0 90 0 0 45 0 45 90 0 90 0
0 45 0 45 45 0 45 0 0 45 0 45 90 0 90 0 0 -45 0 -45 -45 0 -45 0 0 -45 0 -45
-45 0 -45 0 0 -45 0 -45 -45 0 -45 0 0 -45 0 -45 -45 0 -45 0 0 -90 0 -90 45
0 45 0 0 90 0 90 45 0 45 0 0 45 0 45 90 0 90 0 0 -45 0 -45 45 0 45 0 0 -90
0 -90 45 0 45 0 0 45 0 45 45 0 45 0 0 45 0 45 -90 0 -90 0 0 45 0 45 45 0 45
0 0 45 0 45 45 0 45 0 0 -45 0 -45 90 0 90 0 0 -45 0 -45 -45 0 -45 0 0 -90 0
-90 135 0 135 0 0 45 0 45 90 0 90 0 0 -45 0 -45 45 0 45 0 0 90 0 90 45 0 45
0 0 45 0 45 45 0 45 0 0 -45 0 -45 45 0 45 0 0 -90 0 -90 45 0 45 0 0 90 0 90
-45 0 -45 0 0 45 0 45 90 0 90 0 0 -45 0 -45 90 0 90 0 0 45 0 45 -90 0 -90 0
0 45 0 45 90 0 90 0 0 225 0 225 -45 0 -45 0 0 -45 0 -45 -90 0 -90 0 0 90 0
90 45 0 45 0 0 45 0 45 -45 0 -45 0 0 -45 0 -45 -45 0 -45 0 0 45 0 45 -45 0
-45 0 0 135 0 135 45 0 45 0 0 -90 0 -90 45 0 45 0 0 90 0 90 -45 0 -45 0 0
45 0 45 -135 0 -135 0 0 -45 0 -45 -45 0 -45 0 0 45 0 45 -90 0 -90 0 0 -45 0
-45 -90 0 -90 0 0 45 0 45 45 0 45 0 0 90 0 90 45 0 45 0 0 -45 0 -45 45 0 45
0 0 45 0 45 45 0 45 0 0 90 0 90 45 0 45 0 0 -135 0 -135 90 0 90 0 0 45 0 45
-45 0 -45 0 0 45 0 45 90 0 90 0 0 -45 0 -45 45 0 45 0 0 45 0 45 45 0 45 0 0
-90 0 -90 45 0 45 0 0 -90 0 -90 45 0 45 0 0 135 0 135 -45 0 -45 0 0 45 0 45
45 0 45 0 0 90 0 90 -180 0 -180 0 0 -45 0 -45 -45 0 -45 0 0 135 0 135 45 0
45 0 0 -45 0 -45 45 0 45 0 0 90 0 90 90 0 90 0 0 -45 0 -45 -45 0 -45 0 0
-45 0 -45 45 0 45 0 0 45 0 45 45 0 45 0 0 90 0 90 -135 0 -135 0 0 135 0 135
90 0 90 0 0 -45 0 -45 -45 0 -45 0 0 -45 0 -45 90 0 90 0 0 135 0 135 -135 0
-135 0 0 135 0 135 -90 0 -90 0 0 45 0 45 90 0 90 0 0 90 0 90 45 0 45 0 0 45
0 45 45 0 45 0 0 -45 0 -45 45 0 45 0 0 135 0 135 -45 0 -45 0 0 45 0 45 45 0
45 0 0 135 0 135 -45 0 -45 0 0 45 0 45 45 0 45 0 0 90 0 90 -45 0 -45 0 0
-90 0 -90 -45 0 -45 0 0 45 0 45 -135 0 -135 0 0 -180 0 -180 90 0 90 0 0 135
0 135 45 0 45 0 0 -45 0 -45 45 0 45 0 0 -135 0 -135 -45 0 -45 0 0 -45 0 -45
45 0 45 0 0 -45 0 -45 -90 0 -90 0 0 90 0 90 -90 0 -90 0 0 -45 0 -45 -90 0
-90 0 0 90 0 90 -90 0 -90 0 0 90 0 90 45 0 45 0 0 -45 0 -45 90 0 90 0 0 90
0 90 -45 0 -45 0 0 90 0 90 -45 0 -45 0 0 -90 0 -90 -135 0 -135 0 0 45 0 45
-45 0 -45 0 0 45 0 45 45 0 45 0 0 45 0 45 45 0 45 0 0 -90 0 -90 45 0 45 0 0
90 0 90 180 0 180 0 0 -45 0 -45 45 0 45 0 0 45 0 45 45 0 45 0 0 45 0 45 -45
0 -45 0 0 90 0 90 135 0 135 0 0 -45 0 -45 -45 0 -45 0 0 -45 0 -45 90 0 90 0
0 90 0 90 -45 0 -45 0 0 45 0 45 -225 0 -225 0 0 -45 0 -45 45 0 45 0 0 -90 0
-90 -90 0 -90 0 0 135 0 135 -45 0 -45 0 0 90 0 90 -45 0 -45 0 0 -45 0 -45
-45 0 -45 0 0 90 0 90 45 0 45 0 0 225 0 225 -90 0 -90 0 0 -45 0 -45 45 0 45
0 0 -45 0 -45 -90 0 -90 0 0 90 0 90 -45 0 -45 0 0 -45 0 -45 -45 0 -45 0 0
45 0 45 -135 0 -135 0 0 -90 0 -90 -45 0 -45 0 0 90 0 90 -45 0 -45 0 0 -45 0
-45 -90 0 -90 0 0 45 0 45 -45 0 -45 0 0 -45 0 -45 45 0 45 0 0 -45 0 -45 -45
0 -45 0 0 -45 0 -45 45 0 45 0 0 45 0 45 45 0 45 0 0 -90 0 -90 45 0 45 0 0
-135 0 -135 -45 0 -45 0 0 45 0 45 -45 0 -45 0 0 -45 0 -45 45 0 45 0 0 -180
0 -180 -90 0 -90 0 0 45 0 45 45 0 45 0 0 45 0 45 -90 0 -90 0 0 45 0 45 45 0
45 0 0 180 0 180 -45 0 -45 0 0 180 0 180 -45 0 -45 0 0 -45 0 -45 -90 0 -90
0 0 45 0 45 -45 0 -45 0 0 -45 0 -45 45 0 45 0 0 -45 0 -45 -90 0 -90 0 0 -90
0 -90 -45 0 -45 0 0 90 0 90 -90 0 -90 0 0 -270 0 -270 -45 0 -45 0 0 180 0
180 -45 0 -45 0 0 90 0 90 45 0 45 0 0 45 0 45 90 0 90 0 0 45 0 45 -180 0
-180 0 0 -90 0 -90 -45 0 -45 0 0 45 0 45 -45 0 -45 0 0 -45 0 -45 45 0 45 0
0 -45 0 -45 -90 0 -90 0 0 135 0 135 -180 0 -180 0 0 -90 0 -90 -135 0 -135 0
0 45 0 45 90 0 90 0 0 45 0 45 -135 0 -135 0 0 -90 0 -90 45 0 45 0 0 -90 0
-90 -45 0 -45 0 0 45 0 45 -45 0 -45 0 0 45 0 45 -90 0 -90 0 0 45 0 45 45 0
45 0 0 45 0 45 -45 0 -45 0 0 -45z m2970 -90 l0 -45 135 0 135 0 0 -90 0 -90
45 0 45 0 0 45 0 45 45 0 45 0 0 -90 0 -90 -90 0 -90 0 0 -45 0 -45 45 0 45 0
0 -45 0 -45 45 0 45 0 0 -45 0 -45 90 0 90 0 0 -135 0 -135 -135 0 -135 0 0
-45 0 -45 -45 0 -45 0 0 45 0 45 45 0 45 0 0 45 0 45 -45 0 -45 0 0 180 0 180
-45 0 -45 0 0 -135 0 -135 -45 0 -45 0 0 -90 0 -90 45 0 45 0 0 -135 0 -135
45 0 45 0 0 -45 0 -45 -90 0 -90 0 0 -45 0 -45 45 0 45 0 0 -45 0 -45 -45 0
-45 0 0 -45 0 -45 90 0 90 0 0 -45 0 -45 -45 0 -45 0 0 -90 0 -90 -45 0 -45 0
0 -135 0 -135 45 0 45 0 0 -45 0 -45 45 0 45 0 0 90 0 90 45 0 45 0 0 45 0 45
-45 0 -45 0 0 90 0 90 45 0 45 0 0 -45 0 -45 45 0 45 0 0 -45 0 -45 45 0 45 0
0 90 0 90 -45 0 -45 0 0 45 0 45 -45 0 -45 0 0 135 0 135 45 0 45 0 0 -90 0
-90 45 0 45 0 0 -45 0 -45 45 0 45 0 0 -135 0 -135 45 0 45 0 0 45 0 45 45 0
45 0 0 -90 0 -90 45 0 45 0 0 -90 0 -90 -45 0 -45 0 0 -45 0 -45 -45 0 -45 0
0 45 0 45 -45 0 -45 0 0 -45 0 -45 -45 0 -45 0 0 -45 0 -45 -180 0 -180 0 0
-90 0 -90 45 0 45 0 0 -90 0 -90 45 0 45 0 0 90 0 90 90 0 90 0 0 -90 0 -90
90 0 90 0 0 -45 0 -45 45 0 45 0 0 45 0 45 45 0 45 0 0 -45 0 -45 45 0 45 0 0
-90 0 -90 -45 0 -45 0 0 -45 0 -45 -45 0 -45 0 0 45 0 45 -45 0 -45 0 0 -90 0
-90 45 0 45 0 0 -90 0 -90 -45 0 -45 0 0 90 0 90 -45 0 -45 0 0 -90 0 -90 -45
0 -45 0 0 -45 0 -45 -90 0 -90 0 0 90 0 90 45 0 45 0 0 -45 0 -45 45 0 45 0 0
90 0 90 45 0 45 0 0 90 0 90 -90 0 -90 0 0 -90 0 -90 -45 0 -45 0 0 45 0 45
-135 0 -135 0 0 -45 0 -45 45 0 45 0 0 -45 0 -45 -45 0 -45 0 0 -45 0 -45 90
0 90 0 0 -45 0 -45 -45 0 -45 0 0 -270 0 -270 -45 0 -45 0 0 -45 0 -45 90 0
90 0 0 90 0 90 90 0 90 0 0 -90 0 -90 45 0 45 0 0 -45 0 -45 45 0 45 0 0 45 0
45 45 0 45 0 0 -45 0 -45 -45 0 -45 0 0 -45 0 -45 -45 0 -45 0 0 45 0 45 -45
0 -45 0 0 -135 0 -135 45 0 45 0 0 -90 0 -90 -45 0 -45 0 0 -45 0 -45 45 0 45
0 0 -90 0 -90 -45 0 -45 0 0 -45 0 -45 -45 0 -45 0 0 135 0 135 -45 0 -45 0 0
45 0 45 90 0 90 0 0 45 0 45 -45 0 -45 0 0 90 0 90 -45 0 -45 0 0 90 0 90 -45
0 -45 0 0 -45 0 -45 -45 0 -45 0 0 45 0 45 -45 0 -45 0 0 -90 0 -90 90 0 90 0
0 -45 0 -45 -45 0 -45 0 0 -45 0 -45 45 0 45 0 0 -90 0 -90 -45 0 -45 0 0 45
0 45 -45 0 -45 0 0 -45 0 -45 -45 0 -45 0 0 45 0 45 45 0 45 0 0 45 0 45 -45
0 -45 0 0 45 0 45 45 0 45 0 0 45 0 45 -45 0 -45 0 0 90 0 90 45 0 45 0 0 45
0 45 -90 0 -90 0 0 45 0 45 -45 0 -45 0 0 -90 0 -90 45 0 45 0 0 -90 0 -90
-90 0 -90 0 0 45 0 45 45 0 45 0 0 45 0 45 -45 0 -45 0 0 45 0 45 -45 0 -45 0
0 -45 0 -45 -45 0 -45 0 0 45 0 45 45 0 45 0 0 45 0 45 45 0 45 0 0 45 0 45
-135 0 -135 0 0 -45 0 -45 -45 0 -45 0 0 -135 0 -135 -45 0 -45 0 0 -45 0 -45
45 0 45 0 0 -45 0 -45 -45 0 -45 0 0 -90 0 -90 45 0 45 0 0 45 0 45 90 0 90 0
0 -45 0 -45 -90 0 -90 0 0 -45 0 -45 -45 0 -45 0 0 45 0 45 -45 0 -45 0 0 45
0 45 -45 0 -45 0 0 135 0 135 90 0 90 0 0 45 0 45 -135 0 -135 0 0 -45 0 -45
-45 0 -45 0 0 45 0 45 -45 0 -45 0 0 45 0 45 45 0 45 0 0 135 0 135 45 0 45 0
0 90 0 90 -45 0 -45 0 0 45 0 45 -45 0 -45 0 0 -45 0 -45 -90 0 -90 0 0 45 0
45 45 0 45 0 0 45 0 45 -135 0 -135 0 0 45 0 45 45 0 45 0 0 90 0 90 -45 0
-45 0 0 45 0 45 -45 0 -45 0 0 45 0 45 -45 0 -45 0 0 -90 0 -90 45 0 45 0 0
-90 0 -90 -90 0 -90 0 0 -45 0 -45 -45 0 -45 0 0 -45 0 -45 -45 0 -45 0 0 -45
0 -45 -135 0 -135 0 0 -90 0 -90 -45 0 -45 0 0 45 0 45 -45 0 -45 0 0 -90 0
-90 -45 0 -45 0 0 -45 0 -45 45 0 45 0 0 -45 0 -45 -45 0 -45 0 0 45 0 45 -45
0 -45 0 0 -45 0 -45 -45 0 -45 0 0 -45 0 -45 90 0 90 0 0 -45 0 -45 -45 0 -45
0 0 -90 0 -90 90 0 90 0 0 -45 0 -45 45 0 45 0 0 -180 0 -180 -90 0 -90 0 0
-45 0 -45 -45 0 -45 0 0 45 0 45 -90 0 -90 0 0 45 0 45 45 0 45 0 0 45 0 45
-45 0 -45 0 0 90 0 90 45 0 45 0 0 45 0 45 -45 0 -45 0 0 45 0 45 -90 0 -90 0
0 45 0 45 45 0 45 0 0 45 0 45 -45 0 -45 0 0 45 0 45 135 0 135 0 0 90 0 90
90 0 90 0 0 45 0 45 -45 0 -45 0 0 45 0 45 -45 0 -45 0 0 45 0 45 135 0 135 0
0 45 0 45 -90 0 -90 0 0 45 0 45 -90 0 -90 0 0 -45 0 -45 -45 0 -45 0 0 90 0
90 -45 0 -45 0 0 45 0 45 -45 0 -45 0 0 45 0 45 -45 0 -45 0 0 45 0 45 -45 0
-45 0 0 -45 0 -45 -45 0 -45 0 0 -45 0 -45 -45 0 -45 0 0 45 0 45 45 0 45 0 0
45 0 45 45 0 45 0 0 45 0 45 -45 0 -45 0 0 45 0 45 -45 0 -45 0 0 45 0 45 90
0 90 0 0 45 0 45 90 0 90 0 0 -45 0 -45 45 0 45 0 0 45 0 45 45 0 45 0 0 -90
0 -90 45 0 45 0 0 225 0 225 -45 0 -45 0 0 90 0 90 -135 0 -135 0 0 45 0 45
45 0 45 0 0 45 0 45 -90 0 -90 0 0 -45 0 -45 -45 0 -45 0 0 -90 0 -90 -135 0
-135 0 0 45 0 45 90 0 90 0 0 45 0 45 -90 0 -90 0 0 45 0 45 45 0 45 0 0 45 0
45 -45 0 -45 0 0 45 0 45 45 0 45 0 0 45 0 45 -45 0 -45 0 0 45 0 45 45 0 45
0 0 -45 0 -45 45 0 45 0 0 -45 0 -45 45 0 45 0 0 90 0 90 -45 0 -45 0 0 45 0
45 45 0 45 0 0 -45 0 -45 45 0 45 0 0 -45 0 -45 90 0 90 0 0 45 0 45 -45 0
-45 0 0 45 0 45 -45 0 -45 0 0 45 0 45 -45 0 -45 0 0 45 0 45 -45 0 -45 0 0
-45 0 -45 -45 0 -45 0 0 45 0 45 -45 0 -45 0 0 90 0 90 45 0 45 0 0 -90 0 -90
45 0 45 0 0 45 0 45 45 0 45 0 0 45 0 45 -45 0 -45 0 0 90 0 90 45 0 45 0 0
90 0 90 45 0 45 0 0 -90 0 -90 90 0 90 0 0 45 0 45 -45 0 -45 0 0 45 0 45 45
0 45 0 0 -45 0 -45 90 0 90 0 0 -180 0 -180 -45 0 -45 0 0 45 0 45 -45 0 -45
0 0 -45 0 -45 -45 0 -45 0 0 45 0 45 45 0 45 0 0 45 0 45 -90 0 -90 0 0 45 0
45 -45 0 -45 0 0 -90 0 -90 45 0 45 0 0 -45 0 -45 -45 0 -45 0 0 -45 0 -45
135 0 135 0 0 -45 0 -45 -45 0 -45 0 0 -45 0 -45 45 0 45 0 0 -45 0 -45 90 0
90 0 0 45 0 45 -45 0 -45 0 0 45 0 45 90 0 90 0 0 -45 0 -45 90 0 90 0 0 45 0
45 -45 0 -45 0 0 45 0 45 -45 0 -45 0 0 45 0 45 90 0 90 0 0 135 0 135 -90 0
-90 0 0 45 0 45 90 0 90 0 0 45 0 45 -45 0 -45 0 0 45 0 45 90 0 90 0 0 45 0
45 -45 0 -45 0 0 90 0 90 -45 0 -45 0 0 45 0 45 -45 0 -45 0 0 45 0 45 90 0
90 0 0 -90 0 -90 45 0 45 0 0 135 0 135 45 0 45 0 0 45 0 45 90 0 90 0 0 -90
0 -90 90 0 90 0 0 -180 0 -180 -45 0 -45 0 0 -45 0 -45 45 0 45 0 0 -45 0 -45
-45 0 -45 0 0 45 0 45 -45 0 -45 0 0 135 0 135 -45 0 -45 0 0 45 0 45 45 0 45
0 0 45 0 45 -90 0 -90 0 0 -135 0 -135 45 0 45 0 0 -135 0 -135 45 0 45 0 0
-45 0 -45 -90 0 -90 0 0 90 0 90 -45 0 -45 0 0 -180 0 -180 45 0 45 0 0 45 0
45 90 0 90 0 0 -45 0 -45 45 0 45 0 0 45 0 45 45 0 45 0 0 45 0 45 45 0 45 0
0 -90 0 -90 45 0 45 0 0 135 0 135 -45 0 -45 0 0 45 0 45 45 0 45 0 0 45 0 45
-45 0 -45 0 0 45 0 45 45 0 45 0 0 45 0 45 -45 0 -45 0 0 135 0 135 -45 0 -45
0 0 45 0 45 45 0 45 0 0 -45 0 -45 45 0 45 0 0 -45 0 -45 45 0 45 0 0 45 0 45
45 0 45 0 0 45 0 45 45 0 45 0 0 -45 0 -45 -45 0 -45 0 0 -45 0 -45 45 0 45 0
0 -45 0 -45 45 0 45 0 0 -45 0 -45 -45 0 -45 0 0 45 0 45 -45 0 -45 0 0 -45 0
-45 -45 0 -45 0 0 -45 0 -45 45 0 45 0 0 -45 0 -45 90 0 90 0 0 45 0 45 45 0
45 0 0 -45 0 -45 45 0 45 0 0 -45 0 -45 135 0 135 0 0 45 0 45 45 0 45 0 0
-45 0 -45 45 0 45 0 0 -45 0 -45 -45 0 -45 0 0 -45 0 -45 45 0 45 0 0 -45 0
-45 45 0 45 0 0 -45 0 -45 -90 0 -90 0 0 -45 0 -45 45 0 45 0 0 -45 0 -45 -45
0 -45 0 0 -45 0 -45 45 0 45 0 0 -45 0 -45 90 0 90 0 0 90 0 90 -45 0 -45 0 0
45 0 45 45 0 45 0 0 -45 0 -45 90 0 90 0 0 -45 0 -45 45 0 45 0 0 45 0 45 45
0 45 0 0 -45 0 -45 -45 0 -45 0 0 -90 0 -90 45 0 45 0 0 45 0 45 45 0 45 0 0
90 0 90 45 0 45 0 0 45 0 45 -180 0 -180 0 0 45 0 45 -90 0 -90 0 0 180 0 180
-45 0 -45 0 0 45 0 45 90 0 90 0 0 -135 0 -135 45 0 45 0 0 -90 0 -90 45 0 45
0 0 90 0 90 90 0 90 0 0 45 0 45 90 0 90 0 0 90 0 90 45 0 45 0 0 -90 0 -90
45 0 45 0 0 180 0 180 -45 0 -45 0 0 45 0 45 -45 0 -45 0 0 -90 0 -90 -45 0
-45 0 0 -45 0 -45 -45 0 -45 0 0 45 0 45 45 0 45 0 0 180 0 180 -45 0 -45 0 0
90 0 90 45 0 45 0 0 -90 0 -90 45 0 45 0 0 90 0 90 45 0 45 0 0 45 0 45 45 0
45 0 0 -45z m-900 -135 l0 -90 45 0 45 0 0 -45 0 -45 45 0 45 0 0 -90 0 -90
-45 0 -45 0 0 -45 0 -45 -90 0 -90 0 0 135 0 135 45 0 45 0 0 45 0 45 -90 0
-90 0 0 45 0 45 45 0 45 0 0 45 0 45 45 0 45 0 0 -90z m-180 -315 l0 -135
-135 0 -135 0 0 135 0 135 135 0 135 0 0 -135z m-1980 -270 l0 -45 45 0 45 0
0 45 0 45 45 0 45 0 0 -90 0 -90 -90 0 -90 0 0 45 0 45 -90 0 -90 0 0 45 0 45
90 0 90 0 0 -45z m270 -450 l0 -45 -45 0 -45 0 0 45 0 45 45 0 45 0 0 -45z
m3780 -630 l0 -45 45 0 45 0 0 -45 0 -45 -45 0 -45 0 0 45 0 45 -45 0 -45 0 0
45 0 45 45 0 45 0 0 -45z m-4050 -630 l0 -135 -135 0 -135 0 0 135 0 135 135
0 135 0 0 -135z m3960 0 l0 -135 -135 0 -135 0 0 135 0 135 135 0 135 0 0
-135z m180 -900 l0 -45 -45 0 -45 0 0 45 0 45 45 0 45 0 0 -45z m180 0 l0 -45
-45 0 -45 0 0 45 0 45 45 0 45 0 0 -45z m-2520 -360 l0 -45 -45 0 -45 0 0 45
0 45 45 0 45 0 0 -45z m1890 -90 l0 -45 90 0 90 0 0 -45 0 -45 -90 0 -90 0 0
45 0 45 -45 0 -45 0 0 45 0 45 45 0 45 0 0 -45z m-4050 -90 l0 -45 45 0 45 0
0 -90 0 -90 -90 0 -90 0 0 45 0 45 45 0 45 0 0 45 0 45 -45 0 -45 0 0 45 0 45
45 0 45 0 0 -45z m2160 0 l0 -45 -45 0 -45 0 0 45 0 45 45 0 45 0 0 -45z
m-1080 -270 l0 -45 -45 0 -45 0 0 -45 0 -45 -45 0 -45 0 0 90 0 90 90 0 90 0
0 -45z m3330 0 l0 -45 -45 0 -45 0 0 45 0 45 45 0 45 0 0 -45z m-2610 -90 l0
-45 -45 0 -45 0 0 45 0 45 45 0 45 0 0 -45z m1170 0 l0 -45 -45 0 -45 0 0 45
0 45 45 0 45 0 0 -45z m-1530 -90 l0 -45 45 0 45 0 0 -45 0 -45 -45 0 -45 0 0
-45 0 -45 -45 0 -45 0 0 45 0 45 -45 0 -45 0 0 -90 0 -90 -45 0 -45 0 0 -45 0
-45 -45 0 -45 0 0 45 0 45 45 0 45 0 0 90 0 90 45 0 45 0 0 45 0 45 45 0 45 0
0 45 0 45 45 0 45 0 0 -45z m900 -90 l0 -135 -135 0 -135 0 0 135 0 135 135 0
135 0 0 -135z m1980 0 l0 -135 -135 0 -135 0 0 135 0 135 135 0 135 0 0 -135z
m180 90 l0 -45 90 0 90 0 0 -90 0 -90 -45 0 -45 0 0 -45 0 -45 -45 0 -45 0 0
90 0 90 -45 0 -45 0 0 90 0 90 45 0 45 0 0 -45z m-2430 -360 l0 -45 45 0 45 0
0 45 0 45 45 0 45 0 0 -90 0 -90 -90 0 -90 0 0 45 0 45 -90 0 -90 0 0 45 0 45
90 0 90 0 0 -45z m2160 0 l0 -45 -45 0 -45 0 0 45 0 45 45 0 45 0 0 -45z"/>
<path d="M3780 4905 l0 -45 45 0 45 0 0 -135 0 -135 45 0 45 0 0 45 0 45 45 0
45 0 0 45 0 45 -45 0 -45 0 0 45 0 45 45 0 45 0 0 45 0 45 -135 0 -135 0 0
-45z"/>
<path d="M1530 4635 l0 -45 45 0 45 0 0 45 0 45 -45 0 -45 0 0 -45z"/>
<path d="M1890 4635 l0 -45 45 0 45 0 0 45 0 45 -45 0 -45 0 0 -45z"/>
<path d="M4230 4455 l0 -45 45 0 45 0 0 -45 0 -45 45 0 45 0 0 45 0 45 -45 0
-45 0 0 45 0 45 -45 0 -45 0 0 -45z"/>
<path d="M1890 4275 l0 -45 45 0 45 0 0 -90 0 -90 45 0 45 0 0 -45 0 -45 -45
0 -45 0 0 -45 0 -45 -90 0 -90 0 0 45 0 45 -90 0 -90 0 0 -45 0 -45 -45 0 -45
0 0 -45 0 -45 90 0 90 0 0 -135 0 -135 90 0 90 0 0 -45 0 -45 -135 0 -135 0 0
-45 0 -45 -45 0 -45 0 0 90 0 90 45 0 45 0 0 45 0 45 -45 0 -45 0 0 45 0 45
-90 0 -90 0 0 -45 0 -45 90 0 90 0 0 -45 0 -45 -135 0 -135 0 0 -90 0 -90 -45
0 -45 0 0 -45 0 -45 45 0 45 0 0 45 0 45 135 0 135 0 0 -45 0 -45 -45 0 -45 0
0 -45 0 -45 45 0 45 0 0 45 0 45 45 0 45 0 0 -90 0 -90 -45 0 -45 0 0 -45 0
-45 -45 0 -45 0 0 -45 0 -45 -45 0 -45 0 0 135 0 135 -135 0 -135 0 0 -90 0
-90 -90 0 -90 0 0 -45 0 -45 180 0 180 0 0 -45 0 -45 -45 0 -45 0 0 -45 0 -45
-45 0 -45 0 0 -135 0 -135 90 0 90 0 0 -45 0 -45 -90 0 -90 0 0 -45 0 -45 -45
0 -45 0 0 -45 0 -45 45 0 45 0 0 45 0 45 90 0 90 0 0 45 0 45 45 0 45 0 0 90
0 90 45 0 45 0 0 45 0 45 -90 0 -90 0 0 -45 0 -45 -45 0 -45 0 0 90 0 90 90 0
90 0 0 45 0 45 45 0 45 0 0 45 0 45 315 0 315 0 0 -45 0 -45 -45 0 -45 0 0
-135 0 -135 -45 0 -45 0 0 90 0 90 -45 0 -45 0 0 -45 0 -45 -45 0 -45 0 0 -45
0 -45 -45 0 -45 0 0 -45 0 -45 -90 0 -90 0 0 -45 0 -45 90 0 90 0 0 45 0 45
45 0 45 0 0 -90 0 -90 45 0 45 0 0 90 0 90 90 0 90 0 0 45 0 45 45 0 45 0 0
45 0 45 45 0 45 0 0 -45 0 -45 90 0 90 0 0 -45 0 -45 -135 0 -135 0 0 -45 0
-45 -90 0 -90 0 0 -45 0 -45 135 0 135 0 0 45 0 45 45 0 45 0 0 -135 0 -135
45 0 45 0 0 -45 0 -45 45 0 45 0 0 90 0 90 45 0 45 0 0 -90 0 -90 45 0 45 0 0
-45 0 -45 45 0 45 0 0 -45 0 -45 -90 0 -90 0 0 45 0 45 -45 0 -45 0 0 -45 0
-45 45 0 45 0 0 -45 0 -45 90 0 90 0 0 -45 0 -45 45 0 45 0 0 135 0 135 45 0
45 0 0 -135 0 -135 90 0 90 0 0 -45 0 -45 -45 0 -45 0 0 -45 0 -45 -45 0 -45
0 0 -45 0 -45 -45 0 -45 0 0 -135 0 -135 -45 0 -45 0 0 -45 0 -45 45 0 45 0 0
45 0 45 90 0 90 0 0 45 0 45 45 0 45 0 0 45 0 45 -45 0 -45 0 0 90 0 90 45 0
45 0 0 -45 0 -45 180 0 180 0 0 135 0 135 -90 0 -90 0 0 45 0 45 90 0 90 0 0
45 0 45 45 0 45 0 0 45 0 45 -45 0 -45 0 0 -45 0 -45 -90 0 -90 0 0 -45 0 -45
-45 0 -45 0 0 90 0 90 -45 0 -45 0 0 90 0 90 45 0 45 0 0 -45 0 -45 45 0 45 0
0 -45 0 -45 45 0 45 0 0 90 0 90 90 0 90 0 0 90 0 90 45 0 45 0 0 45 0 45 45
0 45 0 0 -90 0 -90 -45 0 -45 0 0 -45 0 -45 45 0 45 0 0 -90 0 -90 -45 0 -45
0 0 -45 0 -45 45 0 45 0 0 45 0 45 45 0 45 0 0 -90 0 -90 -90 0 -90 0 0 -45 0
-45 -45 0 -45 0 0 -45 0 -45 45 0 45 0 0 45 0 45 45 0 45 0 0 -45 0 -45 45 0
45 0 0 -45 0 -45 -45 0 -45 0 0 -135 0 -135 135 0 135 0 0 90 0 90 -90 0 -90
0 0 45 0 45 45 0 45 0 0 45 0 45 45 0 45 0 0 90 0 90 -45 0 -45 0 0 90 0 90
-45 0 -45 0 0 90 0 90 45 0 45 0 0 90 0 90 -45 0 -45 0 0 45 0 45 90 0 90 0 0
45 0 45 -90 0 -90 0 0 45 0 45 45 0 45 0 0 45 0 45 -45 0 -45 0 0 45 0 45 45
0 45 0 0 45 0 45 90 0 90 0 0 90 0 90 -45 0 -45 0 0 -45 0 -45 -135 0 -135 0
0 45 0 45 90 0 90 0 0 180 0 180 45 0 45 0 0 90 0 90 -45 0 -45 0 0 90 0 90
-45 0 -45 0 0 45 0 45 45 0 45 0 0 135 0 135 45 0 45 0 0 45 0 45 -45 0 -45 0
0 -45 0 -45 -45 0 -45 0 0 90 0 90 -45 0 -45 0 0 -45 0 -45 -45 0 -45 0 0 -45
0 -45 90 0 90 0 0 -90 0 -90 -45 0 -45 0 0 -90 0 -90 -45 0 -45 0 0 -45 0 -45
90 0 90 0 0 -45 0 -45 -45 0 -45 0 0 -135 0 -135 45 0 45 0 0 -90 0 -90 -45 0
-45 0 0 45 0 45 -180 0 -180 0 0 -45 0 -45 90 0 90 0 0 -45 0 -45 -90 0 -90 0
0 -45 0 -45 45 0 45 0 0 -45 0 -45 45 0 45 0 0 90 0 90 45 0 45 0 0 -90 0 -90
45 0 45 0 0 -90 0 -90 -45 0 -45 0 0 45 0 45 -45 0 -45 0 0 -45 0 -45 -90 0
-90 0 0 45 0 45 -45 0 -45 0 0 90 0 90 -45 0 -45 0 0 -45 0 -45 -135 0 -135 0
0 45 0 45 45 0 45 0 0 45 0 45 90 0 90 0 0 45 0 45 45 0 45 0 0 135 0 135 90
0 90 0 0 -45 0 -45 45 0 45 0 0 45 0 45 -45 0 -45 0 0 45 0 45 90 0 90 0 0 45
0 45 -90 0 -90 0 0 -45 0 -45 -45 0 -45 0 0 45 0 45 -45 0 -45 0 0 45 0 45
-45 0 -45 0 0 -45 0 -45 -90 0 -90 0 0 -45 0 -45 -45 0 -45 0 0 -45 0 -45 45
0 45 0 0 -45 0 -45 45 0 45 0 0 45 0 45 -45 0 -45 0 0 45 0 45 90 0 90 0 0
-135 0 -135 -135 0 -135 0 0 45 0 45 -45 0 -45 0 0 90 0 90 -45 0 -45 0 0 90
0 90 -45 0 -45 0 0 -225 0 -225 -45 0 -45 0 0 135 0 135 -45 0 -45 0 0 45 0
45 45 0 45 0 0 90 0 90 45 0 45 0 0 45 0 45 45 0 45 0 0 90 0 90 -90 0 -90 0
0 45 0 45 90 0 90 0 0 90 0 90 45 0 45 0 0 45 0 45 -45 0 -45 0 0 -45 0 -45
-45 0 -45 0 0 -45 0 -45 -45 0 -45 0 0 45 0 45 -45 0 -45 0 0 45 0 45 -45 0
-45 0 0 -45 0 -45 -45 0 -45 0 0 -45 0 -45 -45 0 -45 0 0 45 0 45 -45 0 -45 0
0 45 0 45 -90 0 -90 0 0 -45z m630 -180 l0 -45 -45 0 -45 0 0 -45 0 -45 45 0
45 0 0 -45 0 -45 45 0 45 0 0 -45 0 -45 -45 0 -45 0 0 45 0 45 -45 0 -45 0 0
-45 0 -45 -180 0 -180 0 0 -90 0 -90 -45 0 -45 0 0 90 0 90 45 0 45 0 0 90 0
90 90 0 90 0 0 -45 0 -45 45 0 45 0 0 90 0 90 45 0 45 0 0 45 0 45 45 0 45 0
0 -45z m-720 -270 l0 -45 -45 0 -45 0 0 45 0 45 45 0 45 0 0 -45z m90 -180 l0
-45 -45 0 -45 0 0 45 0 45 45 0 45 0 0 -45z m360 0 l0 -45 45 0 45 0 0 45 0
45 45 0 45 0 0 -45 0 -45 -45 0 -45 0 0 -45 0 -45 -45 0 -45 0 0 -90 0 -90 45
0 45 0 0 -135 0 -135 135 0 135 0 0 45 0 45 45 0 45 0 0 45 0 45 45 0 45 0 0
-45 0 -45 45 0 45 0 0 -135 0 -135 -45 0 -45 0 0 45 0 45 -45 0 -45 0 0 45 0
45 -45 0 -45 0 0 -90 0 -90 -90 0 -90 0 0 -180 0 -180 -45 0 -45 0 0 180 0
180 -45 0 -45 0 0 -45 0 -45 -45 0 -45 0 0 -45 0 -45 -45 0 -45 0 0 45 0 45
45 0 45 0 0 135 0 135 -45 0 -45 0 0 -45 0 -45 -90 0 -90 0 0 45 0 45 -45 0
-45 0 0 -45 0 -45 -45 0 -45 0 0 45 0 45 45 0 45 0 0 90 0 90 -45 0 -45 0 0
45 0 45 45 0 45 0 0 -45 0 -45 45 0 45 0 0 45 0 45 90 0 90 0 0 45 0 45 -45 0
-45 0 0 45 0 45 90 0 90 0 0 90 0 90 45 0 45 0 0 -45z m990 -180 l0 -45 -45 0
-45 0 0 45 0 45 45 0 45 0 0 -45z m630 -45 l0 -90 -45 0 -45 0 0 90 0 90 45 0
45 0 0 -90z m-2610 -405 l0 -45 -45 0 -45 0 0 45 0 45 45 0 45 0 0 -45z m1530
-360 l0 -135 -135 0 -135 0 0 135 0 135 135 0 135 0 0 -135z m180 0 l0 -45
-45 0 -45 0 0 45 0 45 45 0 45 0 0 -45z m180 0 l0 -45 -45 0 -45 0 0 45 0 45
45 0 45 0 0 -45z m180 -90 l0 -45 45 0 45 0 0 -45 0 -45 -45 0 -45 0 0 -45 0
-45 45 0 45 0 0 -45 0 -45 -45 0 -45 0 0 -45 0 -45 -45 0 -45 0 0 -45 0 -45
-45 0 -45 0 0 45 0 45 -90 0 -90 0 0 -90 0 -90 -45 0 -45 0 0 45 0 45 -90 0
-90 0 0 -45 0 -45 45 0 45 0 0 -45 0 -45 -45 0 -45 0 0 45 0 45 -45 0 -45 0 0
90 0 90 -45 0 -45 0 0 45 0 45 -45 0 -45 0 0 45 0 45 45 0 45 0 0 45 0 45 45
0 45 0 0 -45 0 -45 45 0 45 0 0 45 0 45 90 0 90 0 0 -45 0 -45 -90 0 -90 0 0
-45 0 -45 45 0 45 0 0 -45 0 -45 90 0 90 0 0 45 0 45 45 0 45 0 0 45 0 45 45
0 45 0 0 45 0 45 90 0 90 0 0 45 0 45 -45 0 -45 0 0 45 0 45 45 0 45 0 0 -45z
m270 0 l0 -45 45 0 45 0 0 -45 0 -45 -45 0 -45 0 0 -45 0 -45 -45 0 -45 0 0
135 0 135 45 0 45 0 0 -45z m-1800 -90 l0 -45 -45 0 -45 0 0 45 0 45 45 0 45
0 0 -45z m1980 -360 l0 -45 -45 0 -45 0 0 45 0 45 45 0 45 0 0 -45z m-720
-360 l0 -45 45 0 45 0 0 -45 0 -45 -45 0 -45 0 0 45 0 45 -45 0 -45 0 0 45 0
45 45 0 45 0 0 -45z m810 -135 l0 -90 -45 0 -45 0 0 90 0 90 45 0 45 0 0 -90z
m-540 -135 l0 -45 -90 0 -90 0 0 45 0 45 90 0 90 0 0 -45z m-360 -270 l0 -45
-45 0 -45 0 0 45 0 45 45 0 45 0 0 -45z"/>
<path d="M2160 3285 l0 -45 45 0 45 0 0 45 0 45 -45 0 -45 0 0 -45z"/>
<path d="M1890 3150 l0 -90 45 0 45 0 0 90 0 90 -45 0 -45 0 0 -90z"/>
<path d="M2700 3105 l0 -45 45 0 45 0 0 45 0 45 -45 0 -45 0 0 -45z"/>
<path d="M2340 2925 l0 -45 45 0 45 0 0 45 0 45 -45 0 -45 0 0 -45z"/>
<path d="M2610 2655 l0 -45 45 0 45 0 0 45 0 45 -45 0 -45 0 0 -45z"/>
<path d="M3150 2250 l0 -90 45 0 45 0 0 45 0 45 45 0 45 0 0 45 0 45 -90 0
-90 0 0 -90z"/>
<path d="M2610 2205 l0 -45 45 0 45 0 0 45 0 45 -45 0 -45 0 0 -45z"/>
<path d="M720 4005 l0 -45 45 0 45 0 0 45 0 45 -45 0 -45 0 0 -45z"/>
<path d="M3420 4005 l0 -45 45 0 45 0 0 45 0 45 -45 0 -45 0 0 -45z"/>
<path d="M1350 3870 l0 -90 45 0 45 0 0 90 0 90 -45 0 -45 0 0 -90z"/>
<path d="M1170 3690 l0 -90 45 0 45 0 0 90 0 90 -45 0 -45 0 0 -90z"/>
<path d="M2790 3555 l0 -45 45 0 45 0 0 45 0 45 -45 0 -45 0 0 -45z"/>
<path d="M810 3285 l0 -45 135 0 135 0 0 45 0 45 -135 0 -135 0 0 -45z"/>
<path d="M270 3195 l0 -45 45 0 45 0 0 45 0 45 -45 0 -45 0 0 -45z"/>
<path d="M540 3195 l0 -45 90 0 90 0 0 -45 0 -45 45 0 45 0 0 45 0 45 -45 0
-45 0 0 45 0 45 -90 0 -90 0 0 -45z"/>
<path d="M4410 3195 l0 -45 45 0 45 0 0 -45 0 -45 45 0 45 0 0 45 0 45 -45 0
-45 0 0 45 0 45 -45 0 -45 0 0 -45z"/>
<path d="M900 3105 l0 -45 45 0 45 0 0 45 0 45 -45 0 -45 0 0 -45z"/>
<path d="M360 3015 l0 -45 45 0 45 0 0 45 0 45 -45 0 -45 0 0 -45z"/>
<path d="M4320 3015 l0 -45 45 0 45 0 0 45 0 45 -45 0 -45 0 0 -45z"/>
<path d="M4140 2925 l0 -45 45 0 45 0 0 45 0 45 -45 0 -45 0 0 -45z"/>
<path d="M1530 2655 l0 -45 45 0 45 0 0 45 0 45 -45 0 -45 0 0 -45z"/>
<path d="M4050 2340 l0 -90 -45 0 -45 0 0 -45 0 -45 135 0 135 0 0 45 0 45
135 0 135 0 0 -45 0 -45 45 0 45 0 0 45 0 45 -45 0 -45 0 0 45 0 45 -45 0 -45
0 0 45 0 45 -45 0 -45 0 0 -45 0 -45 -45 0 -45 0 0 -45 0 -45 -45 0 -45 0 0
90 0 90 -45 0 -45 0 0 -90z"/>
<path d="M630 2295 l0 -45 -45 0 -45 0 0 -45 0 -45 45 0 45 0 0 -45 0 -45 90
0 90 0 0 -90 0 -90 90 0 90 0 0 -45 0 -45 45 0 45 0 0 135 0 135 -90 0 -90 0
0 45 0 45 -135 0 -135 0 0 45 0 45 45 0 45 0 0 45 0 45 -45 0 -45 0 0 -45z"/>
<path d="M1440 2205 l0 -45 -45 0 -45 0 0 -45 0 -45 -45 0 -45 0 0 45 0 45
-45 0 -45 0 0 -180 0 -180 90 0 90 0 0 -45 0 -45 45 0 45 0 0 -90 0 -90 45 0
45 0 0 45 0 45 90 0 90 0 0 45 0 45 45 0 45 0 0 45 0 45 90 0 90 0 0 45 0 45
-45 0 -45 0 0 90 0 90 -180 0 -180 0 0 90 0 90 -45 0 -45 0 0 -45z m0 -180 l0
-45 90 0 90 0 0 -45 0 -45 45 0 45 0 0 45 0 45 45 0 45 0 0 -90 0 -90 -135 0
-135 0 0 -45 0 -45 -45 0 -45 0 0 135 0 135 -45 0 -45 0 0 -45 0 -45 -45 0
-45 0 0 45 0 45 45 0 45 0 0 45 0 45 45 0 45 0 0 -45z"/>
<path d="M4680 2205 l0 -45 45 0 45 0 0 45 0 45 -45 0 -45 0 0 -45z"/>
<path d="M3510 1350 l0 -90 45 0 45 0 0 90 0 90 -45 0 -45 0 0 -90z"/>
<path d="M4140 1035 l0 -45 45 0 45 0 0 45 0 45 -45 0 -45 0 0 -45z"/>
<path d="M990 855 l0 -45 45 0 45 0 0 45 0 45 -45 0 -45 0 0 -45z"/>
<path d="M2970 765 l0 -45 45 0 45 0 0 45 0 45 -45 0 -45 0 0 -45z"/>
<path d="M1170 540 l0 -90 45 0 45 0 0 -45 0 -45 45 0 45 0 0 90 0 90 -45 0
-45 0 0 45 0 45 -45 0 -45 0 0 -90z"/>
<path d="M2970 4680 l0 -90 45 0 45 0 0 90 0 90 -45 0 -45 0 0 -90z"/>
<path d="M2610 4635 l0 -45 45 0 45 0 0 45 0 45 -45 0 -45 0 0 -45z"/>
<path d="M630 2655 l0 -45 45 0 45 0 0 45 0 45 -45 0 -45 0 0 -45z"/>
<path d="M4590 2655 l0 -45 45 0 45 0 0 45 0 45 -45 0 -45 0 0 -45z"/>
<path d="M1800 675 l0 -45 45 0 45 0 0 45 0 45 -45 0 -45 0 0 -45z"/>
<path d="M2610 675 l0 -45 45 0 45 0 0 45 0 45 -45 0 -45 0 0 -45z"/>
<path d="M4590 675 l0 -45 45 0 45 0 0 45 0 45 -45 0 -45 0 0 -45z"/>
<path d="M4590 4905 l0 -315 315 0 315 0 0 315 0 315 -315 0 -315 0 0 -315z
m540 0 l0 -225 -225 0 -225 0 0 225 0 225 225 0 225 0 0 -225z"/>
<path d="M4770 4905 l0 -135 135 0 135 0 0 135 0 135 -135 0 -135 0 0 -135z"/>
<path d="M5040 3015 l0 -45 45 0 45 0 0 -90 0 -90 -45 0 -45 0 0 -45 0 -45 45
0 45 0 0 45 0 45 45 0 45 0 0 135 0 135 -90 0 -90 0 0 -45z"/>
<path d="M180 2115 l0 -45 -45 0 -45 0 0 -45 0 -45 45 0 45 0 0 45 0 45 45 0
45 0 0 45 0 45 -45 0 -45 0 0 -45z"/>
<path d="M90 1845 l0 -45 45 0 45 0 0 45 0 45 -45 0 -45 0 0 -45z"/>
<path d="M5040 1215 l0 -45 45 0 45 0 0 -90 0 -90 45 0 45 0 0 135 0 135 -90
0 -90 0 0 -45z"/>
<path d="M90 405 l0 -315 315 0 315 0 0 315 0 315 -315 0 -315 0 0 -315z m540
0 l0 -225 -225 0 -225 0 0 225 0 225 225 0 225 0 0 -225z"/>
<path d="M270 405 l0 -135 135 0 135 0 0 135 0 135 -135 0 -135 0 0 -135z"/>
<path d="M3510 135 l0 -45 45 0 45 0 0 45 0 45 -45 0 -45 0 0 -45z"/>
<path d="M4680 135 l0 -45 45 0 45 0 0 45 0 45 -45 0 -45 0 0 -45z"/>
<path d="M5130 135 l0 -45 45 0 45 0 0 45 0 45 -45 0 -45 0 0 -45z"/>
</g>
</svg>
