<?xml version="1.0" standalone="no"?>
<!DOCTYPE svg PUBLIC "-//W3C//DTD SVG 20010904//EN"
 "http://www.w3.org/TR/2001/REC-SVG-20010904/DTD/svg10.dtd">
<svg version="1.0" xmlns="http://www.w3.org/2000/svg"
 width="531.000000pt" height="531.000000pt" viewBox="0 0 531.000000 531.000000"
 preserveAspectRatio="xMidYMid meet">

<g transform="translate(0.000000,531.000000) scale(0.100000,-0.100000)"
fill="#000000" stroke="none">
<path d="M90 4905 l0 -315 315 0 315 0 0 315 0 315 -315 0 -315 0 0 -315z
m540 0 l0 -225 -225 0 -225 0 0 225 0 225 225 0 225 0 0 -225z"/>
<path d="M270 4905 l0 -135 135 0 135 0 0 135 0 135 -135 0 -135 0 0 -135z"/>
<path d="M990 5175 l0 -45 -90 0 -90 0 0 -45 0 -45 90 0 90 0 0 -45 0 -45 -45
0 -45 0 0 -45 0 -45 90 0 90 0 0 90 0 90 45 0 45 0 0 90 0 90 -90 0 -90 0 0
-45z"/>
<path d="M1260 5130 l0 -90 90 0 90 0 0 -180 0 -180 -45 0 -45 0 0 45 0 45
-45 0 -45 0 0 45 0 45 45 0 45 0 0 45 0 45 -45 0 -45 0 0 -45 0 -45 -45 0 -45
0 0 -45 0 -45 45 0 45 0 0 -45 0 -45 -45 0 -45 0 0 -45 0 -45 45 0 45 0 0 45
0 45 45 0 45 0 0 -90 0 -90 45 0 45 0 0 -45 0 -45 -90 0 -90 0 0 -45 0 -45
-45 0 -45 0 0 45 0 45 -90 0 -90 0 0 90 0 90 45 0 45 0 0 90 0 90 -45 0 -45 0
0 -90 0 -90 -45 0 -45 0 0 90 0 90 -45 0 -45 0 0 -135 0 -135 -180 0 -180 0 0
-45 0 -45 -90 0 -90 0 0 -90 0 -90 -45 0 -45 0 0 -90 0 -90 90 0 90 0 0 45 0
45 90 0 90 0 0 45 0 45 90 0 90 0 0 -45 0 -45 -45 0 -45 0 0 -45 0 -45 -45 0
-45 0 0 -45 0 -45 -45 0 -45 0 0 -90 0 -90 -45 0 -45 0 0 45 0 45 -90 0 -90 0
0 -90 0 -90 45 0 45 0 0 -45 0 -45 45 0 45 0 0 -45 0 -45 -90 0 -90 0 0 45 0
45 -45 0 -45 0 0 -45 0 -45 45 0 45 0 0 -45 0 -45 -45 0 -45 0 0 -90 0 -90 45
0 45 0 0 -45 0 -45 -45 0 -45 0 0 -135 0 -135 45 0 45 0 0 -45 0 -45 -45 0
-45 0 0 -135 0 -135 135 0 135 0 0 -45 0 -45 -135 0 -135 0 0 -225 0 -225 45
0 45 0 0 90 0 90 45 0 45 0 0 -45 0 -45 45 0 45 0 0 90 0 90 90 0 90 0 0 -45
0 -45 -45 0 -45 0 0 -90 0 -90 45 0 45 0 0 -45 0 -45 -180 0 -180 0 0 -45 0
-45 -45 0 -45 0 0 -45 0 -45 45 0 45 0 0 -45 0 -45 -45 0 -45 0 0 -180 0 -180
45 0 45 0 0 -45 0 -45 -45 0 -45 0 0 -135 0 -135 225 0 225 0 0 45 0 45 90 0
90 0 0 45 0 45 45 0 45 0 0 -90 0 -90 -90 0 -90 0 0 -45 0 -45 90 0 90 0 0
-180 0 -180 45 0 45 0 0 -90 0 -90 45 0 45 0 0 45 0 45 45 0 45 0 0 45 0 45
45 0 45 0 0 -90 0 -90 45 0 45 0 0 -90 0 -90 45 0 45 0 0 90 0 90 45 0 45 0 0
-90 0 -90 45 0 45 0 0 90 0 90 45 0 45 0 0 45 0 45 45 0 45 0 0 -45 0 -45 45
0 45 0 0 -45 0 -45 -45 0 -45 0 0 -45 0 -45 45 0 45 0 0 45 0 45 45 0 45 0 0
-45 0 -45 45 0 45 0 0 45 0 45 45 0 45 0 0 45 0 45 45 0 45 0 0 -45 0 -45 90
0 90 0 0 45 0 45 -90 0 -90 0 0 90 0 90 45 0 45 0 0 45 0 45 45 0 45 0 0 -90
0 -90 90 0 90 0 0 -45 0 -45 45 0 45 0 0 45 0 45 45 0 45 0 0 -90 0 -90 -135
0 -135 0 0 -45 0 -45 180 0 180 0 0 45 0 45 45 0 45 0 0 -45 0 -45 90 0 90 0
0 45 0 45 45 0 45 0 0 -45 0 -45 135 0 135 0 0 90 0 90 45 0 45 0 0 45 0 45
90 0 90 0 0 -45 0 -45 -45 0 -45 0 0 -45 0 -45 -45 0 -45 0 0 -45 0 -45 135 0
135 0 0 90 0 90 45 0 45 0 0 -45 0 -45 45 0 45 0 0 45 0 45 45 0 45 0 0 -90 0
-90 45 0 45 0 0 90 0 90 45 0 45 0 0 -45 0 -45 45 0 45 0 0 -45 0 -45 45 0 45
0 0 45 0 45 45 0 45 0 0 -45 0 -45 45 0 45 0 0 90 0 90 -90 0 -90 0 0 -45 0
-45 -45 0 -45 0 0 45 0 45 -45 0 -45 0 0 90 0 90 45 0 45 0 0 45 0 45 45 0 45
0 0 -45 0 -45 90 0 90 0 0 -45 0 -45 90 0 90 0 0 -45 0 -45 -45 0 -45 0 0 -45
0 -45 45 0 45 0 0 -45 0 -45 45 0 45 0 0 495 0 495 -45 0 -45 0 0 45 0 45 45
0 45 0 0 135 0 135 -90 0 -90 0 0 90 0 90 45 0 45 0 0 -45 0 -45 90 0 90 0 0
-90 0 -90 90 0 90 0 0 90 0 90 45 0 45 0 0 45 0 45 -45 0 -45 0 0 90 0 90 -45
0 -45 0 0 -135 0 -135 -45 0 -45 0 0 45 0 45 -45 0 -45 0 0 90 0 90 45 0 45 0
0 90 0 90 -45 0 -45 0 0 45 0 45 90 0 90 0 0 -45 0 -45 45 0 45 0 0 90 0 90
-90 0 -90 0 0 45 0 45 -45 0 -45 0 0 45 0 45 -45 0 -45 0 0 45 0 45 135 0 135
0 0 -45 0 -45 90 0 90 0 0 45 0 45 -45 0 -45 0 0 45 0 45 -90 0 -90 0 0 45 0
45 -45 0 -45 0 0 90 0 90 45 0 45 0 0 45 0 45 45 0 45 0 0 -135 0 -135 90 0
90 0 0 90 0 90 -45 0 -45 0 0 45 0 45 -45 0 -45 0 0 45 0 45 90 0 90 0 0 45 0
45 -90 0 -90 0 0 -45 0 -45 -45 0 -45 0 0 45 0 45 -45 0 -45 0 0 -45 0 -45 45
0 45 0 0 -45 0 -45 -90 0 -90 0 0 135 0 135 90 0 90 0 0 45 0 45 45 0 45 0 0
-45 0 -45 45 0 45 0 0 45 0 45 -45 0 -45 0 0 45 0 45 -90 0 -90 0 0 -45 0 -45
-45 0 -45 0 0 45 0 45 -45 0 -45 0 0 45 0 45 45 0 45 0 0 45 0 45 -45 0 -45 0
0 90 0 90 45 0 45 0 0 -45 0 -45 90 0 90 0 0 -45 0 -45 45 0 45 0 0 -45 0 -45
45 0 45 0 0 -45 0 -45 45 0 45 0 0 45 0 45 -45 0 -45 0 0 135 0 135 45 0 45 0
0 45 0 45 -45 0 -45 0 0 135 0 135 -90 0 -90 0 0 45 0 45 -45 0 -45 0 0 -45 0
-45 45 0 45 0 0 -45 0 -45 -90 0 -90 0 0 -45 0 -45 -45 0 -45 0 0 90 0 90 45
0 45 0 0 45 0 45 -45 0 -45 0 0 135 0 135 45 0 45 0 0 -90 0 -90 45 0 45 0 0
90 0 90 -45 0 -45 0 0 45 0 45 -90 0 -90 0 0 -135 0 -135 -45 0 -45 0 0 90 0
90 -45 0 -45 0 0 90 0 90 45 0 45 0 0 45 0 45 -45 0 -45 0 0 -45 0 -45 -45 0
-45 0 0 90 0 90 45 0 45 0 0 225 0 225 -90 0 -90 0 0 -45 0 -45 -45 0 -45 0 0
45 0 45 -45 0 -45 0 0 -45 0 -45 45 0 45 0 0 -45 0 -45 -135 0 -135 0 0 -90 0
-90 -45 0 -45 0 0 45 0 45 -45 0 -45 0 0 45 0 45 45 0 45 0 0 45 0 45 -45 0
-45 0 0 45 0 45 -90 0 -90 0 0 -45 0 -45 90 0 90 0 0 -45 0 -45 -135 0 -135 0
0 90 0 90 -90 0 -90 0 0 -45 0 -45 45 0 45 0 0 -45 0 -45 -45 0 -45 0 0 -45 0
-45 -135 0 -135 0 0 45 0 45 -45 0 -45 0 0 90 0 90 -315 0 -315 0 0 -45 0 -45
-45 0 -45 0 0 45 0 45 -90 0 -90 0 0 -90 0 -90 45 0 45 0 0 -90 0 -90 -45 0
-45 0 0 45 0 45 -45 0 -45 0 0 135 0 135 -135 0 -135 0 0 -45 0 -45 -45 0 -45
0 0 45 0 45 -135 0 -135 0 0 -90z m270 -45 l0 -45 -45 0 -45 0 0 45 0 45 45 0
45 0 0 -45z m270 -90 l0 -135 45 0 45 0 0 -45 0 -45 -45 0 -45 0 0 45 0 45
-45 0 -45 0 0 -135 0 -135 45 0 45 0 0 45 0 45 45 0 45 0 0 -45 0 -45 45 0 45
0 0 90 0 90 45 0 45 0 0 45 0 45 45 0 45 0 0 45 0 45 135 0 135 0 0 45 0 45
-90 0 -90 0 0 45 0 45 135 0 135 0 0 -45 0 -45 90 0 90 0 0 45 0 45 45 0 45 0
0 -45 0 -45 45 0 45 0 0 -45 0 -45 45 0 45 0 0 -45 0 -45 45 0 45 0 0 -45 0
-45 45 0 45 0 0 -90 0 -90 45 0 45 0 0 45 0 45 45 0 45 0 0 45 0 45 -45 0 -45
0 0 45 0 45 45 0 45 0 0 90 0 90 45 0 45 0 0 -90 0 -90 45 0 45 0 0 45 0 45
90 0 90 0 0 -45 0 -45 -90 0 -90 0 0 -45 0 -45 225 0 225 0 0 45 0 45 45 0 45
0 0 45 0 45 135 0 135 0 0 -90 0 -90 -45 0 -45 0 0 45 0 45 -45 0 -45 0 0 -45
0 -45 -45 0 -45 0 0 -90 0 -90 45 0 45 0 0 45 0 45 45 0 45 0 0 -135 0 -135
45 0 45 0 0 -45 0 -45 45 0 45 0 0 -90 0 -90 135 0 135 0 0 -45 0 -45 -45 0
-45 0 0 -90 0 -90 -45 0 -45 0 0 90 0 90 -90 0 -90 0 0 -45 0 -45 45 0 45 0 0
-90 0 -90 45 0 45 0 0 -45 0 -45 -90 0 -90 0 0 -45 0 -45 135 0 135 0 0 -45 0
-45 45 0 45 0 0 -45 0 -45 -45 0 -45 0 0 45 0 45 -45 0 -45 0 0 -90 0 -90 45
0 45 0 0 -45 0 -45 -45 0 -45 0 0 -90 0 -90 45 0 45 0 0 45 0 45 45 0 45 0 0
-90 0 -90 -45 0 -45 0 0 -45 0 -45 -45 0 -45 0 0 45 0 45 -45 0 -45 0 0 -270
0 -270 90 0 90 0 0 -45 0 -45 45 0 45 0 0 -45 0 -45 -45 0 -45 0 0 -45 0 -45
90 0 90 0 0 45 0 45 45 0 45 0 0 -45 0 -45 -45 0 -45 0 0 -135 0 -135 45 0 45
0 0 -45 0 -45 -45 0 -45 0 0 45 0 45 -45 0 -45 0 0 90 0 90 -45 0 -45 0 0 -45
0 -45 -45 0 -45 0 0 45 0 45 45 0 45 0 0 45 0 45 -45 0 -45 0 0 90 0 90 -45 0
-45 0 0 -90 0 -90 -45 0 -45 0 0 -45 0 -45 45 0 45 0 0 -90 0 -90 90 0 90 0 0
-45 0 -45 45 0 45 0 0 -45 0 -45 -45 0 -45 0 0 -90 0 -90 -135 0 -135 0 0 -45
0 -45 90 0 90 0 0 -90 0 -90 90 0 90 0 0 45 0 45 -45 0 -45 0 0 45 0 45 45 0
45 0 0 -45 0 -45 45 0 45 0 0 -90 0 -90 -45 0 -45 0 0 -90 0 -90 45 0 45 0 0
-45 0 -45 -45 0 -45 0 0 45 0 45 -45 0 -45 0 0 45 0 45 -45 0 -45 0 0 -90 0
-90 -45 0 -45 0 0 -45 0 -45 -45 0 -45 0 0 -45 0 -45 45 0 45 0 0 -45 0 -45
-45 0 -45 0 0 -45 0 -45 -90 0 -90 0 0 45 0 45 -45 0 -45 0 0 -90 0 -90 45 0
45 0 0 -45 0 -45 -90 0 -90 0 0 180 0 180 45 0 45 0 0 45 0 45 45 0 45 0 0
-90 0 -90 45 0 45 0 0 90 0 90 45 0 45 0 0 90 0 90 -45 0 -45 0 0 45 0 45 -45
0 -45 0 0 -45 0 -45 -45 0 -45 0 0 -45 0 -45 -45 0 -45 0 0 90 0 90 90 0 90 0
0 45 0 45 90 0 90 0 0 45 0 45 -90 0 -90 0 0 45 0 45 -45 0 -45 0 0 90 0 90
45 0 45 0 0 -90 0 -90 45 0 45 0 0 90 0 90 45 0 45 0 0 90 0 90 -90 0 -90 0 0
-45 0 -45 -90 0 -90 0 0 45 0 45 90 0 90 0 0 45 0 45 -90 0 -90 0 0 45 0 45
-45 0 -45 0 0 90 0 90 45 0 45 0 0 -45 0 -45 45 0 45 0 0 -45 0 -45 45 0 45 0
0 -45 0 -45 45 0 45 0 0 45 0 45 45 0 45 0 0 90 0 90 -90 0 -90 0 0 45 0 45
-90 0 -90 0 0 45 0 45 -45 0 -45 0 0 45 0 45 -45 0 -45 0 0 -45 0 -45 -45 0
-45 0 0 -45 0 -45 45 0 45 0 0 -360 0 -360 45 0 45 0 0 -180 0 -180 -90 0 -90
0 0 135 0 135 -45 0 -45 0 0 -45 0 -45 -45 0 -45 0 0 -90 0 -90 -90 0 -90 0 0
45 0 45 -45 0 -45 0 0 45 0 45 45 0 45 0 0 90 0 90 -90 0 -90 0 0 45 0 45 -45
0 -45 0 0 -45 0 -45 -45 0 -45 0 0 -45 0 -45 45 0 45 0 0 -90 0 -90 45 0 45 0
0 -90 0 -90 90 0 90 0 0 -45 0 -45 45 0 45 0 0 -45 0 -45 45 0 45 0 0 45 0 45
45 0 45 0 0 -135 0 -135 -45 0 -45 0 0 -45 0 -45 90 0 90 0 0 45 0 45 45 0 45
0 0 45 0 45 45 0 45 0 0 -45 0 -45 -45 0 -45 0 0 -90 0 -90 -135 0 -135 0 0
-45 0 -45 -45 0 -45 0 0 45 0 45 45 0 45 0 0 45 0 45 -45 0 -45 0 0 45 0 45
-45 0 -45 0 0 90 0 90 -90 0 -90 0 0 -45 0 -45 -45 0 -45 0 0 45 0 45 -45 0
-45 0 0 -90 0 -90 90 0 90 0 0 -45 0 -45 90 0 90 0 0 -135 0 -135 -135 0 -135
0 0 45 0 45 -45 0 -45 0 0 -45 0 -45 -45 0 -45 0 0 45 0 45 45 0 45 0 0 45 0
45 -45 0 -45 0 0 45 0 45 45 0 45 0 0 45 0 45 -45 0 -45 0 0 135 0 135 135 0
135 0 0 45 0 45 -90 0 -90 0 0 45 0 45 45 0 45 0 0 45 0 45 -45 0 -45 0 0 90
0 90 -45 0 -45 0 0 45 0 45 45 0 45 0 0 45 0 45 -90 0 -90 0 0 45 0 45 -45 0
-45 0 0 -45 0 -45 -45 0 -45 0 0 45 0 45 45 0 45 0 0 45 0 45 90 0 90 0 0 90
0 90 90 0 90 0 0 -45 0 -45 -45 0 -45 0 0 -45 0 -45 -45 0 -45 0 0 -45 0 -45
135 0 135 0 0 180 0 180 45 0 45 0 0 90 0 90 45 0 45 0 0 45 0 45 -45 0 -45 0
0 135 0 135 -45 0 -45 0 0 -180 0 -180 -45 0 -45 0 0 -45 0 -45 -45 0 -45 0 0
-45 0 -45 -45 0 -45 0 0 45 0 45 45 0 45 0 0 45 0 45 -90 0 -90 0 0 -90 0 -90
-45 0 -45 0 0 -90 0 -90 -90 0 -90 0 0 45 0 45 -90 0 -90 0 0 -45 0 -45 -45 0
-45 0 0 45 0 45 -45 0 -45 0 0 -45 0 -45 -180 0 -180 0 0 -45 0 -45 45 0 45 0
0 -45 0 -45 -45 0 -45 0 0 -45 0 -45 -45 0 -45 0 0 -45 0 -45 -45 0 -45 0 0
-45 0 -45 -45 0 -45 0 0 45 0 45 -45 0 -45 0 0 -45 0 -45 -45 0 -45 0 0 -45 0
-45 90 0 90 0 0 -45 0 -45 45 0 45 0 0 45 0 45 45 0 45 0 0 45 0 45 135 0 135
0 0 45 0 45 45 0 45 0 0 45 0 45 -45 0 -45 0 0 90 0 90 45 0 45 0 0 -90 0 -90
90 0 90 0 0 -45 0 -45 -45 0 -45 0 0 -45 0 -45 135 0 135 0 0 135 0 135 45 0
45 0 0 -180 0 -180 45 0 45 0 0 -45 0 -45 135 0 135 0 0 -45 0 -45 -225 0
-225 0 0 45 0 45 -90 0 -90 0 0 -45 0 -45 -90 0 -90 0 0 -45 0 -45 45 0 45 0
0 -45 0 -45 45 0 45 0 0 45 0 45 135 0 135 0 0 -45 0 -45 -45 0 -45 0 0 -45 0
-45 -45 0 -45 0 0 -90 0 -90 -45 0 -45 0 0 45 0 45 -180 0 -180 0 0 -90 0 -90
45 0 45 0 0 -45 0 -45 45 0 45 0 0 -90 0 -90 -45 0 -45 0 0 -45 0 -45 -45 0
-45 0 0 45 0 45 45 0 45 0 0 45 0 45 -135 0 -135 0 0 45 0 45 90 0 90 0 0 45
0 45 -45 0 -45 0 0 90 0 90 -90 0 -90 0 0 -45 0 -45 -45 0 -45 0 0 -45 0 -45
45 0 45 0 0 -90 0 -90 -45 0 -45 0 0 45 0 45 -90 0 -90 0 0 45 0 45 -45 0 -45
0 0 90 0 90 -45 0 -45 0 0 -45 0 -45 -45 0 -45 0 0 45 0 45 -45 0 -45 0 0 90
0 90 45 0 45 0 0 -45 0 -45 90 0 90 0 0 45 0 45 -45 0 -45 0 0 90 0 90 -45 0
-45 0 0 -45 0 -45 -90 0 -90 0 0 45 0 45 -45 0 -45 0 0 45 0 45 -45 0 -45 0 0
-45 0 -45 -45 0 -45 0 0 45 0 45 -45 0 -45 0 0 -90 0 -90 -90 0 -90 0 0 45 0
45 -45 0 -45 0 0 -45 0 -45 -45 0 -45 0 0 45 0 45 45 0 45 0 0 45 0 45 45 0
45 0 0 -45 0 -45 45 0 45 0 0 90 0 90 90 0 90 0 0 45 0 45 45 0 45 0 0 45 0
45 -90 0 -90 0 0 -45 0 -45 -45 0 -45 0 0 45 0 45 -45 0 -45 0 0 45 0 45 -45
0 -45 0 0 -90 0 -90 45 0 45 0 0 -45 0 -45 -45 0 -45 0 0 45 0 45 -45 0 -45 0
0 90 0 90 45 0 45 0 0 45 0 45 90 0 90 0 0 -90 0 -90 45 0 45 0 0 45 0 45 90
0 90 0 0 -45 0 -45 45 0 45 0 0 45 0 45 45 0 45 0 0 45 0 45 -135 0 -135 0 0
45 0 45 -90 0 -90 0 0 45 0 45 45 0 45 0 0 45 0 45 90 0 90 0 0 45 0 45 -90 0
-90 0 0 90 0 90 45 0 45 0 0 45 0 45 45 0 45 0 0 -45 0 -45 -45 0 -45 0 0 -45
0 -45 180 0 180 0 0 45 0 45 -90 0 -90 0 0 135 0 135 45 0 45 0 0 45 0 45 45
0 45 0 0 45 0 45 -45 0 -45 0 0 45 0 45 45 0 45 0 0 -45 0 -45 45 0 45 0 0
-90 0 -90 45 0 45 0 0 45 0 45 45 0 45 0 0 90 0 90 -45 0 -45 0 0 45 0 45 45
0 45 0 0 45 0 45 45 0 45 0 0 45 0 45 -90 0 -90 0 0 -45 0 -45 -45 0 -45 0 0
-45 0 -45 -90 0 -90 0 0 45 0 45 90 0 90 0 0 135 0 135 -45 0 -45 0 0 -45 0
-45 -45 0 -45 0 0 -45 0 -45 -90 0 -90 0 0 -45 0 -45 -45 0 -45 0 0 45 0 45
-45 0 -45 0 0 45 0 45 45 0 45 0 0 45 0 45 -45 0 -45 0 0 45 0 45 -45 0 -45 0
0 -45 0 -45 -45 0 -45 0 0 -45 0 -45 45 0 45 0 0 -225 0 -225 -45 0 -45 0 0
135 0 135 -90 0 -90 0 0 90 0 90 45 0 45 0 0 90 0 90 -45 0 -45 0 0 90 0 90
45 0 45 0 0 -90 0 -90 90 0 90 0 0 45 0 45 -45 0 -45 0 0 45 0 45 45 0 45 0 0
135 0 135 45 0 45 0 0 135 0 135 45 0 45 0 0 45 0 45 45 0 45 0 0 45 0 45 90
0 90 0 0 90 0 90 -45 0 -45 0 0 -45 0 -45 -45 0 -45 0 0 45 0 45 -45 0 -45 0
0 45 0 45 45 0 45 0 0 -45 0 -45 45 0 45 0 0 90 0 90 45 0 45 0 0 -90 0 -90
45 0 45 0 0 -45 0 -45 45 0 45 0 0 45 0 45 45 0 45 0 0 -45 0 -45 45 0 45 0 0
45 0 45 45 0 45 0 0 -45 0 -45 45 0 45 0 0 -45 0 -45 -45 0 -45 0 0 45 0 45
-45 0 -45 0 0 -90 0 -90 45 0 45 0 0 -90 0 -90 90 0 90 0 0 45 0 45 -45 0 -45
0 0 45 0 45 45 0 45 0 0 135 0 135 -45 0 -45 0 0 45 0 45 45 0 45 0 0 45 0 45
-45 0 -45 0 0 90 0 90 45 0 45 0 0 135 0 135 45 0 45 0 0 90 0 90 90 0 90 0 0
-135z m360 90 l0 -45 -45 0 -45 0 0 45 0 45 45 0 45 0 0 -45z m2160 0 l0 -45
-45 0 -45 0 0 45 0 45 45 0 45 0 0 -45z m-3780 -720 l0 -45 -45 0 -45 0 0 45
0 45 45 0 45 0 0 -45z m4500 -495 l0 -90 45 0 45 0 0 -45 0 -45 -180 0 -180 0
0 90 0 90 90 0 90 0 0 45 0 45 45 0 45 0 0 -90z m-4230 -1215 l0 -135 -135 0
-135 0 0 135 0 135 135 0 135 0 0 -135z m3960 0 l0 -135 -135 0 -135 0 0 135
0 135 135 0 135 0 0 -135z m-4500 0 l0 -45 -45 0 -45 0 0 45 0 45 45 0 45 0 0
-45z m270 -270 l0 -45 -90 0 -90 0 0 45 0 45 90 0 90 0 0 -45z m180 0 l0 -45
-45 0 -45 0 0 45 0 45 45 0 45 0 0 -45z m-450 -90 l0 -45 -45 0 -45 0 0 45 0
45 45 0 45 0 0 -45z m90 -540 l0 -45 -90 0 -90 0 0 45 0 45 90 0 90 0 0 -45z
m2340 -360 l0 -45 -45 0 -45 0 0 45 0 45 45 0 45 0 0 -45z m1350 -180 l0 -45
-45 0 -45 0 0 45 0 45 45 0 45 0 0 -45z m-1350 -270 l0 -45 -45 0 -45 0 0 45
0 45 45 0 45 0 0 -45z m1080 -45 l0 -90 -45 0 -45 0 0 90 0 90 45 0 45 0 0
-90z m-2880 -45 l0 -45 -45 0 -45 0 0 45 0 45 45 0 45 0 0 -45z m1890 -180 l0
-135 -135 0 -135 0 0 135 0 135 135 0 135 0 0 -135z m1980 0 l0 -135 -135 0
-135 0 0 135 0 135 135 0 135 0 0 -135z m-3780 -135 l0 -90 -45 0 -45 0 0 90
0 90 45 0 45 0 0 -90z m1170 45 l0 -45 -45 0 -45 0 0 45 0 45 45 0 45 0 0 -45z"/>
<path d="M2700 4995 l0 -45 -45 0 -45 0 0 -45 0 -45 -45 0 -45 0 0 45 0 45
-45 0 -45 0 0 -90 0 -90 -45 0 -45 0 0 45 0 45 -45 0 -45 0 0 -45 0 -45 -45 0
-45 0 0 -45 0 -45 -45 0 -45 0 0 -45 0 -45 45 0 45 0 0 45 0 45 45 0 45 0 0
-90 0 -90 45 0 45 0 0 -90 0 -90 -45 0 -45 0 0 45 0 45 -45 0 -45 0 0 -45 0
-45 45 0 45 0 0 -90 0 -90 -45 0 -45 0 0 -45 0 -45 -45 0 -45 0 0 -90 0 -90
-45 0 -45 0 0 90 0 90 -45 0 -45 0 0 135 0 135 45 0 45 0 0 -45 0 -45 45 0 45
0 0 45 0 45 -45 0 -45 0 0 45 0 45 45 0 45 0 0 45 0 45 -45 0 -45 0 0 -45 0
-45 -45 0 -45 0 0 -45 0 -45 -45 0 -45 0 0 -45 0 -45 -45 0 -45 0 0 -45 0 -45
45 0 45 0 0 -45 0 -45 -45 0 -45 0 0 -45 0 -45 -45 0 -45 0 0 45 0 45 -45 0
-45 0 0 -45 0 -45 45 0 45 0 0 -45 0 -45 -45 0 -45 0 0 -135 0 -135 -45 0 -45
0 0 90 0 90 -45 0 -45 0 0 45 0 45 -45 0 -45 0 0 90 0 90 -45 0 -45 0 0 45 0
45 -90 0 -90 0 0 -45 0 -45 -90 0 -90 0 0 -45 0 -45 -90 0 -90 0 0 -45 0 -45
45 0 45 0 0 -45 0 -45 -45 0 -45 0 0 -45 0 -45 135 0 135 0 0 -45 0 -45 -45 0
-45 0 0 -45 0 -45 -45 0 -45 0 0 45 0 45 -90 0 -90 0 0 -45 0 -45 90 0 90 0 0
-45 0 -45 -135 0 -135 0 0 -45 0 -45 135 0 135 0 0 -45 0 -45 -45 0 -45 0 0
-45 0 -45 45 0 45 0 0 -45 0 -45 -45 0 -45 0 0 -45 0 -45 45 0 45 0 0 45 0 45
45 0 45 0 0 45 0 45 45 0 45 0 0 45 0 45 90 0 90 0 0 45 0 45 45 0 45 0 0 90
0 90 45 0 45 0 0 -45 0 -45 45 0 45 0 0 -90 0 -90 45 0 45 0 0 -90 0 -90 -45
0 -45 0 0 -45 0 -45 45 0 45 0 0 -45 0 -45 135 0 135 0 0 -45 0 -45 -135 0
-135 0 0 -90 0 -90 45 0 45 0 0 45 0 45 45 0 45 0 0 -45 0 -45 45 0 45 0 0 90
0 90 45 0 45 0 0 -90 0 -90 90 0 90 0 0 -45 0 -45 45 0 45 0 0 45 0 45 -45 0
-45 0 0 135 0 135 45 0 45 0 0 -90 0 -90 45 0 45 0 0 90 0 90 -45 0 -45 0 0
45 0 45 90 0 90 0 0 -45 0 -45 45 0 45 0 0 45 0 45 -45 0 -45 0 0 90 0 90 45
0 45 0 0 -45 0 -45 90 0 90 0 0 -45 0 -45 45 0 45 0 0 -45 0 -45 -90 0 -90 0
0 -45 0 -45 -90 0 -90 0 0 -90 0 -90 -45 0 -45 0 0 -45 0 -45 45 0 45 0 0 -90
0 -90 -45 0 -45 0 0 -45 0 -45 135 0 135 0 0 -45 0 -45 45 0 45 0 0 -45 0 -45
45 0 45 0 0 -45 0 -45 -45 0 -45 0 0 -45 0 -45 45 0 45 0 0 45 0 45 45 0 45 0
0 45 0 45 -45 0 -45 0 0 45 0 45 45 0 45 0 0 90 0 90 -45 0 -45 0 0 45 0 45
90 0 90 0 0 -90 0 -90 90 0 90 0 0 -45 0 -45 45 0 45 0 0 135 0 135 -90 0 -90
0 0 135 0 135 45 0 45 0 0 -45 0 -45 135 0 135 0 0 135 0 135 -45 0 -45 0 0
-45 0 -45 -45 0 -45 0 0 180 0 180 -135 0 -135 0 0 45 0 45 45 0 45 0 0 45 0
45 -45 0 -45 0 0 -45 0 -45 -45 0 -45 0 0 45 0 45 -45 0 -45 0 0 90 0 90 45 0
45 0 0 -45 0 -45 45 0 45 0 0 45 0 45 -45 0 -45 0 0 45 0 45 45 0 45 0 0 45 0
45 45 0 45 0 0 -90 0 -90 45 0 45 0 0 -135 0 -135 45 0 45 0 0 45 0 45 45 0
45 0 0 -90 0 -90 45 0 45 0 0 -45 0 -45 -45 0 -45 0 0 -45 0 -45 90 0 90 0 0
45 0 45 90 0 90 0 0 -135 0 -135 45 0 45 0 0 -45 0 -45 -45 0 -45 0 0 -135 0
-135 -45 0 -45 0 0 -90 0 -90 45 0 45 0 0 -135 0 -135 -45 0 -45 0 0 -45 0
-45 45 0 45 0 0 -45 0 -45 -45 0 -45 0 0 -45 0 -45 90 0 90 0 0 45 0 45 45 0
45 0 0 180 0 180 -45 0 -45 0 0 45 0 45 45 0 45 0 0 45 0 45 -90 0 -90 0 0 45
0 45 90 0 90 0 0 45 0 45 90 0 90 0 0 -90 0 -90 45 0 45 0 0 45 0 45 45 0 45
0 0 -90 0 -90 45 0 45 0 0 -45 0 -45 45 0 45 0 0 90 0 90 45 0 45 0 0 45 0 45
-45 0 -45 0 0 90 0 90 -45 0 -45 0 0 135 0 135 45 0 45 0 0 45 0 45 45 0 45 0
0 45 0 45 45 0 45 0 0 45 0 45 -90 0 -90 0 0 45 0 45 -45 0 -45 0 0 -45 0 -45
-90 0 -90 0 0 90 0 90 -135 0 -135 0 0 90 0 90 -45 0 -45 0 0 45 0 45 90 0 90
0 0 -90 0 -90 90 0 90 0 0 45 0 45 45 0 45 0 0 -90 0 -90 90 0 90 0 0 45 0 45
-45 0 -45 0 0 45 0 45 45 0 45 0 0 90 0 90 45 0 45 0 0 45 0 45 -45 0 -45 0 0
-45 0 -45 -45 0 -45 0 0 90 0 90 45 0 45 0 0 45 0 45 -45 0 -45 0 0 -45 0 -45
-90 0 -90 0 0 45 0 45 45 0 45 0 0 45 0 45 45 0 45 0 0 45 0 45 45 0 45 0 0
-45 0 -45 45 0 45 0 0 45 0 45 -45 0 -45 0 0 135 0 135 -45 0 -45 0 0 -45 0
-45 -45 0 -45 0 0 45 0 45 -135 0 -135 0 0 -270 0 -270 90 0 90 0 0 -45 0 -45
45 0 45 0 0 -45 0 -45 45 0 45 0 0 -45 0 -45 -90 0 -90 0 0 45 0 45 -45 0 -45
0 0 45 0 45 -45 0 -45 0 0 -45 0 -45 -45 0 -45 0 0 90 0 90 -45 0 -45 0 0 90
0 90 -45 0 -45 0 0 -45 0 -45 -45 0 -45 0 0 45 0 45 -90 0 -90 0 0 45 0 45
-45 0 -45 0 0 45 0 45 45 0 45 0 0 45 0 45 45 0 45 0 0 -90 0 -90 90 0 90 0 0
45 0 45 -45 0 -45 0 0 90 0 90 45 0 45 0 0 45 0 45 90 0 90 0 0 45 0 45 45 0
45 0 0 45 0 45 -45 0 -45 0 0 -45 0 -45 -45 0 -45 0 0 45 0 45 -45 0 -45 0 0
45 0 45 -45 0 -45 0 0 -45 0 -45 -45 0 -45 0 0 -45 0 -45 -45 0 -45 0 0 -45 0
-45 -45 0 -45 0 0 -135 0 -135 -90 0 -90 0 0 -45 0 -45 -45 0 -45 0 0 90 0 90
-90 0 -90 0 0 -45 0 -45 -90 0 -90 0 0 45 0 45 -45 0 -45 0 0 45 0 45 270 0
270 0 0 -45 0 -45 45 0 45 0 0 90 0 90 -90 0 -90 0 0 90 0 90 45 0 45 0 0 -45
0 -45 45 0 45 0 0 45 0 45 -45 0 -45 0 0 90 0 90 -135 0 -135 0 0 45 0 45 45
0 45 0 0 45 0 45 -45 0 -45 0 0 -45z m-360 -270 l0 -45 45 0 45 0 0 -90 0 -90
-45 0 -45 0 0 90 0 90 -45 0 -45 0 0 45 0 45 45 0 45 0 0 -45z m450 -90 l0
-135 -135 0 -135 0 0 135 0 135 135 0 135 0 0 -135z m720 0 l0 -45 -45 0 -45
0 0 -90 0 -90 -45 0 -45 0 0 90 0 90 45 0 45 0 0 45 0 45 45 0 45 0 0 -45z
m-1080 -360 l0 -45 -45 0 -45 0 0 45 0 45 45 0 45 0 0 -45z m1530 -90 l0 -45
45 0 45 0 0 -45 0 -45 -45 0 -45 0 0 45 0 45 -45 0 -45 0 0 45 0 45 45 0 45 0
0 -45z m-1350 -90 l0 -45 90 0 90 0 0 45 0 45 45 0 45 0 0 -45 0 -45 45 0 45
0 0 -45 0 -45 45 0 45 0 0 45 0 45 90 0 90 0 0 -45 0 -45 45 0 45 0 0 -90 0
-90 45 0 45 0 0 -45 0 -45 45 0 45 0 0 45 0 45 45 0 45 0 0 -45 0 -45 -45 0
-45 0 0 -45 0 -45 -45 0 -45 0 0 -90 0 -90 90 0 90 0 0 -45 0 -45 45 0 45 0 0
-45 0 -45 90 0 90 0 0 -45 0 -45 45 0 45 0 0 -45 0 -45 45 0 45 0 0 -225 0
-225 -90 0 -90 0 0 45 0 45 -45 0 -45 0 0 -45 0 -45 -90 0 -90 0 0 45 0 45 45
0 45 0 0 45 0 45 45 0 45 0 0 45 0 45 -45 0 -45 0 0 45 0 45 -45 0 -45 0 0
180 0 180 -45 0 -45 0 0 -45 0 -45 -45 0 -45 0 0 90 0 90 -45 0 -45 0 0 -135
0 -135 -45 0 -45 0 0 90 0 90 -45 0 -45 0 0 45 0 45 -45 0 -45 0 0 90 0 90
-45 0 -45 0 0 90 0 90 -180 0 -180 0 0 -45 0 -45 45 0 45 0 0 -45 0 -45 -45 0
-45 0 0 -45 0 -45 -45 0 -45 0 0 -45 0 -45 -45 0 -45 0 0 45 0 45 -45 0 -45 0
0 45 0 45 -45 0 -45 0 0 45 0 45 45 0 45 0 0 -45 0 -45 45 0 45 0 0 45 0 45
45 0 45 0 0 45 0 45 45 0 45 0 0 90 0 90 -90 0 -90 0 0 90 0 90 90 0 90 0 0
-45z m-720 -90 l0 -45 -45 0 -45 0 0 -90 0 -90 -90 0 -90 0 0 45 0 45 45 0 45
0 0 45 0 45 45 0 45 0 0 45 0 45 45 0 45 0 0 -45z m-810 -90 l0 -45 90 0 90 0
0 -45 0 -45 45 0 45 0 0 -90 0 -90 -135 0 -135 0 0 45 0 45 90 0 90 0 0 45 0
45 -135 0 -135 0 0 -45 0 -45 -45 0 -45 0 0 45 0 45 -45 0 -45 0 0 45 0 45 90
0 90 0 0 45 0 45 45 0 45 0 0 -45z m1260 0 l0 -45 45 0 45 0 0 -45 0 -45 -45
0 -45 0 0 45 0 45 -45 0 -45 0 0 45 0 45 45 0 45 0 0 -45z m-180 -180 l0 -135
-45 0 -45 0 0 -45 0 -45 45 0 45 0 0 -90 0 -90 -45 0 -45 0 0 -45 0 -45 -45 0
-45 0 0 -45 0 -45 -45 0 -45 0 0 -45 0 -45 90 0 90 0 0 45 0 45 45 0 45 0 0
45 0 45 45 0 45 0 0 -45 0 -45 -45 0 -45 0 0 -45 0 -45 -45 0 -45 0 0 -45 0
-45 -45 0 -45 0 0 -45 0 -45 -45 0 -45 0 0 -45 0 -45 -45 0 -45 0 0 45 0 45
-45 0 -45 0 0 45 0 45 -90 0 -90 0 0 45 0 45 45 0 45 0 0 45 0 45 -45 0 -45 0
0 45 0 45 -45 0 -45 0 0 90 0 90 45 0 45 0 0 90 0 90 45 0 45 0 0 45 0 45 90
0 90 0 0 -45 0 -45 45 0 45 0 0 45 0 45 90 0 90 0 0 90 0 90 45 0 45 0 0 -135z
m-1170 -180 l0 -45 -45 0 -45 0 0 45 0 45 45 0 45 0 0 -45z m-90 -225 l0 -90
-45 0 -45 0 0 45 0 45 -45 0 -45 0 0 45 0 45 90 0 90 0 0 -90z m1710 -135 l0
-135 45 0 45 0 0 45 0 45 45 0 45 0 0 -45 0 -45 45 0 45 0 0 -45 0 -45 45 0
45 0 0 -45 0 -45 -45 0 -45 0 0 45 0 45 -45 0 -45 0 0 -45 0 -45 -45 0 -45 0
0 45 0 45 -45 0 -45 0 0 45 0 45 -45 0 -45 0 0 45 0 45 -90 0 -90 0 0 90 0 90
135 0 135 0 0 -135z m180 -540 l0 -135 -135 0 -135 0 0 135 0 135 135 0 135 0
0 -135z m-360 -45 l0 -90 -90 0 -90 0 0 45 0 45 45 0 45 0 0 45 0 45 45 0 45
0 0 -90z m90 -270 l0 -90 45 0 45 0 0 -45 0 -45 -45 0 -45 0 0 45 0 45 -45 0
-45 0 0 90 0 90 45 0 45 0 0 -90z m1080 -405 l0 -45 -45 0 -45 0 0 45 0 45 45
0 45 0 0 -45z"/>
<path d="M2610 4635 l0 -45 45 0 45 0 0 45 0 45 -45 0 -45 0 0 -45z"/>
<path d="M2790 4005 l0 -45 45 0 45 0 0 45 0 45 -45 0 -45 0 0 -45z"/>
<path d="M3060 3915 l0 -45 -45 0 -45 0 0 -45 0 -45 45 0 45 0 0 -45 0 -45 90
0 90 0 0 45 0 45 -90 0 -90 0 0 45 0 45 90 0 90 0 0 45 0 45 -90 0 -90 0 0
-45z"/>
<path d="M3150 3510 l0 -90 45 0 45 0 0 90 0 90 -45 0 -45 0 0 -90z"/>
<path d="M3690 3105 l0 -45 45 0 45 0 0 -45 0 -45 45 0 45 0 0 -45 0 -45 45 0
45 0 0 90 0 90 -45 0 -45 0 0 45 0 45 -90 0 -90 0 0 -45z"/>
<path d="M1620 3465 l0 -45 -45 0 -45 0 0 -90 0 -90 45 0 45 0 0 -45 0 -45 45
0 45 0 0 -45 0 -45 45 0 45 0 0 45 0 45 45 0 45 0 0 45 0 45 45 0 45 0 0 45 0
45 45 0 45 0 0 90 0 90 -90 0 -90 0 0 -45 0 -45 -90 0 -90 0 0 45 0 45 -45 0
-45 0 0 -45z m90 -90 l0 -45 -45 0 -45 0 0 45 0 45 45 0 45 0 0 -45z m180 -90
l0 -45 -45 0 -45 0 0 -45 0 -45 -45 0 -45 0 0 45 0 45 45 0 45 0 0 45 0 45 45
0 45 0 0 -45z"/>
<path d="M1800 2925 l0 -45 45 0 45 0 0 45 0 45 -45 0 -45 0 0 -45z"/>
<path d="M2610 2655 l0 -45 45 0 45 0 0 45 0 45 -45 0 -45 0 0 -45z"/>
<path d="M1620 4905 l0 -45 45 0 45 0 0 45 0 45 -45 0 -45 0 0 -45z"/>
<path d="M1530 4590 l0 -90 90 0 90 0 0 -45 0 -45 -45 0 -45 0 0 -45 0 -45 45
0 45 0 0 45 0 45 45 0 45 0 0 45 0 45 45 0 45 0 0 45 0 45 -45 0 -45 0 0 -45
0 -45 -45 0 -45 0 0 45 0 45 -45 0 -45 0 0 45 0 45 -45 0 -45 0 0 -90z"/>
<path d="M3870 4635 l0 -45 45 0 45 0 0 45 0 45 -45 0 -45 0 0 -45z"/>
<path d="M3600 4275 l0 -135 45 0 45 0 0 135 0 135 -45 0 -45 0 0 -135z"/>
<path d="M4320 3465 l0 -45 45 0 45 0 0 45 0 45 -45 0 -45 0 0 -45z"/>
<path d="M4320 3285 l0 -45 90 0 90 0 0 45 0 45 -90 0 -90 0 0 -45z"/>
<path d="M1170 3150 l0 -90 45 0 45 0 0 90 0 90 -45 0 -45 0 0 -90z"/>
<path d="M3330 2835 l0 -45 45 0 45 0 0 45 0 45 -45 0 -45 0 0 -45z"/>
<path d="M1260 2745 l0 -45 45 0 45 0 0 45 0 45 -45 0 -45 0 0 -45z"/>
<path d="M1350 2475 l0 -45 -90 0 -90 0 0 -45 0 -45 -45 0 -45 0 0 45 0 45
-45 0 -45 0 0 -45 0 -45 45 0 45 0 0 -45 0 -45 -45 0 -45 0 0 -45 0 -45 45 0
45 0 0 -45 0 -45 -45 0 -45 0 0 -45 0 -45 -45 0 -45 0 0 -45 0 -45 -90 0 -90
0 0 -45 0 -45 -45 0 -45 0 0 -45 0 -45 45 0 45 0 0 45 0 45 45 0 45 0 0 -45 0
-45 45 0 45 0 0 -45 0 -45 45 0 45 0 0 -45 0 -45 -45 0 -45 0 0 -45 0 -45 -45
0 -45 0 0 -45 0 -45 -45 0 -45 0 0 -45 0 -45 -45 0 -45 0 0 -45 0 -45 45 0 45
0 0 45 0 45 45 0 45 0 0 -45 0 -45 45 0 45 0 0 -45 0 -45 90 0 90 0 0 45 0 45
45 0 45 0 0 45 0 45 45 0 45 0 0 -180 0 -180 45 0 45 0 0 -45 0 -45 -45 0 -45
0 0 -45 0 -45 45 0 45 0 0 -45 0 -45 90 0 90 0 0 45 0 45 -90 0 -90 0 0 45 0
45 45 0 45 0 0 45 0 45 45 0 45 0 0 -45 0 -45 90 0 90 0 0 45 0 45 45 0 45 0
0 -90 0 -90 45 0 45 0 0 45 0 45 135 0 135 0 0 45 0 45 -90 0 -90 0 0 45 0 45
-90 0 -90 0 0 45 0 45 90 0 90 0 0 45 0 45 90 0 90 0 0 45 0 45 -45 0 -45 0 0
45 0 45 -45 0 -45 0 0 -90 0 -90 -180 0 -180 0 0 -45 0 -45 45 0 45 0 0 -45 0
-45 -45 0 -45 0 0 -45 0 -45 -45 0 -45 0 0 45 0 45 -45 0 -45 0 0 -45 0 -45
-45 0 -45 0 0 180 0 180 -45 0 -45 0 0 45 0 45 45 0 45 0 0 45 0 45 45 0 45 0
0 45 0 45 -45 0 -45 0 0 45 0 45 -90 0 -90 0 0 -90 0 -90 -45 0 -45 0 0 180 0
180 -45 0 -45 0 0 90 0 90 45 0 45 0 0 -45 0 -45 90 0 90 0 0 45 0 45 45 0 45
0 0 -45 0 -45 135 0 135 0 0 -45 0 -45 -45 0 -45 0 0 -45 0 -45 45 0 45 0 0
-90 0 -90 -45 0 -45 0 0 -45 0 -45 45 0 45 0 0 45 0 45 45 0 45 0 0 45 0 45
45 0 45 0 0 45 0 45 -90 0 -90 0 0 45 0 45 90 0 90 0 0 45 0 45 45 0 45 0 0
45 0 45 -45 0 -45 0 0 45 0 45 90 0 90 0 0 -90 0 -90 90 0 90 0 0 45 0 45 -45
0 -45 0 0 45 0 45 45 0 45 0 0 45 0 45 -45 0 -45 0 0 -45 0 -45 -45 0 -45 0 0
135 0 135 45 0 45 0 0 45 0 45 -90 0 -90 0 0 45 0 45 -45 0 -45 0 0 -45 0 -45
-45 0 -45 0 0 45 0 45 -45 0 -45 0 0 -90 0 -90 -90 0 -90 0 0 -45 0 -45 -90 0
-90 0 0 45 0 45 45 0 45 0 0 45 0 45 45 0 45 0 0 45 0 45 -45 0 -45 0 0 -45z
m540 -90 l0 -45 -45 0 -45 0 0 45 0 45 45 0 45 0 0 -45z m-720 -180 l0 -45
-45 0 -45 0 0 45 0 45 45 0 45 0 0 -45z m720 0 l0 -45 -45 0 -45 0 0 -45 0
-45 -90 0 -90 0 0 -45 0 -45 45 0 45 0 0 -45 0 -45 -45 0 -45 0 0 45 0 45
-135 0 -135 0 0 90 0 90 45 0 45 0 0 -45 0 -45 45 0 45 0 0 90 0 90 180 0 180
0 0 -45z m-720 -180 l0 -45 -45 0 -45 0 0 45 0 45 45 0 45 0 0 -45z m-180
-270 l0 -45 -45 0 -45 0 0 45 0 45 45 0 45 0 0 -45z m0 -360 l0 -45 90 0 90 0
0 -45 0 -45 -45 0 -45 0 0 -45 0 -45 -45 0 -45 0 0 90 0 90 -45 0 -45 0 0 45
0 45 45 0 45 0 0 -45z"/>
<path d="M2250 1935 l0 -45 45 0 45 0 0 45 0 45 -45 0 -45 0 0 -45z"/>
<path d="M3240 1755 l0 -135 45 0 45 0 0 -45 0 -45 45 0 45 0 0 -135 0 -135
-45 0 -45 0 0 -45 0 -45 45 0 45 0 0 45 0 45 45 0 45 0 0 90 0 90 45 0 45 0 0
45 0 45 45 0 45 0 0 45 0 45 -90 0 -90 0 0 -45 0 -45 -45 0 -45 0 0 45 0 45
-45 0 -45 0 0 135 0 135 -45 0 -45 0 0 -135z"/>
<path d="M4320 1845 l0 -45 45 0 45 0 0 45 0 45 -45 0 -45 0 0 -45z"/>
<path d="M1170 1755 l0 -45 90 0 90 0 0 45 0 45 -90 0 -90 0 0 -45z"/>
<path d="M4410 1665 l0 -45 45 0 45 0 0 45 0 45 -45 0 -45 0 0 -45z"/>
<path d="M3690 1395 l0 -45 45 0 45 0 0 45 0 45 -45 0 -45 0 0 -45z"/>
<path d="M2430 1215 l0 -45 45 0 45 0 0 45 0 45 -45 0 -45 0 0 -45z"/>
<path d="M4410 1215 l0 -45 -45 0 -45 0 0 -45 0 -45 45 0 45 0 0 45 0 45 45 0
45 0 0 45 0 45 -45 0 -45 0 0 -45z"/>
<path d="M1440 1125 l0 -45 45 0 45 0 0 45 0 45 -45 0 -45 0 0 -45z"/>
<path d="M2250 855 l0 -45 45 0 45 0 0 45 0 45 -45 0 -45 0 0 -45z"/>
<path d="M2970 495 l0 -45 45 0 45 0 0 -45 0 -45 90 0 90 0 0 45 0 45 -45 0
-45 0 0 45 0 45 -90 0 -90 0 0 -45z"/>
<path d="M630 2655 l0 -45 45 0 45 0 0 45 0 45 -45 0 -45 0 0 -45z"/>
<path d="M4590 2655 l0 -45 45 0 45 0 0 45 0 45 -45 0 -45 0 0 -45z"/>
<path d="M2610 675 l0 -45 45 0 45 0 0 45 0 45 -45 0 -45 0 0 -45z"/>
<path d="M4590 675 l0 -45 45 0 45 0 0 45 0 45 -45 0 -45 0 0 -45z"/>
<path d="M3060 5130 l0 -90 45 0 45 0 0 90 0 90 -45 0 -45 0 0 -90z"/>
<path d="M3870 5175 l0 -45 45 0 45 0 0 45 0 45 -45 0 -45 0 0 -45z"/>
<path d="M4590 4905 l0 -315 315 0 315 0 0 315 0 315 -315 0 -315 0 0 -315z
m540 0 l0 -225 -225 0 -225 0 0 225 0 225 225 0 225 0 0 -225z"/>
<path d="M4770 4905 l0 -135 135 0 135 0 0 135 0 135 -135 0 -135 0 0 -135z"/>
<path d="M5040 4455 l0 -45 -45 0 -45 0 0 -90 0 -90 45 0 45 0 0 45 0 45 45 0
45 0 0 90 0 90 -45 0 -45 0 0 -45z"/>
<path d="M90 4365 l0 -45 45 0 45 0 0 45 0 45 -45 0 -45 0 0 -45z"/>
<path d="M5040 1215 l0 -45 -45 0 -45 0 0 -45 0 -45 45 0 45 0 0 -45 0 -45 45
0 45 0 0 90 0 90 45 0 45 0 0 45 0 45 -90 0 -90 0 0 -45z"/>
<path d="M5130 855 l0 -45 45 0 45 0 0 45 0 45 -45 0 -45 0 0 -45z"/>
<path d="M90 405 l0 -315 315 0 315 0 0 315 0 315 -315 0 -315 0 0 -315z m540
0 l0 -225 -225 0 -225 0 0 225 0 225 225 0 225 0 0 -225z"/>
<path d="M270 405 l0 -135 135 0 135 0 0 135 0 135 -135 0 -135 0 0 -135z"/>
<path d="M4950 675 l0 -45 90 0 90 0 0 -45 0 -45 -45 0 -45 0 0 -90 0 -90 90
0 90 0 0 135 0 135 -45 0 -45 0 0 45 0 45 -90 0 -90 0 0 -45z"/>
<path d="M990 135 l0 -45 90 0 90 0 0 45 0 45 -90 0 -90 0 0 -45z"/>
<path d="M5130 135 l0 -45 45 0 45 0 0 45 0 45 -45 0 -45 0 0 -45z"/>
</g>
</svg>
