<?xml version="1.0" standalone="no"?>
<!DOCTYPE svg PUBLIC "-//W3C//DTD SVG 20010904//EN"
 "http://www.w3.org/TR/2001/REC-SVG-20010904/DTD/svg10.dtd">
<svg version="1.0" xmlns="http://www.w3.org/2000/svg"
 width="531.000000pt" height="531.000000pt" viewBox="0 0 531.000000 531.000000"
 preserveAspectRatio="xMidYMid meet">

<g transform="translate(0.000000,531.000000) scale(0.100000,-0.100000)"
fill="#000000" stroke="none">
<path d="M90 4905 l0 -315 315 0 315 0 0 315 0 315 -315 0 -315 0 0 -315z
m540 0 l0 -225 -225 0 -225 0 0 225 0 225 225 0 225 0 0 -225z"/>
<path d="M270 4905 l0 -135 135 0 135 0 0 135 0 135 -135 0 -135 0 0 -135z"/>
<path d="M1440 5175 l0 -45 -45 0 -45 0 0 -45 0 -45 -45 0 -45 0 0 -90 0 -90
-45 0 -45 0 0 45 0 45 -45 0 -45 0 0 -45 0 -45 -90 0 -90 0 0 90 0 90 -45 0
-45 0 0 -90 0 -90 45 0 45 0 0 -90 0 -90 -45 0 -45 0 0 -45 0 -45 45 0 45 0 0
45 0 45 45 0 45 0 0 -45 0 -45 45 0 45 0 0 -45 0 -45 45 0 45 0 0 45 0 45 45
0 45 0 0 -45 0 -45 45 0 45 0 0 45 0 45 45 0 45 0 0 -45 0 -45 45 0 45 0 0 45
0 45 45 0 45 0 0 -90 0 -90 45 0 45 0 0 -45 0 -45 45 0 45 0 0 -45 0 -45 -90
0 -90 0 0 45 0 45 -45 0 -45 0 0 -45 0 -45 45 0 45 0 0 -45 0 -45 90 0 90 0 0
45 0 45 45 0 45 0 0 45 0 45 -45 0 -45 0 0 45 0 45 -45 0 -45 0 0 90 0 90 45
0 45 0 0 -45 0 -45 45 0 45 0 0 45 0 45 45 0 45 0 0 -45 0 -45 90 0 90 0 0
-135 0 -135 -90 0 -90 0 0 -45 0 -45 45 0 45 0 0 -90 0 -90 -45 0 -45 0 0 45
0 45 -45 0 -45 0 0 -135 0 -135 -90 0 -90 0 0 -45 0 -45 -45 0 -45 0 0 45 0
45 -90 0 -90 0 0 135 0 135 45 0 45 0 0 -90 0 -90 90 0 90 0 0 45 0 45 45 0
45 0 0 45 0 45 -45 0 -45 0 0 -45 0 -45 -45 0 -45 0 0 45 0 45 -45 0 -45 0 0
45 0 45 -45 0 -45 0 0 90 0 90 -90 0 -90 0 0 45 0 45 -45 0 -45 0 0 -45 0 -45
45 0 45 0 0 -45 0 -45 -45 0 -45 0 0 -90 0 -90 -45 0 -45 0 0 135 0 135 -90 0
-90 0 0 -90 0 -90 -45 0 -45 0 0 180 0 180 -90 0 -90 0 0 -45 0 -45 -45 0 -45
0 0 45 0 45 -90 0 -90 0 0 -45 0 -45 -45 0 -45 0 0 -45 0 -45 -45 0 -45 0 0
45 0 45 -45 0 -45 0 0 -135 0 -135 45 0 45 0 0 -45 0 -45 -45 0 -45 0 0 -90 0
-90 45 0 45 0 0 45 0 45 90 0 90 0 0 45 0 45 45 0 45 0 0 -135 0 -135 -45 0
-45 0 0 -45 0 -45 -45 0 -45 0 0 45 0 45 -90 0 -90 0 0 -90 0 -90 45 0 45 0 0
-45 0 -45 -45 0 -45 0 0 -45 0 -45 45 0 45 0 0 45 0 45 45 0 45 0 0 -45 0 -45
45 0 45 0 0 -45 0 -45 45 0 45 0 0 -135 0 -135 -90 0 -90 0 0 45 0 45 45 0 45
0 0 45 0 45 -45 0 -45 0 0 -45 0 -45 -45 0 -45 0 0 -45 0 -45 -45 0 -45 0 0
-90 0 -90 90 0 90 0 0 -90 0 -90 45 0 45 0 0 -90 0 -90 45 0 45 0 0 -135 0
-135 -45 0 -45 0 0 90 0 90 -45 0 -45 0 0 90 0 90 -45 0 -45 0 0 90 0 90 -45
0 -45 0 0 -135 0 -135 45 0 45 0 0 -45 0 -45 45 0 45 0 0 -270 0 -270 45 0 45
0 0 135 0 135 45 0 45 0 0 45 0 45 45 0 45 0 0 -90 0 -90 -45 0 -45 0 0 -45 0
-45 45 0 45 0 0 -45 0 -45 -45 0 -45 0 0 -45 0 -45 45 0 45 0 0 45 0 45 90 0
90 0 0 -45 0 -45 -45 0 -45 0 0 -45 0 -45 45 0 45 0 0 -45 0 -45 -45 0 -45 0
0 -45 0 -45 -90 0 -90 0 0 -45 0 -45 45 0 45 0 0 -90 0 -90 -45 0 -45 0 0 45
0 45 -90 0 -90 0 0 45 0 45 45 0 45 0 0 90 0 90 90 0 90 0 0 45 0 45 -90 0
-90 0 0 45 0 45 -45 0 -45 0 0 -45 0 -45 -45 0 -45 0 0 135 0 135 -45 0 -45 0
0 -135 0 -135 45 0 45 0 0 -45 0 -45 -45 0 -45 0 0 -225 0 -225 90 0 90 0 0
45 0 45 45 0 45 0 0 -90 0 -90 -45 0 -45 0 0 -45 0 -45 -45 0 -45 0 0 45 0 45
-45 0 -45 0 0 -90 0 -90 225 0 225 0 0 45 0 45 90 0 90 0 0 45 0 45 -45 0 -45
0 0 45 0 45 45 0 45 0 0 45 0 45 45 0 45 0 0 45 0 45 45 0 45 0 0 -90 0 -90
45 0 45 0 0 -45 0 -45 45 0 45 0 0 -45 0 -45 -135 0 -135 0 0 -45 0 -45 -90 0
-90 0 0 -45 0 -45 90 0 90 0 0 -90 0 -90 45 0 45 0 0 45 0 45 45 0 45 0 0 45
0 45 -45 0 -45 0 0 45 0 45 135 0 135 0 0 -90 0 -90 -45 0 -45 0 0 -135 0
-135 90 0 90 0 0 -90 0 -90 -45 0 -45 0 0 45 0 45 -45 0 -45 0 0 -90 0 -90
-45 0 -45 0 0 45 0 45 -45 0 -45 0 0 -90 0 -90 90 0 90 0 0 45 0 45 45 0 45 0
0 -45 0 -45 45 0 45 0 0 90 0 90 45 0 45 0 0 -90 0 -90 90 0 90 0 0 45 0 45
45 0 45 0 0 -45 0 -45 45 0 45 0 0 45 0 45 90 0 90 0 0 -45 0 -45 90 0 90 0 0
90 0 90 45 0 45 0 0 -90 0 -90 45 0 45 0 0 45 0 45 45 0 45 0 0 -45 0 -45 135
0 135 0 0 45 0 45 45 0 45 0 0 45 0 45 -45 0 -45 0 0 45 0 45 45 0 45 0 0 45
0 45 180 0 180 0 0 -45 0 -45 -45 0 -45 0 0 -45 0 -45 -45 0 -45 0 0 -90 0
-90 180 0 180 0 0 90 0 90 90 0 90 0 0 90 0 90 45 0 45 0 0 -45 0 -45 90 0 90
0 0 -45 0 -45 45 0 45 0 0 -45 0 -45 45 0 45 0 0 45 0 45 -45 0 -45 0 0 45 0
45 -45 0 -45 0 0 45 0 45 -90 0 -90 0 0 135 0 135 -135 0 -135 0 0 -45 0 -45
-45 0 -45 0 0 -90 0 -90 -45 0 -45 0 0 45 0 45 -45 0 -45 0 0 45 0 45 45 0 45
0 0 45 0 45 45 0 45 0 0 45 0 45 45 0 45 0 0 45 0 45 -90 0 -90 0 0 90 0 90
45 0 45 0 0 -45 0 -45 90 0 90 0 0 90 0 90 45 0 45 0 0 -135 0 -135 -45 0 -45
0 0 -45 0 -45 90 0 90 0 0 45 0 45 45 0 45 0 0 45 0 45 45 0 45 0 0 90 0 90
45 0 45 0 0 -90 0 -90 45 0 45 0 0 -45 0 -45 90 0 90 0 0 -90 0 -90 -45 0 -45
0 0 45 0 45 -90 0 -90 0 0 45 0 45 -45 0 -45 0 0 -45 0 -45 -45 0 -45 0 0 -45
0 -45 180 0 180 0 0 -45 0 -45 -45 0 -45 0 0 -45 0 -45 45 0 45 0 0 -45 0 -45
-45 0 -45 0 0 -45 0 -45 45 0 45 0 0 45 0 45 90 0 90 0 0 45 0 45 45 0 45 0 0
225 0 225 90 0 90 0 0 90 0 90 -90 0 -90 0 0 45 0 45 90 0 90 0 0 45 0 45 45
0 45 0 0 45 0 45 -45 0 -45 0 0 135 0 135 45 0 45 0 0 45 0 45 -45 0 -45 0 0
45 0 45 90 0 90 0 0 -45 0 -45 90 0 90 0 0 -45 0 -45 -45 0 -45 0 0 -45 0 -45
-90 0 -90 0 0 -45 0 -45 90 0 90 0 0 -45 0 -45 -45 0 -45 0 0 -45 0 -45 45 0
45 0 0 -135 0 -135 -90 0 -90 0 0 -45 0 -45 45 0 45 0 0 -45 0 -45 -135 0
-135 0 0 -45 0 -45 45 0 45 0 0 -90 0 -90 -45 0 -45 0 0 -90 0 -90 -45 0 -45
0 0 -45 0 -45 -45 0 -45 0 0 -45 0 -45 45 0 45 0 0 45 0 45 45 0 45 0 0 -45 0
-45 45 0 45 0 0 -45 0 -45 -45 0 -45 0 0 -45 0 -45 45 0 45 0 0 45 0 45 45 0
45 0 0 -45 0 -45 135 0 135 0 0 45 0 45 -45 0 -45 0 0 45 0 45 -45 0 -45 0 0
-45 0 -45 -45 0 -45 0 0 90 0 90 135 0 135 0 0 -45 0 -45 45 0 45 0 0 -45 0
-45 180 0 180 0 0 90 0 90 -90 0 -90 0 0 45 0 45 90 0 90 0 0 45 0 45 -45 0
-45 0 0 45 0 45 -90 0 -90 0 0 45 0 45 45 0 45 0 0 45 0 45 -45 0 -45 0 0 45
0 45 45 0 45 0 0 45 0 45 45 0 45 0 0 -45 0 -45 45 0 45 0 0 90 0 90 -45 0
-45 0 0 45 0 45 45 0 45 0 0 45 0 45 -45 0 -45 0 0 -45 0 -45 -90 0 -90 0 0
45 0 45 45 0 45 0 0 45 0 45 -135 0 -135 0 0 45 0 45 180 0 180 0 0 -45 0 -45
45 0 45 0 0 90 0 90 -45 0 -45 0 0 45 0 45 45 0 45 0 0 45 0 45 -90 0 -90 0 0
45 0 45 45 0 45 0 0 45 0 45 45 0 45 0 0 45 0 45 -45 0 -45 0 0 45 0 45 45 0
45 0 0 45 0 45 -90 0 -90 0 0 45 0 45 -135 0 -135 0 0 45 0 45 -45 0 -45 0 0
-45 0 -45 -45 0 -45 0 0 90 0 90 135 0 135 0 0 -45 0 -45 180 0 180 0 0 225 0
225 -45 0 -45 0 0 -180 0 -180 -45 0 -45 0 0 90 0 90 -45 0 -45 0 0 45 0 45
45 0 45 0 0 45 0 45 -90 0 -90 0 0 45 0 45 -45 0 -45 0 0 45 0 45 45 0 45 0 0
45 0 45 -45 0 -45 0 0 -45 0 -45 -45 0 -45 0 0 90 0 90 90 0 90 0 0 45 0 45
-45 0 -45 0 0 45 0 45 90 0 90 0 0 -135 0 -135 45 0 45 0 0 -45 0 -45 -45 0
-45 0 0 -45 0 -45 90 0 90 0 0 45 0 45 45 0 45 0 0 45 0 45 -90 0 -90 0 0 45
0 45 90 0 90 0 0 45 0 45 -45 0 -45 0 0 135 0 135 45 0 45 0 0 180 0 180 -45
0 -45 0 0 -45 0 -45 -45 0 -45 0 0 90 0 90 45 0 45 0 0 45 0 45 45 0 45 0 0
45 0 45 -90 0 -90 0 0 45 0 45 90 0 90 0 0 45 0 45 -90 0 -90 0 0 90 0 90 -90
0 -90 0 0 -45 0 -45 -45 0 -45 0 0 -45 0 -45 45 0 45 0 0 45 0 45 45 0 45 0 0
-135 0 -135 45 0 45 0 0 -90 0 -90 -45 0 -45 0 0 45 0 45 -45 0 -45 0 0 45 0
45 -45 0 -45 0 0 45 0 45 -45 0 -45 0 0 -45 0 -45 -45 0 -45 0 0 45 0 45 -45
0 -45 0 0 -90 0 -90 -45 0 -45 0 0 45 0 45 -45 0 -45 0 0 45 0 45 45 0 45 0 0
45 0 45 135 0 135 0 0 45 0 45 -135 0 -135 0 0 -45 0 -45 -45 0 -45 0 0 90 0
90 -45 0 -45 0 0 -90 0 -90 -90 0 -90 0 0 45 0 45 -45 0 -45 0 0 45 0 45 45 0
45 0 0 45 0 45 45 0 45 0 0 45 0 45 45 0 45 0 0 -45 0 -45 45 0 45 0 0 90 0
90 45 0 45 0 0 225 0 225 -90 0 -90 0 0 -45 0 -45 -45 0 -45 0 0 -45 0 -45
-45 0 -45 0 0 -45 0 -45 -90 0 -90 0 0 45 0 45 -45 0 -45 0 0 45 0 45 -45 0
-45 0 0 45 0 45 -90 0 -90 0 0 -45 0 -45 90 0 90 0 0 -45 0 -45 -315 0 -315 0
0 90 0 90 -135 0 -135 0 0 -45 0 -45 -45 0 -45 0 0 45 0 45 -135 0 -135 0 0
-45 0 -45 -90 0 -90 0 0 45 0 45 -45 0 -45 0 0 -45 0 -45 -45 0 -45 0 0 45 0
45 -90 0 -90 0 0 -90 0 -90 -45 0 -45 0 0 90 0 90 -45 0 -45 0 0 -45 0 -45
-45 0 -45 0 0 -45 0 -45 -90 0 -90 0 0 45 0 45 45 0 45 0 0 45 0 45 -45 0 -45
0 0 -45z m630 -90 l0 -45 45 0 45 0 0 45 0 45 45 0 45 0 0 -45 0 -45 -45 0
-45 0 0 -45 0 -45 -45 0 -45 0 0 -90 0 -90 90 0 90 0 0 90 0 90 45 0 45 0 0
45 0 45 135 0 135 0 0 -45 0 -45 45 0 45 0 0 -45 0 -45 -135 0 -135 0 0 -45 0
-45 -45 0 -45 0 0 -45 0 -45 45 0 45 0 0 -45 0 -45 -45 0 -45 0 0 45 0 45 -45
0 -45 0 0 -45 0 -45 -45 0 -45 0 0 45 0 45 -45 0 -45 0 0 -45 0 -45 -45 0 -45
0 0 90 0 90 -45 0 -45 0 0 -90 0 -90 -45 0 -45 0 0 45 0 45 -45 0 -45 0 0 -45
0 -45 -45 0 -45 0 0 45 0 45 -45 0 -45 0 0 -45 0 -45 -45 0 -45 0 0 135 0 135
-45 0 -45 0 0 90 0 90 45 0 45 0 0 -90 0 -90 135 0 135 0 0 45 0 45 -45 0 -45
0 0 45 0 45 90 0 90 0 0 -135 0 -135 45 0 45 0 0 45 0 45 45 0 45 0 0 45 0 45
-45 0 -45 0 0 45 0 45 45 0 45 0 0 45 0 45 45 0 45 0 0 -45z m810 0 l0 -45 90
0 90 0 0 -45 0 -45 90 0 90 0 0 -45 0 -45 -45 0 -45 0 0 -135 0 -135 45 0 45
0 0 45 0 45 45 0 45 0 0 135 0 135 45 0 45 0 0 -90 0 -90 45 0 45 0 0 -90 0
-90 45 0 45 0 0 45 0 45 45 0 45 0 0 45 0 45 -45 0 -45 0 0 45 0 45 90 0 90 0
0 45 0 45 -45 0 -45 0 0 45 0 45 45 0 45 0 0 -45 0 -45 45 0 45 0 0 -90 0 -90
45 0 45 0 0 -45 0 -45 45 0 45 0 0 -45 0 -45 -45 0 -45 0 0 -45 0 -45 -90 0
-90 0 0 90 0 90 -45 0 -45 0 0 -45 0 -45 -45 0 -45 0 0 -45 0 -45 45 0 45 0 0
-90 0 -90 180 0 180 0 0 -180 0 -180 -45 0 -45 0 0 -45 0 -45 90 0 90 0 0 180
0 180 45 0 45 0 0 -45 0 -45 45 0 45 0 0 -45 0 -45 45 0 45 0 0 -45 0 -45 45
0 45 0 0 -45 0 -45 45 0 45 0 0 -90 0 -90 45 0 45 0 0 225 0 225 45 0 45 0 0
-45 0 -45 45 0 45 0 0 -45 0 -45 -45 0 -45 0 0 -45 0 -45 45 0 45 0 0 -45 0
-45 90 0 90 0 0 -90 0 -90 45 0 45 0 0 -45 0 -45 -180 0 -180 0 0 -90 0 -90
-225 0 -225 0 0 45 0 45 -45 0 -45 0 0 -45 0 -45 -45 0 -45 0 0 -90 0 -90 45
0 45 0 0 -90 0 -90 45 0 45 0 0 90 0 90 45 0 45 0 0 -45 0 -45 45 0 45 0 0 45
0 45 45 0 45 0 0 45 0 45 45 0 45 0 0 -45 0 -45 -45 0 -45 0 0 -135 0 -135
-45 0 -45 0 0 45 0 45 -90 0 -90 0 0 -135 0 -135 45 0 45 0 0 -135 0 -135 45
0 45 0 0 -45 0 -45 -45 0 -45 0 0 -90 0 -90 -45 0 -45 0 0 45 0 45 -90 0 -90
0 0 -45 0 -45 45 0 45 0 0 -45 0 -45 -45 0 -45 0 0 45 0 45 -45 0 -45 0 0 -90
0 -90 -45 0 -45 0 0 -45 0 -45 90 0 90 0 0 45 0 45 45 0 45 0 0 -45 0 -45 45
0 45 0 0 -135 0 -135 -45 0 -45 0 0 135 0 135 -45 0 -45 0 0 -45 0 -45 -45 0
-45 0 0 -45 0 -45 45 0 45 0 0 -45 0 -45 -90 0 -90 0 0 -45 0 -45 45 0 45 0 0
-90 0 -90 45 0 45 0 0 45 0 45 135 0 135 0 0 -45 0 -45 -90 0 -90 0 0 -45 0
-45 -45 0 -45 0 0 -45 0 -45 45 0 45 0 0 -45 0 -45 -90 0 -90 0 0 -45 0 -45
-90 0 -90 0 0 45 0 45 45 0 45 0 0 90 0 90 45 0 45 0 0 45 0 45 -90 0 -90 0 0
-45 0 -45 -45 0 -45 0 0 45 0 45 -45 0 -45 0 0 -90 0 -90 -135 0 -135 0 0 180
0 180 -45 0 -45 0 0 -45 0 -45 -90 0 -90 0 0 45 0 45 90 0 90 0 0 45 0 45 45
0 45 0 0 45 0 45 -45 0 -45 0 0 45 0 45 -45 0 -45 0 0 -45 0 -45 -45 0 -45 0
0 90 0 90 -45 0 -45 0 0 -135 0 -135 -180 0 -180 0 0 90 0 90 135 0 135 0 0
45 0 45 -45 0 -45 0 0 45 0 45 45 0 45 0 0 90 0 90 -45 0 -45 0 0 -45 0 -45
-45 0 -45 0 0 -45 0 -45 -45 0 -45 0 0 -45 0 -45 -45 0 -45 0 0 -45 0 -45 -45
0 -45 0 0 -45 0 -45 45 0 45 0 0 -90 0 -90 90 0 90 0 0 -180 0 -180 45 0 45 0
0 -45 0 -45 -45 0 -45 0 0 -45 0 -45 -45 0 -45 0 0 -45 0 -45 -45 0 -45 0 0
45 0 45 -45 0 -45 0 0 45 0 45 45 0 45 0 0 -45 0 -45 45 0 45 0 0 90 0 90 -45
0 -45 0 0 45 0 45 45 0 45 0 0 90 0 90 -45 0 -45 0 0 -45 0 -45 -45 0 -45 0 0
-45 0 -45 -45 0 -45 0 0 -270 0 -270 -90 0 -90 0 0 -45 0 -45 -45 0 -45 0 0
45 0 45 45 0 45 0 0 45 0 45 45 0 45 0 0 45 0 45 -135 0 -135 0 0 -135 0 -135
-45 0 -45 0 0 -45 0 -45 -90 0 -90 0 0 -135 0 -135 -45 0 -45 0 0 -45 0 -45
-45 0 -45 0 0 90 0 90 45 0 45 0 0 45 0 45 -90 0 -90 0 0 -135 0 -135 -45 0
-45 0 0 45 0 45 -45 0 -45 0 0 90 0 90 -45 0 -45 0 0 45 0 45 -45 0 -45 0 0
45 0 45 90 0 90 0 0 45 0 45 -45 0 -45 0 0 135 0 135 -45 0 -45 0 0 45 0 45
-45 0 -45 0 0 45 0 45 45 0 45 0 0 -45 0 -45 45 0 45 0 0 90 0 90 90 0 90 0 0
-90 0 -90 90 0 90 0 0 -45 0 -45 45 0 45 0 0 90 0 90 -45 0 -45 0 0 45 0 45
-45 0 -45 0 0 45 0 45 -45 0 -45 0 0 45 0 45 45 0 45 0 0 -45 0 -45 45 0 45 0
0 45 0 45 45 0 45 0 0 45 0 45 -45 0 -45 0 0 45 0 45 -45 0 -45 0 0 -45 0 -45
-90 0 -90 0 0 -45 0 -45 -45 0 -45 0 0 -45 0 -45 -90 0 -90 0 0 -45 0 -45 -45
0 -45 0 0 45 0 45 -45 0 -45 0 0 45 0 45 -45 0 -45 0 0 90 0 90 45 0 45 0 0
-45 0 -45 45 0 45 0 0 -90 0 -90 45 0 45 0 0 90 0 90 45 0 45 0 0 90 0 90 45
0 45 0 0 -90 0 -90 45 0 45 0 0 45 0 45 90 0 90 0 0 45 0 45 -45 0 -45 0 0 45
0 45 -90 0 -90 0 0 45 0 45 -45 0 -45 0 0 -45 0 -45 -45 0 -45 0 0 90 0 90
135 0 135 0 0 90 0 90 -45 0 -45 0 0 -45 0 -45 -45 0 -45 0 0 45 0 45 45 0 45
0 0 45 0 45 -90 0 -90 0 0 -90 0 -90 -45 0 -45 0 0 -45 0 -45 -90 0 -90 0 0
45 0 45 90 0 90 0 0 45 0 45 -90 0 -90 0 0 45 0 45 -45 0 -45 0 0 -45 0 -45
-45 0 -45 0 0 45 0 45 -45 0 -45 0 0 45 0 45 45 0 45 0 0 45 0 45 90 0 90 0 0
-90 0 -90 45 0 45 0 0 90 0 90 45 0 45 0 0 -90 0 -90 45 0 45 0 0 135 0 135
45 0 45 0 0 90 0 90 -45 0 -45 0 0 45 0 45 -45 0 -45 0 0 -90 0 -90 -45 0 -45
0 0 90 0 90 45 0 45 0 0 45 0 45 -45 0 -45 0 0 45 0 45 90 0 90 0 0 45 0 45
-135 0 -135 0 0 45 0 45 90 0 90 0 0 45 0 45 -45 0 -45 0 0 45 0 45 45 0 45 0
0 -45 0 -45 90 0 90 0 0 45 0 45 -45 0 -45 0 0 90 0 90 -45 0 -45 0 0 45 0 45
-45 0 -45 0 0 90 0 90 -45 0 -45 0 0 45 0 45 -45 0 -45 0 0 -45 0 -45 -45 0
-45 0 0 45 0 45 45 0 45 0 0 45 0 45 -45 0 -45 0 0 45 0 45 45 0 45 0 0 45 0
45 -45 0 -45 0 0 45 0 45 45 0 45 0 0 -45 0 -45 45 0 45 0 0 -45 0 -45 45 0
45 0 0 45 0 45 45 0 45 0 0 -45 0 -45 -45 0 -45 0 0 -45 0 -45 45 0 45 0 0
-180 0 -180 90 0 90 0 0 -90 0 -90 45 0 45 0 0 45 0 45 90 0 90 0 0 -90 0 -90
45 0 45 0 0 45 0 45 45 0 45 0 0 45 0 45 -45 0 -45 0 0 45 0 45 180 0 180 0 0
-45 0 -45 -45 0 -45 0 0 -90 0 -90 45 0 45 0 0 45 0 45 90 0 90 0 0 -45 0 -45
180 0 180 0 0 90 0 90 -45 0 -45 0 0 -45 0 -45 -45 0 -45 0 0 90 0 90 -45 0
-45 0 0 -45 0 -45 -45 0 -45 0 0 45 0 45 45 0 45 0 0 45 0 45 -45 0 -45 0 0
45 0 45 -45 0 -45 0 0 -45 0 -45 -45 0 -45 0 0 45 0 45 45 0 45 0 0 45 0 45
45 0 45 0 0 45 0 45 45 0 45 0 0 -45 0 -45 45 0 45 0 0 -45 0 -45 -45 0 -45 0
0 -45 0 -45 45 0 45 0 0 -45 0 -45 45 0 45 0 0 90 0 90 45 0 45 0 0 45 0 45
-45 0 -45 0 0 45 0 45 45 0 45 0 0 -45 0 -45 45 0 45 0 0 -45 0 -45 90 0 90 0
0 -45 0 -45 90 0 90 0 0 90 0 90 -45 0 -45 0 0 90 0 90 -45 0 -45 0 0 45 0 45
-45 0 -45 0 0 -90 0 -90 45 0 45 0 0 -45 0 -45 -45 0 -45 0 0 45 0 45 -45 0
-45 0 0 45 0 45 -45 0 -45 0 0 45 0 45 -90 0 -90 0 0 90 0 90 45 0 45 0 0 90
0 90 45 0 45 0 0 -45 0 -45 135 0 135 0 0 -45 0 -45 45 0 45 0 0 45 0 45 45 0
45 0 0 45 0 45 45 0 45 0 0 45 0 45 -45 0 -45 0 0 45 0 45 45 0 45 0 0 45 0
45 45 0 45 0 0 90 0 90 -90 0 -90 0 0 -45 0 -45 -45 0 -45 0 0 45 0 45 45 0
45 0 0 45 0 45 -45 0 -45 0 0 45 0 45 45 0 45 0 0 -45z m1440 0 l0 -45 -45 0
-45 0 0 45 0 45 45 0 45 0 0 -45z m0 -225 l0 -90 -135 0 -135 0 0 45 0 45 90
0 90 0 0 45 0 45 45 0 45 0 0 -90z m-1530 -225 l0 -135 -135 0 -135 0 0 135 0
135 135 0 135 0 0 -135z m-1620 0 l0 -45 -45 0 -45 0 0 45 0 45 45 0 45 0 0
-45z m180 0 l0 -45 -45 0 -45 0 0 45 0 45 45 0 45 0 0 -45z m-900 -270 l0 -45
45 0 45 0 0 -45 0 -45 -45 0 -45 0 0 45 0 45 -45 0 -45 0 0 -90 0 -90 -45 0
-45 0 0 90 0 90 45 0 45 0 0 45 0 45 45 0 45 0 0 -45z m270 0 l0 -45 -45 0
-45 0 0 45 0 45 45 0 45 0 0 -45z m-180 -270 l0 -45 -45 0 -45 0 0 45 0 45 45
0 45 0 0 -45z m810 -45 l0 -90 -90 0 -90 0 0 -90 0 -90 -45 0 -45 0 0 90 0 90
45 0 45 0 0 45 0 45 45 0 45 0 0 45 0 45 45 0 45 0 0 -90z m0 -225 l0 -45 -45
0 -45 0 0 45 0 45 45 0 45 0 0 -45z m-810 -90 l0 -45 135 0 135 0 0 -90 0 -90
-45 0 -45 0 0 -45 0 -45 45 0 45 0 0 -90 0 -90 -90 0 -90 0 0 45 0 45 45 0 45
0 0 45 0 45 -135 0 -135 0 0 45 0 45 -90 0 -90 0 0 45 0 45 -45 0 -45 0 0 45
0 45 45 0 45 0 0 -45 0 -45 90 0 90 0 0 90 0 90 45 0 45 0 0 -45z m4500 -360
l0 -45 -45 0 -45 0 0 45 0 45 45 0 45 0 0 -45z m-4320 -270 l0 -45 -45 0 -45
0 0 45 0 45 45 0 45 0 0 -45z m-450 -90 l0 -45 45 0 45 0 0 -45 0 -45 45 0 45
0 0 45 0 45 45 0 45 0 0 -45 0 -45 -45 0 -45 0 0 -90 0 -90 -45 0 -45 0 0 90
0 90 -45 0 -45 0 0 45 0 45 -45 0 -45 0 0 45 0 45 45 0 45 0 0 -45z m450 -90
l0 -45 -45 0 -45 0 0 45 0 45 45 0 45 0 0 -45z m90 -270 l0 -135 -135 0 -135
0 0 135 0 135 135 0 135 0 0 -135z m3960 0 l0 -135 -135 0 -135 0 0 135 0 135
135 0 135 0 0 -135z m180 -135 l0 -90 -45 0 -45 0 0 90 0 90 45 0 45 0 0 -90z
m-360 -450 l0 -90 45 0 45 0 0 90 0 90 45 0 45 0 0 -90 0 -90 45 0 45 0 0 90
0 90 45 0 45 0 0 -90 0 -90 45 0 45 0 0 -90 0 -90 -45 0 -45 0 0 -90 0 -90 45
0 45 0 0 -45 0 -45 -45 0 -45 0 0 45 0 45 -90 0 -90 0 0 -45 0 -45 -45 0 -45
0 0 45 0 45 45 0 45 0 0 45 0 45 45 0 45 0 0 45 0 45 -45 0 -45 0 0 45 0 45
-90 0 -90 0 0 45 0 45 -135 0 -135 0 0 45 0 45 90 0 90 0 0 45 0 45 45 0 45 0
0 -90z m-3870 -45 l0 -45 -45 0 -45 0 0 45 0 45 45 0 45 0 0 -45z m270 -225
l0 -90 45 0 45 0 0 -45 0 -45 -45 0 -45 0 0 45 0 45 -45 0 -45 0 0 90 0 90 45
0 45 0 0 -90z m-720 -225 l0 -45 -45 0 -45 0 0 45 0 45 45 0 45 0 0 -45z m450
-90 l0 -45 -45 0 -45 0 0 45 0 45 45 0 45 0 0 -45z m2340 0 l0 -45 -45 0 -45
0 0 -90 0 -90 45 0 45 0 0 45 0 45 90 0 90 0 0 -45 0 -45 45 0 45 0 0 -45 0
-45 -90 0 -90 0 0 45 0 45 -45 0 -45 0 0 -90 0 -90 -45 0 -45 0 0 90 0 90 -45
0 -45 0 0 135 0 135 90 0 90 0 0 -45z m-2340 -180 l0 -45 -45 0 -45 0 0 45 0
45 45 0 45 0 0 -45z m4140 -90 l0 -45 45 0 45 0 0 -45 0 -45 -45 0 -45 0 0 45
0 45 -45 0 -45 0 0 45 0 45 45 0 45 0 0 -45z m-4320 -135 l0 -90 -90 0 -90 0
0 45 0 45 45 0 45 0 0 45 0 45 45 0 45 0 0 -90z m3060 -45 l0 -45 -45 0 -45 0
0 45 0 45 45 0 45 0 0 -45z m-630 -90 l0 -45 45 0 45 0 0 -90 0 -90 -45 0 -45
0 0 -45 0 -45 -45 0 -45 0 0 45 0 45 45 0 45 0 0 90 0 90 -45 0 -45 0 0 45 0
45 45 0 45 0 0 -45z m1980 0 l0 -45 -90 0 -90 0 0 45 0 45 90 0 90 0 0 -45z
m-2160 -270 l0 -135 -135 0 -135 0 0 135 0 135 135 0 135 0 0 -135z m1980 0
l0 -135 -135 0 -135 0 0 135 0 135 135 0 135 0 0 -135z m-630 -45 l0 -90 -90
0 -90 0 0 45 0 45 45 0 45 0 0 45 0 45 45 0 45 0 0 -90z m-1710 -45 l0 -45
-45 0 -45 0 0 45 0 45 45 0 45 0 0 -45z m-270 -90 l0 -45 90 0 90 0 0 -90 0
-90 -45 0 -45 0 0 45 0 45 -90 0 -90 0 0 90 0 90 45 0 45 0 0 -45z m2880 0 l0
-45 -45 0 -45 0 0 -90 0 -90 -45 0 -45 0 0 45 0 45 -45 0 -45 0 0 45 0 45 90
0 90 0 0 45 0 45 45 0 45 0 0 -45z m-3060 -90 l0 -45 -45 0 -45 0 0 45 0 45
45 0 45 0 0 -45z m540 0 l0 -45 -45 0 -45 0 0 45 0 45 45 0 45 0 0 -45z m810
0 l0 -45 -45 0 -45 0 0 45 0 45 45 0 45 0 0 -45z m1170 0 l0 -45 -45 0 -45 0
0 45 0 45 45 0 45 0 0 -45z m-2520 -180 l0 -45 -45 0 -45 0 0 45 0 45 45 0 45
0 0 -45z m630 0 l0 -45 -45 0 -45 0 0 45 0 45 45 0 45 0 0 -45z m450 0 l0 -45
-45 0 -45 0 0 45 0 45 45 0 45 0 0 -45z"/>
<path d="M2340 4905 l0 -45 45 0 45 0 0 45 0 45 -45 0 -45 0 0 -45z"/>
<path d="M1620 4725 l0 -45 45 0 45 0 0 45 0 45 -45 0 -45 0 0 -45z"/>
<path d="M3780 4725 l0 -45 45 0 45 0 0 -45 0 -45 45 0 45 0 0 45 0 45 -45 0
-45 0 0 45 0 45 -45 0 -45 0 0 -45z"/>
<path d="M2970 4635 l0 -45 45 0 45 0 0 45 0 45 -45 0 -45 0 0 -45z"/>
<path d="M3330 4635 l0 -45 -45 0 -45 0 0 -45 0 -45 -45 0 -45 0 0 -45 0 -45
-45 0 -45 0 0 -45 0 -45 45 0 45 0 0 -135 0 -135 45 0 45 0 0 -45 0 -45 45 0
45 0 0 -45 0 -45 -90 0 -90 0 0 45 0 45 -45 0 -45 0 0 45 0 45 -45 0 -45 0 0
180 0 180 -45 0 -45 0 0 -45 0 -45 -45 0 -45 0 0 -90 0 -90 45 0 45 0 0 -45 0
-45 45 0 45 0 0 -45 0 -45 45 0 45 0 0 -45 0 -45 -45 0 -45 0 0 -45 0 -45 45
0 45 0 0 -45 0 -45 -45 0 -45 0 0 -90 0 -90 -45 0 -45 0 0 45 0 45 -90 0 -90
0 0 45 0 45 -45 0 -45 0 0 -45 0 -45 45 0 45 0 0 -45 0 -45 -90 0 -90 0 0 -90
0 -90 45 0 45 0 0 -45 0 -45 -180 0 -180 0 0 -45 0 -45 135 0 135 0 0 -45 0
-45 90 0 90 0 0 -45 0 -45 -90 0 -90 0 0 -45 0 -45 -45 0 -45 0 0 90 0 90 -45
0 -45 0 0 -135 0 -135 45 0 45 0 0 -90 0 -90 -90 0 -90 0 0 45 0 45 -45 0 -45
0 0 45 0 45 45 0 45 0 0 90 0 90 -45 0 -45 0 0 45 0 45 -45 0 -45 0 0 135 0
135 -90 0 -90 0 0 -45 0 -45 45 0 45 0 0 -45 0 -45 -90 0 -90 0 0 -135 0 -135
-90 0 -90 0 0 90 0 90 45 0 45 0 0 90 0 90 -45 0 -45 0 0 -45 0 -45 -45 0 -45
0 0 -45 0 -45 -45 0 -45 0 0 -45 0 -45 -45 0 -45 0 0 -45 0 -45 -45 0 -45 0 0
135 0 135 -90 0 -90 0 0 -45 0 -45 45 0 45 0 0 -45 0 -45 -45 0 -45 0 0 -45 0
-45 90 0 90 0 0 -45 0 -45 -45 0 -45 0 0 -45 0 -45 45 0 45 0 0 -45 0 -45 45
0 45 0 0 -45 0 -45 -45 0 -45 0 0 -45 0 -45 -45 0 -45 0 0 -45 0 -45 45 0 45
0 0 45 0 45 45 0 45 0 0 -90 0 -90 45 0 45 0 0 -135 0 -135 -45 0 -45 0 0 -45
0 -45 45 0 45 0 0 -45 0 -45 45 0 45 0 0 -45 0 -45 135 0 135 0 0 -45 0 -45
45 0 45 0 0 -45 0 -45 -45 0 -45 0 0 -45 0 -45 -45 0 -45 0 0 -45 0 -45 45 0
45 0 0 45 0 45 90 0 90 0 0 90 0 90 45 0 45 0 0 -45 0 -45 45 0 45 0 0 45 0
45 45 0 45 0 0 45 0 45 90 0 90 0 0 45 0 45 -90 0 -90 0 0 45 0 45 -90 0 -90
0 0 45 0 45 45 0 45 0 0 45 0 45 90 0 90 0 0 45 0 45 90 0 90 0 0 45 0 45 45
0 45 0 0 -45 0 -45 45 0 45 0 0 -45 0 -45 -135 0 -135 0 0 -90 0 -90 45 0 45
0 0 45 0 45 90 0 90 0 0 45 0 45 45 0 45 0 0 135 0 135 -45 0 -45 0 0 45 0 45
90 0 90 0 0 -45 0 -45 45 0 45 0 0 -90 0 -90 135 0 135 0 0 -45 0 -45 -90 0
-90 0 0 -45 0 -45 -45 0 -45 0 0 -45 0 -45 45 0 45 0 0 45 0 45 90 0 90 0 0
-45 0 -45 45 0 45 0 0 45 0 45 -45 0 -45 0 0 45 0 45 135 0 135 0 0 -45 0 -45
45 0 45 0 0 -45 0 -45 -90 0 -90 0 0 -90 0 -90 45 0 45 0 0 -45 0 -45 -45 0
-45 0 0 -45 0 -45 90 0 90 0 0 -45 0 -45 -45 0 -45 0 0 -45 0 -45 90 0 90 0 0
45 0 45 45 0 45 0 0 -45 0 -45 45 0 45 0 0 45 0 45 45 0 45 0 0 45 0 45 -45 0
-45 0 0 45 0 45 45 0 45 0 0 45 0 45 -90 0 -90 0 0 -90 0 -90 -90 0 -90 0 0
45 0 45 45 0 45 0 0 45 0 45 -45 0 -45 0 0 90 0 90 90 0 90 0 0 -45 0 -45 90
0 90 0 0 45 0 45 -90 0 -90 0 0 45 0 45 -90 0 -90 0 0 45 0 45 135 0 135 0 0
45 0 45 90 0 90 0 0 45 0 45 -45 0 -45 0 0 45 0 45 45 0 45 0 0 45 0 45 -45 0
-45 0 0 -45 0 -45 -45 0 -45 0 0 45 0 45 -90 0 -90 0 0 45 0 45 -45 0 -45 0 0
-90 0 -90 45 0 45 0 0 -45 0 -45 -135 0 -135 0 0 45 0 45 45 0 45 0 0 180 0
180 90 0 90 0 0 45 0 45 45 0 45 0 0 -45 0 -45 90 0 90 0 0 -45 0 -45 -45 0
-45 0 0 -45 0 -45 135 0 135 0 0 -90 0 -90 135 0 135 0 0 45 0 45 -90 0 -90 0
0 45 0 45 45 0 45 0 0 90 0 90 -45 0 -45 0 0 135 0 135 -45 0 -45 0 0 90 0 90
-45 0 -45 0 0 90 0 90 -45 0 -45 0 0 45 0 45 45 0 45 0 0 45 0 45 90 0 90 0 0
45 0 45 45 0 45 0 0 45 0 45 45 0 45 0 0 -45 0 -45 45 0 45 0 0 -45 0 -45 45
0 45 0 0 -45 0 -45 45 0 45 0 0 45 0 45 -45 0 -45 0 0 90 0 90 -90 0 -90 0 0
45 0 45 45 0 45 0 0 45 0 45 -45 0 -45 0 0 45 0 45 -45 0 -45 0 0 -45 0 -45
-45 0 -45 0 0 -135 0 -135 -45 0 -45 0 0 90 0 90 -45 0 -45 0 0 -90 0 -90 -45
0 -45 0 0 45 0 45 -45 0 -45 0 0 -45 0 -45 45 0 45 0 0 -45 0 -45 -45 0 -45 0
0 -45 0 -45 -45 0 -45 0 0 90 0 90 -45 0 -45 0 0 45 0 45 -45 0 -45 0 0 -90 0
-90 45 0 45 0 0 -45 0 -45 -45 0 -45 0 0 -45 0 -45 -45 0 -45 0 0 45 0 45
-135 0 -135 0 0 -45 0 -45 -45 0 -45 0 0 45 0 45 -45 0 -45 0 0 90 0 90 135 0
135 0 0 -45 0 -45 90 0 90 0 0 180 0 180 135 0 135 0 0 -45 0 -45 45 0 45 0 0
45 0 45 -45 0 -45 0 0 45 0 45 90 0 90 0 0 45 0 45 -90 0 -90 0 0 45 0 45 90
0 90 0 0 45 0 45 -90 0 -90 0 0 -45 0 -45 -45 0 -45 0 0 -45 0 -45 -90 0 -90
0 0 45 0 45 45 0 45 0 0 90 0 90 -45 0 -45 0 0 45 0 45 45 0 45 0 0 45 0 45
-90 0 -90 0 0 -90 0 -90 -45 0 -45 0 0 45 0 45 -45 0 -45 0 0 45 0 45 45 0 45
0 0 45 0 45 45 0 45 0 0 45 0 45 -45 0 -45 0 0 -45z m0 -360 l0 -45 45 0 45 0
0 45 0 45 45 0 45 0 0 -45 0 -45 -45 0 -45 0 0 -45 0 -45 -45 0 -45 0 0 -45 0
-45 -45 0 -45 0 0 45 0 45 45 0 45 0 0 45 0 45 -45 0 -45 0 0 45 0 45 45 0 45
0 0 -45z m180 -270 l0 -45 -45 0 -45 0 0 45 0 45 45 0 45 0 0 -45z m270 0 l0
-45 -45 0 -45 0 0 45 0 45 45 0 45 0 0 -45z m-360 -180 l0 -45 -45 0 -45 0 0
-45 0 -45 -90 0 -90 0 0 45 0 45 90 0 90 0 0 45 0 45 45 0 45 0 0 -45z m990 0
l0 -45 -45 0 -45 0 0 45 0 45 45 0 45 0 0 -45z m-1530 -360 l0 -45 90 0 90 0
0 -45 0 -45 -90 0 -90 0 0 -45 0 -45 90 0 90 0 0 -45 0 -45 45 0 45 0 0 45 0
45 135 0 135 0 0 45 0 45 45 0 45 0 0 -45 0 -45 90 0 90 0 0 45 0 45 45 0 45
0 0 -90 0 -90 45 0 45 0 0 45 0 45 45 0 45 0 0 -45 0 -45 45 0 45 0 0 -90 0
-90 -90 0 -90 0 0 -90 0 -90 -45 0 -45 0 0 45 0 45 -45 0 -45 0 0 45 0 45 90
0 90 0 0 45 0 45 -45 0 -45 0 0 45 0 45 -135 0 -135 0 0 -90 0 -90 -90 0 -90
0 0 -45 0 -45 45 0 45 0 0 -45 0 -45 45 0 45 0 0 -45 0 -45 -45 0 -45 0 0 -90
0 -90 -90 0 -90 0 0 -45 0 -45 45 0 45 0 0 -45 0 -45 -45 0 -45 0 0 -45 0 -45
90 0 90 0 0 -45 0 -45 -90 0 -90 0 0 45 0 45 -45 0 -45 0 0 45 0 45 45 0 45 0
0 45 0 45 -90 0 -90 0 0 90 0 90 45 0 45 0 0 90 0 90 -45 0 -45 0 0 45 0 45
-45 0 -45 0 0 -45 0 -45 -45 0 -45 0 0 45 0 45 -90 0 -90 0 0 45 0 45 90 0 90
0 0 45 0 45 90 0 90 0 0 45 0 45 -135 0 -135 0 0 -45 0 -45 -45 0 -45 0 0 45
0 45 -45 0 -45 0 0 45 0 45 45 0 45 0 0 -45 0 -45 45 0 45 0 0 90 0 90 -90 0
-90 0 0 45 0 45 90 0 90 0 0 45 0 45 45 0 45 0 0 -45z m-810 -540 l0 -135 -45
0 -45 0 0 45 0 45 -45 0 -45 0 0 45 0 45 45 0 45 0 0 45 0 45 45 0 45 0 0
-135z m-450 -90 l0 -45 90 0 90 0 0 -45 0 -45 90 0 90 0 0 -45 0 -45 45 0 45
0 0 45 0 45 45 0 45 0 0 -45 0 -45 45 0 45 0 0 -135 0 -135 90 0 90 0 0 45 0
45 -45 0 -45 0 0 45 0 45 45 0 45 0 0 -45 0 -45 90 0 90 0 0 -45 0 -45 -45 0
-45 0 0 -45 0 -45 -180 0 -180 0 0 -90 0 -90 -90 0 -90 0 0 -90 0 -90 -45 0
-45 0 0 -45 0 -45 -45 0 -45 0 0 45 0 45 -45 0 -45 0 0 -45 0 -45 -45 0 -45 0
0 45 0 45 -90 0 -90 0 0 45 0 45 90 0 90 0 0 45 0 45 -45 0 -45 0 0 45 0 45
45 0 45 0 0 45 0 45 -45 0 -45 0 0 45 0 45 -45 0 -45 0 0 45 0 45 -45 0 -45 0
0 45 0 45 45 0 45 0 0 90 0 90 -90 0 -90 0 0 45 0 45 90 0 90 0 0 45 0 45 90
0 90 0 0 -45z m2520 -45 l0 -90 45 0 45 0 0 -45 0 -45 -45 0 -45 0 0 45 0 45
-90 0 -90 0 0 90 0 90 90 0 90 0 0 -90z m-1350 -135 l0 -135 -135 0 -135 0 0
135 0 135 135 0 135 0 0 -135z m180 -45 l0 -90 -45 0 -45 0 0 90 0 90 45 0 45
0 0 -90z m900 -405 l0 -45 -45 0 -45 0 0 45 0 45 45 0 45 0 0 -45z m-270 -90
l0 -45 -45 0 -45 0 0 45 0 45 45 0 45 0 0 -45z m-1620 -450 l0 -45 -45 0 -45
0 0 45 0 45 45 0 45 0 0 -45z m180 0 l0 -45 -45 0 -45 0 0 45 0 45 45 0 45 0
0 -45z m1710 -180 l0 -45 -45 0 -45 0 0 45 0 45 45 0 45 0 0 -45z"/>
<path d="M2790 3375 l0 -45 45 0 45 0 0 45 0 45 -45 0 -45 0 0 -45z"/>
<path d="M3240 3105 l0 -45 90 0 90 0 0 45 0 45 -90 0 -90 0 0 -45z"/>
<path d="M3870 3105 l0 -45 45 0 45 0 0 45 0 45 -45 0 -45 0 0 -45z"/>
<path d="M3060 2970 l0 -90 45 0 45 0 0 -45 0 -45 45 0 45 0 0 90 0 90 -45 0
-45 0 0 45 0 45 -45 0 -45 0 0 -90z"/>
<path d="M2880 2925 l0 -45 45 0 45 0 0 45 0 45 -45 0 -45 0 0 -45z"/>
<path d="M3150 2565 l0 -45 45 0 45 0 0 45 0 45 -45 0 -45 0 0 -45z"/>
<path d="M1440 2745 l0 -45 45 0 45 0 0 45 0 45 -45 0 -45 0 0 -45z"/>
<path d="M1620 2655 l0 -45 45 0 45 0 0 45 0 45 -45 0 -45 0 0 -45z"/>
<path d="M1800 2565 l0 -45 -45 0 -45 0 0 -45 0 -45 -45 0 -45 0 0 45 0 45
-45 0 -45 0 0 -90 0 -90 90 0 90 0 0 -90 0 -90 135 0 135 0 0 45 0 45 90 0 90
0 0 180 0 180 -45 0 -45 0 0 -45 0 -45 -45 0 -45 0 0 45 0 45 -90 0 -90 0 0
-45z m180 -90 l0 -45 -45 0 -45 0 0 -45 0 -45 45 0 45 0 0 -45 0 -45 -45 0
-45 0 0 45 0 45 -45 0 -45 0 0 45 0 45 45 0 45 0 0 45 0 45 45 0 45 0 0 -45z"/>
<path d="M1710 2025 l0 -45 90 0 90 0 0 45 0 45 -90 0 -90 0 0 -45z"/>
<path d="M2610 2655 l0 -45 45 0 45 0 0 45 0 45 -45 0 -45 0 0 -45z"/>
<path d="M2340 4275 l0 -45 45 0 45 0 0 -45 0 -45 90 0 90 0 0 45 0 45 -90 0
-90 0 0 45 0 45 -45 0 -45 0 0 -45z"/>
<path d="M810 3915 l0 -45 45 0 45 0 0 45 0 45 -45 0 -45 0 0 -45z"/>
<path d="M2430 3735 l0 -45 45 0 45 0 0 45 0 45 -45 0 -45 0 0 -45z"/>
<path d="M4770 3645 l0 -45 45 0 45 0 0 45 0 45 -45 0 -45 0 0 -45z"/>
<path d="M4320 3465 l0 -45 45 0 45 0 0 45 0 45 -45 0 -45 0 0 -45z"/>
<path d="M1260 3330 l0 -90 45 0 45 0 0 -45 0 -45 45 0 45 0 0 90 0 90 -45 0
-45 0 0 45 0 45 -45 0 -45 0 0 -90z"/>
<path d="M630 2295 l0 -45 45 0 45 0 0 45 0 45 -45 0 -45 0 0 -45z"/>
<path d="M2340 1575 l0 -45 -45 0 -45 0 0 -45 0 -45 -90 0 -90 0 0 -45 0 -45
-90 0 -90 0 0 -45 0 -45 -90 0 -90 0 0 -45 0 -45 45 0 45 0 0 -90 0 -90 -45 0
-45 0 0 -45 0 -45 -45 0 -45 0 0 -90 0 -90 -90 0 -90 0 0 45 0 45 45 0 45 0 0
90 0 90 -45 0 -45 0 0 45 0 45 -90 0 -90 0 0 -45 0 -45 90 0 90 0 0 -90 0 -90
-45 0 -45 0 0 -45 0 -45 45 0 45 0 0 -90 0 -90 -45 0 -45 0 0 -45 0 -45 45 0
45 0 0 45 0 45 45 0 45 0 0 45 0 45 135 0 135 0 0 45 0 45 -45 0 -45 0 0 90 0
90 45 0 45 0 0 -45 0 -45 45 0 45 0 0 -90 0 -90 45 0 45 0 0 135 0 135 45 0
45 0 0 45 0 45 -45 0 -45 0 0 -45 0 -45 -90 0 -90 0 0 45 0 45 45 0 45 0 0
135 0 135 135 0 135 0 0 -135 0 -135 90 0 90 0 0 135 0 135 45 0 45 0 0 90 0
90 45 0 45 0 0 45 0 45 -45 0 -45 0 0 45 0 45 -45 0 -45 0 0 -45z m90 -90 l0
-45 -45 0 -45 0 0 -90 0 -90 -45 0 -45 0 0 90 0 90 45 0 45 0 0 45 0 45 45 0
45 0 0 -45z"/>
<path d="M1980 1125 l0 -45 45 0 45 0 0 45 0 45 -45 0 -45 0 0 -45z"/>
<path d="M2610 4635 l0 -45 45 0 45 0 0 45 0 45 -45 0 -45 0 0 -45z"/>
<path d="M450 3555 l0 -45 135 0 135 0 0 45 0 45 -135 0 -135 0 0 -45z"/>
<path d="M630 2655 l0 -45 45 0 45 0 0 45 0 45 -45 0 -45 0 0 -45z"/>
<path d="M4590 2655 l0 -45 45 0 45 0 0 45 0 45 -45 0 -45 0 0 -45z"/>
<path d="M4860 1890 l0 -90 45 0 45 0 0 90 0 90 -45 0 -45 0 0 -90z"/>
<path d="M2610 675 l0 -45 45 0 45 0 0 45 0 45 -45 0 -45 0 0 -45z"/>
<path d="M4590 675 l0 -45 45 0 45 0 0 45 0 45 -45 0 -45 0 0 -45z"/>
<path d="M3240 5175 l0 -45 45 0 45 0 0 45 0 45 -45 0 -45 0 0 -45z"/>
<path d="M3870 5175 l0 -45 45 0 45 0 0 45 0 45 -45 0 -45 0 0 -45z"/>
<path d="M4590 4905 l0 -315 315 0 315 0 0 315 0 315 -315 0 -315 0 0 -315z
m540 0 l0 -225 -225 0 -225 0 0 225 0 225 225 0 225 0 0 -225z"/>
<path d="M4770 4905 l0 -135 135 0 135 0 0 135 0 135 -135 0 -135 0 0 -135z"/>
<path d="M1080 5085 l0 -45 45 0 45 0 0 45 0 45 -45 0 -45 0 0 -45z"/>
<path d="M4410 4635 l0 -45 45 0 45 0 0 45 0 45 -45 0 -45 0 0 -45z"/>
<path d="M900 4455 l0 -45 45 0 45 0 0 45 0 45 -45 0 -45 0 0 -45z"/>
<path d="M90 3285 l0 -45 45 0 45 0 0 45 0 45 -45 0 -45 0 0 -45z"/>
<path d="M90 405 l0 -315 315 0 315 0 0 315 0 315 -315 0 -315 0 0 -315z m540
0 l0 -225 -225 0 -225 0 0 225 0 225 225 0 225 0 0 -225z"/>
<path d="M270 405 l0 -135 135 0 135 0 0 135 0 135 -135 0 -135 0 0 -135z"/>
<path d="M3600 585 l0 -45 45 0 45 0 0 45 0 45 -45 0 -45 0 0 -45z"/>
<path d="M810 450 l0 -90 45 0 45 0 0 45 0 45 45 0 45 0 0 45 0 45 -90 0 -90
0 0 -90z"/>
</g>
</svg>
