<?xml version="1.0" standalone="no"?>
<!DOCTYPE svg PUBLIC "-//W3C//DTD SVG 20010904//EN"
 "http://www.w3.org/TR/2001/REC-SVG-20010904/DTD/svg10.dtd">
<svg version="1.0" xmlns="http://www.w3.org/2000/svg"
 width="531.000000pt" height="531.000000pt" viewBox="0 0 531.000000 531.000000"
 preserveAspectRatio="xMidYMid meet">

<g transform="translate(0.000000,531.000000) scale(0.100000,-0.100000)"
fill="#000000" stroke="none">
<path d="M90 4905 l0 -315 315 0 315 0 0 315 0 315 -315 0 -315 0 0 -315z
m540 0 l0 -225 -225 0 -225 0 0 225 0 225 225 0 225 0 0 -225z"/>
<path d="M270 4905 l0 -135 135 0 135 0 0 135 0 135 -135 0 -135 0 0 -135z"/>
<path d="M990 5130 l0 -90 -45 0 -45 0 0 -45 0 -45 45 0 45 0 0 -45 0 -45 45
0 45 0 0 -45 0 -45 -45 0 -45 0 0 -90 0 -90 -45 0 -45 0 0 45 0 45 -45 0 -45
0 0 -90 0 -90 -90 0 -90 0 0 -45 0 -45 -45 0 -45 0 0 -90 0 -90 -45 0 -45 0 0
135 0 135 -90 0 -90 0 0 -45 0 -45 45 0 45 0 0 -45 0 -45 -45 0 -45 0 0 -45 0
-45 90 0 90 0 0 -45 0 -45 -45 0 -45 0 0 -45 0 -45 180 0 180 0 0 -45 0 -45
-180 0 -180 0 0 -45 0 -45 -45 0 -45 0 0 90 0 90 -45 0 -45 0 0 45 0 45 -45 0
-45 0 0 -135 0 -135 90 0 90 0 0 -90 0 -90 -45 0 -45 0 0 45 0 45 -45 0 -45 0
0 -90 0 -90 90 0 90 0 0 45 0 45 45 0 45 0 0 -90 0 -90 45 0 45 0 0 45 0 45
45 0 45 0 0 45 0 45 -45 0 -45 0 0 45 0 45 45 0 45 0 0 45 0 45 90 0 90 0 0
-45 0 -45 -45 0 -45 0 0 -45 0 -45 45 0 45 0 0 45 0 45 45 0 45 0 0 -135 0
-135 -45 0 -45 0 0 45 0 45 -45 0 -45 0 0 -45 0 -45 -45 0 -45 0 0 -45 0 -45
-45 0 -45 0 0 -90 0 -90 -90 0 -90 0 0 45 0 45 -90 0 -90 0 0 -45 0 -45 45 0
45 0 0 -45 0 -45 -45 0 -45 0 0 -90 0 -90 45 0 45 0 0 -45 0 -45 45 0 45 0 0
-45 0 -45 -45 0 -45 0 0 -135 0 -135 -45 0 -45 0 0 -90 0 -90 90 0 90 0 0 45
0 45 -45 0 -45 0 0 45 0 45 45 0 45 0 0 45 0 45 45 0 45 0 0 -180 0 -180 -45
0 -45 0 0 -45 0 -45 45 0 45 0 0 -45 0 -45 -90 0 -90 0 0 90 0 90 -45 0 -45 0
0 -135 0 -135 45 0 45 0 0 -45 0 -45 -45 0 -45 0 0 -45 0 -45 45 0 45 0 0 45
0 45 45 0 45 0 0 -45 0 -45 45 0 45 0 0 -45 0 -45 45 0 45 0 0 45 0 45 45 0
45 0 0 -45 0 -45 90 0 90 0 0 -45 0 -45 -45 0 -45 0 0 -45 0 -45 45 0 45 0 0
45 0 45 45 0 45 0 0 45 0 45 45 0 45 0 0 45 0 45 -45 0 -45 0 0 -45 0 -45 -45
0 -45 0 0 45 0 45 -45 0 -45 0 0 45 0 45 45 0 45 0 0 45 0 45 45 0 45 0 0 90
0 90 -90 0 -90 0 0 45 0 45 90 0 90 0 0 45 0 45 45 0 45 0 0 45 0 45 45 0 45
0 0 -90 0 -90 135 0 135 0 0 45 0 45 45 0 45 0 0 -45 0 -45 90 0 90 0 0 45 0
45 45 0 45 0 0 -45 0 -45 45 0 45 0 0 45 0 45 -45 0 -45 0 0 45 0 45 90 0 90
0 0 -45 0 -45 90 0 90 0 0 45 0 45 -45 0 -45 0 0 45 0 45 90 0 90 0 0 -135 0
-135 -45 0 -45 0 0 -45 0 -45 -45 0 -45 0 0 45 0 45 -45 0 -45 0 0 -45 0 -45
-45 0 -45 0 0 -45 0 -45 -45 0 -45 0 0 45 0 45 -45 0 -45 0 0 -45 0 -45 -45 0
-45 0 0 45 0 45 -90 0 -90 0 0 -45 0 -45 -90 0 -90 0 0 45 0 45 -45 0 -45 0 0
-45 0 -45 -45 0 -45 0 0 -45 0 -45 45 0 45 0 0 45 0 45 45 0 45 0 0 -135 0
-135 -45 0 -45 0 0 -45 0 -45 45 0 45 0 0 -45 0 -45 -90 0 -90 0 0 -45 0 -45
-45 0 -45 0 0 -45 0 -45 -90 0 -90 0 0 -45 0 -45 -45 0 -45 0 0 45 0 45 -45 0
-45 0 0 -45 0 -45 -45 0 -45 0 0 90 0 90 90 0 90 0 0 45 0 45 -90 0 -90 0 0
-45 0 -45 -135 0 -135 0 0 -45 0 -45 90 0 90 0 0 -45 0 -45 45 0 45 0 0 -90 0
-90 -45 0 -45 0 0 45 0 45 -45 0 -45 0 0 45 0 45 -45 0 -45 0 0 -45 0 -45 45
0 45 0 0 -45 0 -45 45 0 45 0 0 -90 0 -90 -45 0 -45 0 0 45 0 45 -45 0 -45 0
0 -90 0 -90 225 0 225 0 0 45 0 45 90 0 90 0 0 -45 0 -45 -45 0 -45 0 0 -45 0
-45 45 0 45 0 0 45 0 45 45 0 45 0 0 -135 0 -135 45 0 45 0 0 45 0 45 45 0 45
0 0 -45 0 -45 180 0 180 0 0 -45 0 -45 -45 0 -45 0 0 -90 0 -90 45 0 45 0 0
90 0 90 90 0 90 0 0 45 0 45 45 0 45 0 0 45 0 45 45 0 45 0 0 -45 0 -45 90 0
90 0 0 -45 0 -45 90 0 90 0 0 90 0 90 90 0 90 0 0 -45 0 -45 -45 0 -45 0 0
-45 0 -45 45 0 45 0 0 -90 0 -90 -45 0 -45 0 0 45 0 45 -45 0 -45 0 0 -45 0
-45 45 0 45 0 0 -45 0 -45 -45 0 -45 0 0 -45 0 -45 -45 0 -45 0 0 135 0 135
-45 0 -45 0 0 -45 0 -45 -45 0 -45 0 0 45 0 45 -180 0 -180 0 0 -90 0 -90 -90
0 -90 0 0 -45 0 -45 -90 0 -90 0 0 45 0 45 45 0 45 0 0 45 0 45 -90 0 -90 0 0
45 0 45 45 0 45 0 0 45 0 45 -45 0 -45 0 0 -45 0 -45 -90 0 -90 0 0 -90 0 -90
45 0 45 0 0 -45 0 -45 90 0 90 0 0 -45 0 -45 90 0 90 0 0 45 0 45 45 0 45 0 0
-45 0 -45 135 0 135 0 0 90 0 90 45 0 45 0 0 45 0 45 45 0 45 0 0 -135 0 -135
45 0 45 0 0 45 0 45 45 0 45 0 0 -45 0 -45 45 0 45 0 0 45 0 45 90 0 90 0 0
-45 0 -45 45 0 45 0 0 135 0 135 45 0 45 0 0 45 0 45 45 0 45 0 0 -45 0 -45
135 0 135 0 0 45 0 45 45 0 45 0 0 -90 0 -90 -135 0 -135 0 0 -45 0 -45 45 0
45 0 0 -45 0 -45 135 0 135 0 0 180 0 180 45 0 45 0 0 -45 0 -45 45 0 45 0 0
-45 0 -45 45 0 45 0 0 -90 0 -90 45 0 45 0 0 45 0 45 45 0 45 0 0 45 0 45 -45
0 -45 0 0 45 0 45 -90 0 -90 0 0 90 0 90 -45 0 -45 0 0 45 0 45 -90 0 -90 0 0
45 0 45 45 0 45 0 0 45 0 45 -45 0 -45 0 0 45 0 45 45 0 45 0 0 45 0 45 90 0
90 0 0 45 0 45 45 0 45 0 0 -90 0 -90 90 0 90 0 0 -45 0 -45 -45 0 -45 0 0
-45 0 -45 45 0 45 0 0 45 0 45 45 0 45 0 0 -45 0 -45 90 0 90 0 0 -45 0 -45
-45 0 -45 0 0 -45 0 -45 -45 0 -45 0 0 45 0 45 -45 0 -45 0 0 -45 0 -45 45 0
45 0 0 -180 0 -180 90 0 90 0 0 -45 0 -45 90 0 90 0 0 90 0 90 -45 0 -45 0 0
-45 0 -45 -45 0 -45 0 0 45 0 45 -45 0 -45 0 0 45 0 45 45 0 45 0 0 45 0 45
-45 0 -45 0 0 45 0 45 90 0 90 0 0 -90 0 -90 45 0 45 0 0 45 0 45 90 0 90 0 0
-45 0 -45 -45 0 -45 0 0 -45 0 -45 90 0 90 0 0 -45 0 -45 45 0 45 0 0 -45 0
-45 225 0 225 0 0 90 0 90 -90 0 -90 0 0 90 0 90 90 0 90 0 0 -45 0 -45 45 0
45 0 0 45 0 45 45 0 45 0 0 -45 0 -45 45 0 45 0 0 -45 0 -45 45 0 45 0 0 45 0
45 45 0 45 0 0 45 0 45 45 0 45 0 0 90 0 90 -45 0 -45 0 0 -90 0 -90 -45 0
-45 0 0 135 0 135 45 0 45 0 0 135 0 135 45 0 45 0 0 90 0 90 -45 0 -45 0 0
45 0 45 45 0 45 0 0 45 0 45 -45 0 -45 0 0 45 0 45 45 0 45 0 0 90 0 90 -45 0
-45 0 0 45 0 45 -90 0 -90 0 0 45 0 45 90 0 90 0 0 45 0 45 45 0 45 0 0 45 0
45 -90 0 -90 0 0 -45 0 -45 -45 0 -45 0 0 90 0 90 135 0 135 0 0 135 0 135
-45 0 -45 0 0 90 0 90 45 0 45 0 0 90 0 90 -45 0 -45 0 0 45 0 45 -45 0 -45 0
0 45 0 45 45 0 45 0 0 45 0 45 -90 0 -90 0 0 -45 0 -45 -90 0 -90 0 0 45 0 45
-45 0 -45 0 0 45 0 45 -90 0 -90 0 0 -90 0 -90 -45 0 -45 0 0 45 0 45 -45 0
-45 0 0 135 0 135 90 0 90 0 0 -45 0 -45 45 0 45 0 0 135 0 135 45 0 45 0 0
45 0 45 45 0 45 0 0 -90 0 -90 45 0 45 0 0 -45 0 -45 90 0 90 0 0 -90 0 -90
45 0 45 0 0 45 0 45 45 0 45 0 0 90 0 90 -45 0 -45 0 0 -45 0 -45 -45 0 -45 0
0 90 0 90 90 0 90 0 0 45 0 45 -45 0 -45 0 0 45 0 45 45 0 45 0 0 90 0 90 -45
0 -45 0 0 45 0 45 -135 0 -135 0 0 45 0 45 45 0 45 0 0 135 0 135 45 0 45 0 0
-90 0 -90 90 0 90 0 0 45 0 45 -45 0 -45 0 0 45 0 45 45 0 45 0 0 90 0 90 -45
0 -45 0 0 -90 0 -90 -45 0 -45 0 0 90 0 90 -45 0 -45 0 0 -90 0 -90 -45 0 -45
0 0 -135 0 -135 -90 0 -90 0 0 90 0 90 45 0 45 0 0 90 0 90 45 0 45 0 0 90 0
90 -45 0 -45 0 0 -45 0 -45 -45 0 -45 0 0 45 0 45 -180 0 -180 0 0 -90 0 -90
-45 0 -45 0 0 -45 0 -45 45 0 45 0 0 -45 0 -45 -90 0 -90 0 0 90 0 90 -45 0
-45 0 0 90 0 90 45 0 45 0 0 -45 0 -45 45 0 45 0 0 45 0 45 -45 0 -45 0 0 90
0 90 45 0 45 0 0 -45 0 -45 45 0 45 0 0 90 0 90 45 0 45 0 0 225 0 225 -135 0
-135 0 0 -90 0 -90 -45 0 -45 0 0 90 0 90 -90 0 -90 0 0 -45 0 -45 -90 0 -90
0 0 -45 0 -45 45 0 45 0 0 -90 0 -90 -90 0 -90 0 0 90 0 90 -45 0 -45 0 0 90
0 90 -90 0 -90 0 0 -45 0 -45 -45 0 -45 0 0 -45 0 -45 -45 0 -45 0 0 45 0 45
-45 0 -45 0 0 45 0 45 -180 0 -180 0 0 -45 0 -45 -45 0 -45 0 0 45 0 45 -45 0
-45 0 0 -45 0 -45 -90 0 -90 0 0 45 0 45 -45 0 -45 0 0 -135 0 -135 -45 0 -45
0 0 45 0 45 -45 0 -45 0 0 45 0 45 45 0 45 0 0 45 0 45 -45 0 -45 0 0 -45 0
-45 -45 0 -45 0 0 -45 0 -45 -180 0 -180 0 0 45 0 45 135 0 135 0 0 45 0 45
-135 0 -135 0 0 -45 0 -45 -45 0 -45 0 0 -90 0 -90 -45 0 -45 0 0 -90 0 -90
-45 0 -45 0 0 135 0 135 45 0 45 0 0 45 0 45 -45 0 -45 0 0 -45 0 -45 -45 0
-45 0 0 90 0 90 -45 0 -45 0 0 -90 0 -90 45 0 45 0 0 -45 0 -45 -90 0 -90 0 0
135 0 135 -45 0 -45 0 0 -90z m1620 -90 l0 -90 45 0 45 0 0 45 0 45 45 0 45 0
0 45 0 45 45 0 45 0 0 -45 0 -45 45 0 45 0 0 45 0 45 45 0 45 0 0 -45 0 -45
45 0 45 0 0 -45 0 -45 45 0 45 0 0 -45 0 -45 -45 0 -45 0 0 45 0 45 -90 0 -90
0 0 -45 0 -45 45 0 45 0 0 -45 0 -45 45 0 45 0 0 -90 0 -90 -45 0 -45 0 0 90
0 90 -90 0 -90 0 0 90 0 90 -90 0 -90 0 0 -45 0 -45 -90 0 -90 0 0 45 0 45
-45 0 -45 0 0 -45 0 -45 -45 0 -45 0 0 -45 0 -45 -45 0 -45 0 0 45 0 45 45 0
45 0 0 90 0 90 90 0 90 0 0 45 0 45 45 0 45 0 0 -90z m1710 45 l0 -45 -45 0
-45 0 0 -45 0 -45 45 0 45 0 0 -90 0 -90 -45 0 -45 0 0 45 0 45 -45 0 -45 0 0
-90 0 -90 -45 0 -45 0 0 -45 0 -45 -45 0 -45 0 0 -45 0 -45 -45 0 -45 0 0 -45
0 -45 -45 0 -45 0 0 -45 0 -45 -45 0 -45 0 0 -45 0 -45 135 0 135 0 0 45 0 45
45 0 45 0 0 -45 0 -45 -45 0 -45 0 0 -45 0 -45 -90 0 -90 0 0 -45 0 -45 90 0
90 0 0 -45 0 -45 -45 0 -45 0 0 -45 0 -45 -90 0 -90 0 0 45 0 45 -45 0 -45 0
0 45 0 45 45 0 45 0 0 45 0 45 -135 0 -135 0 0 -90 0 -90 45 0 45 0 0 -45 0
-45 -45 0 -45 0 0 -45 0 -45 90 0 90 0 0 -90 0 -90 45 0 45 0 0 90 0 90 90 0
90 0 0 -45 0 -45 90 0 90 0 0 -45 0 -45 -45 0 -45 0 0 -45 0 -45 90 0 90 0 0
-90 0 -90 -135 0 -135 0 0 45 0 45 -45 0 -45 0 0 90 0 90 -45 0 -45 0 0 -90 0
-90 -90 0 -90 0 0 -45 0 -45 45 0 45 0 0 -90 0 -90 45 0 45 0 0 -135 0 -135
45 0 45 0 0 90 0 90 90 0 90 0 0 90 0 90 45 0 45 0 0 -90 0 -90 45 0 45 0 0
90 0 90 45 0 45 0 0 45 0 45 45 0 45 0 0 45 0 45 45 0 45 0 0 45 0 45 45 0 45
0 0 45 0 45 -45 0 -45 0 0 45 0 45 45 0 45 0 0 45 0 45 -45 0 -45 0 0 45 0 45
45 0 45 0 0 -45 0 -45 45 0 45 0 0 -45 0 -45 45 0 45 0 0 45 0 45 90 0 90 0 0
-45 0 -45 -90 0 -90 0 0 -45 0 -45 -45 0 -45 0 0 -45 0 -45 -45 0 -45 0 0 -45
0 -45 -45 0 -45 0 0 -45 0 -45 -45 0 -45 0 0 -45 0 -45 -45 0 -45 0 0 -135 0
-135 45 0 45 0 0 -90 0 -90 -45 0 -45 0 0 -45 0 -45 45 0 45 0 0 -45 0 -45 45
0 45 0 0 -45 0 -45 -45 0 -45 0 0 45 0 45 -90 0 -90 0 0 -45 0 -45 -45 0 -45
0 0 45 0 45 45 0 45 0 0 90 0 90 45 0 45 0 0 90 0 90 -90 0 -90 0 0 45 0 45
-45 0 -45 0 0 -45 0 -45 -45 0 -45 0 0 -45 0 -45 45 0 45 0 0 -45 0 -45 45 0
45 0 0 -45 0 -45 -45 0 -45 0 0 45 0 45 -135 0 -135 0 0 45 0 45 -45 0 -45 0
0 45 0 45 -45 0 -45 0 0 45 0 45 -45 0 -45 0 0 -45 0 -45 -45 0 -45 0 0 45 0
45 -90 0 -90 0 0 90 0 90 45 0 45 0 0 90 0 90 -45 0 -45 0 0 45 0 45 -135 0
-135 0 0 -45 0 -45 -90 0 -90 0 0 45 0 45 -45 0 -45 0 0 -45 0 -45 -45 0 -45
0 0 -45 0 -45 -45 0 -45 0 0 45 0 45 45 0 45 0 0 45 0 45 -135 0 -135 0 0 -45
0 -45 45 0 45 0 0 -45 0 -45 -45 0 -45 0 0 45 0 45 -45 0 -45 0 0 45 0 45 45
0 45 0 0 45 0 45 135 0 135 0 0 90 0 90 45 0 45 0 0 -90 0 -90 45 0 45 0 0
-45 0 -45 90 0 90 0 0 90 0 90 -90 0 -90 0 0 45 0 45 135 0 135 0 0 -90 0 -90
45 0 45 0 0 45 0 45 45 0 45 0 0 -45 0 -45 45 0 45 0 0 45 0 45 45 0 45 0 0
-45 0 -45 -45 0 -45 0 0 -45 0 -45 90 0 90 0 0 -45 0 -45 45 0 45 0 0 45 0 45
45 0 45 0 0 45 0 45 -90 0 -90 0 0 90 0 90 -45 0 -45 0 0 45 0 45 45 0 45 0 0
45 0 45 -135 0 -135 0 0 -90 0 -90 -45 0 -45 0 0 225 0 225 45 0 45 0 0 45 0
45 90 0 90 0 0 -45 0 -45 -45 0 -45 0 0 -45 0 -45 90 0 90 0 0 45 0 45 90 0
90 0 0 45 0 45 -90 0 -90 0 0 90 0 90 -45 0 -45 0 0 45 0 45 -45 0 -45 0 0 90
0 90 45 0 45 0 0 -90 0 -90 45 0 45 0 0 45 0 45 45 0 45 0 0 -90 0 -90 45 0
45 0 0 135 0 135 45 0 45 0 0 -180 0 -180 45 0 45 0 0 225 0 225 45 0 45 0 0
45 0 45 45 0 45 0 0 45 0 45 45 0 45 0 0 -45 0 -45 45 0 45 0 0 45 0 45 45 0
45 0 0 45 0 45 45 0 45 0 0 -45z m-900 -90 l0 -45 -45 0 -45 0 0 45 0 45 45 0
45 0 0 -45z m-1620 -90 l0 -45 -45 0 -45 0 0 -45 0 -45 -90 0 -90 0 0 45 0 45
90 0 90 0 0 45 0 45 45 0 45 0 0 -45z m360 -45 l0 -90 -45 0 -45 0 0 -90 0
-90 -45 0 -45 0 0 45 0 45 -45 0 -45 0 0 -45 0 -45 -45 0 -45 0 0 45 0 45 45
0 45 0 0 45 0 45 90 0 90 0 0 45 0 45 -45 0 -45 0 0 45 0 45 90 0 90 0 0 -90z
m-900 -45 l0 -45 -45 0 -45 0 0 -90 0 -90 45 0 45 0 0 45 0 45 45 0 45 0 0
-45 0 -45 45 0 45 0 0 45 0 45 45 0 45 0 0 -45 0 -45 45 0 45 0 0 45 0 45 45
0 45 0 0 -90 0 -90 90 0 90 0 0 -45 0 -45 45 0 45 0 0 -45 0 -45 45 0 45 0 0
45 0 45 90 0 90 0 0 -45 0 -45 -90 0 -90 0 0 -45 0 -45 45 0 45 0 0 -90 0 -90
-45 0 -45 0 0 -45 0 -45 45 0 45 0 0 -45 0 -45 90 0 90 0 0 270 0 270 45 0 45
0 0 -45 0 -45 90 0 90 0 0 -45 0 -45 -90 0 -90 0 0 -90 0 -90 45 0 45 0 0 -45
0 -45 -45 0 -45 0 0 -135 0 -135 -90 0 -90 0 0 45 0 45 -45 0 -45 0 0 -45 0
-45 -45 0 -45 0 0 45 0 45 45 0 45 0 0 45 0 45 -45 0 -45 0 0 45 0 45 -45 0
-45 0 0 45 0 45 45 0 45 0 0 90 0 90 -45 0 -45 0 0 -45 0 -45 -45 0 -45 0 0
-45 0 -45 -45 0 -45 0 0 -45 0 -45 45 0 45 0 0 -45 0 -45 -135 0 -135 0 0 45
0 45 -45 0 -45 0 0 -45 0 -45 -45 0 -45 0 0 -45 0 -45 45 0 45 0 0 -45 0 -45
45 0 45 0 0 45 0 45 135 0 135 0 0 -45 0 -45 -90 0 -90 0 0 -45 0 -45 -180 0
-180 0 0 -45 0 -45 135 0 135 0 0 -45 0 -45 45 0 45 0 0 45 0 45 45 0 45 0 0
45 0 45 90 0 90 0 0 -45 0 -45 45 0 45 0 0 -45 0 -45 -45 0 -45 0 0 -45 0 -45
90 0 90 0 0 -45 0 -45 45 0 45 0 0 -45 0 -45 45 0 45 0 0 45 0 45 45 0 45 0 0
-90 0 -90 -45 0 -45 0 0 -45 0 -45 90 0 90 0 0 45 0 45 90 0 90 0 0 -45 0 -45
45 0 45 0 0 90 0 90 -90 0 -90 0 0 45 0 45 90 0 90 0 0 -45 0 -45 45 0 45 0 0
45 0 45 45 0 45 0 0 45 0 45 45 0 45 0 0 -90 0 -90 -45 0 -45 0 0 -45 0 -45
45 0 45 0 0 -45 0 -45 90 0 90 0 0 -45 0 -45 -90 0 -90 0 0 45 0 45 -90 0 -90
0 0 -45 0 -45 45 0 45 0 0 -45 0 -45 -45 0 -45 0 0 45 0 45 -90 0 -90 0 0 45
0 45 -45 0 -45 0 0 -45 0 -45 -90 0 -90 0 0 -135 0 -135 -90 0 -90 0 0 225 0
225 -45 0 -45 0 0 90 0 90 -45 0 -45 0 0 -45 0 -45 -45 0 -45 0 0 45 0 45 -45
0 -45 0 0 90 0 90 -45 0 -45 0 0 -45 0 -45 -180 0 -180 0 0 -45 0 -45 45 0 45
0 0 -90 0 -90 270 0 270 0 0 -45 0 -45 45 0 45 0 0 -45 0 -45 -180 0 -180 0 0
45 0 45 -45 0 -45 0 0 -45 0 -45 -45 0 -45 0 0 -45 0 -45 45 0 45 0 0 -135 0
-135 -45 0 -45 0 0 45 0 45 -45 0 -45 0 0 -90 0 -90 -45 0 -45 0 0 90 0 90
-45 0 -45 0 0 -90 0 -90 -90 0 -90 0 0 45 0 45 -45 0 -45 0 0 -45 0 -45 -45 0
-45 0 0 45 0 45 45 0 45 0 0 45 0 45 45 0 45 0 0 -45 0 -45 45 0 45 0 0 45 0
45 45 0 45 0 0 180 0 180 -45 0 -45 0 0 45 0 45 90 0 90 0 0 45 0 45 -90 0
-90 0 0 45 0 45 -45 0 -45 0 0 -45 0 -45 -45 0 -45 0 0 90 0 90 -45 0 -45 0 0
-45 0 -45 -45 0 -45 0 0 -90 0 -90 45 0 45 0 0 -45 0 -45 -45 0 -45 0 0 45 0
45 -135 0 -135 0 0 -45 0 -45 90 0 90 0 0 -45 0 -45 -135 0 -135 0 0 180 0
180 45 0 45 0 0 45 0 45 45 0 45 0 0 45 0 45 -45 0 -45 0 0 45 0 45 45 0 45 0
0 -45 0 -45 45 0 45 0 0 45 0 45 45 0 45 0 0 45 0 45 45 0 45 0 0 45 0 45 -45
0 -45 0 0 45 0 45 -45 0 -45 0 0 45 0 45 -45 0 -45 0 0 45 0 45 45 0 45 0 0
-45 0 -45 45 0 45 0 0 45 0 45 90 0 90 0 0 45 0 45 45 0 45 0 0 90 0 90 -45 0
-45 0 0 -45 0 -45 -45 0 -45 0 0 90 0 90 -45 0 -45 0 0 -45 0 -45 -45 0 -45 0
0 -45 0 -45 -135 0 -135 0 0 45 0 45 90 0 90 0 0 45 0 45 -45 0 -45 0 0 45 0
45 90 0 90 0 0 -45 0 -45 45 0 45 0 0 90 0 90 45 0 45 0 0 45 0 45 45 0 45 0
0 90 0 90 45 0 45 0 0 45 0 45 45 0 45 0 0 -45z m2250 0 l0 -45 -45 0 -45 0 0
45 0 45 45 0 45 0 0 -45z m-720 -180 l0 -135 -135 0 -135 0 0 135 0 135 135 0
135 0 0 -135z m-540 -45 l0 -90 -45 0 -45 0 0 90 0 90 45 0 45 0 0 -90z m180
0 l0 -90 -45 0 -45 0 0 90 0 90 45 0 45 0 0 -90z m540 0 l0 -90 135 0 135 0 0
-45 0 -45 -90 0 -90 0 0 -45 0 -45 -45 0 -45 0 0 -90 0 -90 -45 0 -45 0 0 -90
0 -90 45 0 45 0 0 -45 0 -45 -90 0 -90 0 0 135 0 135 -45 0 -45 0 0 -135 0
-135 -45 0 -45 0 0 135 0 135 45 0 45 0 0 45 0 45 45 0 45 0 0 -45 0 -45 45 0
45 0 0 90 0 90 -90 0 -90 0 0 45 0 45 90 0 90 0 0 -45 0 -45 45 0 45 0 0 90 0
90 -45 0 -45 0 0 90 0 90 45 0 45 0 0 -90z m1710 -270 l0 -90 -45 0 -45 0 0
-45 0 -45 -45 0 -45 0 0 -90 0 -90 -90 0 -90 0 0 -45 0 -45 -45 0 -45 0 0 -90
0 -90 -45 0 -45 0 0 180 0 180 -45 0 -45 0 0 45 0 45 45 0 45 0 0 -45 0 -45
90 0 90 0 0 45 0 45 90 0 90 0 0 90 0 90 45 0 45 0 0 45 0 45 45 0 45 0 0 -90z
m-270 -45 l0 -45 -45 0 -45 0 0 45 0 45 45 0 45 0 0 -45z m-3960 -450 l0 -45
-45 0 -45 0 0 45 0 45 45 0 45 0 0 -45z m4590 -270 l0 -135 -45 0 -45 0 0 -45
0 -45 -45 0 -45 0 0 90 0 90 -45 0 -45 0 0 45 0 45 45 0 45 0 0 -45 0 -45 45
0 45 0 0 90 0 90 45 0 45 0 0 -135z m-3240 -360 l0 -45 -45 0 -45 0 0 45 0 45
45 0 45 0 0 -45z m2070 0 l0 -45 -45 0 -45 0 0 45 0 45 45 0 45 0 0 -45z
m-3420 -90 l0 -45 -135 0 -135 0 0 45 0 45 135 0 135 0 0 -45z m0 -180 l0 -45
-90 0 -90 0 0 45 0 45 90 0 90 0 0 -45z m720 0 l0 -45 45 0 45 0 0 -45 0 -45
-45 0 -45 0 0 -45 0 -45 -90 0 -90 0 0 -45 0 -45 -45 0 -45 0 0 45 0 45 45 0
45 0 0 90 0 90 45 0 45 0 0 45 0 45 45 0 45 0 0 -45z m-720 -225 l0 -90 -45 0
-45 0 0 90 0 90 45 0 45 0 0 -90z m360 -45 l0 -135 -135 0 -135 0 0 135 0 135
135 0 135 0 0 -135z m1350 45 l0 -90 -90 0 -90 0 0 45 0 45 -45 0 -45 0 0 -45
0 -45 -45 0 -45 0 0 45 0 45 45 0 45 0 0 45 0 45 135 0 135 0 0 -90z m630 -45
l0 -135 -135 0 -135 0 0 135 0 135 135 0 135 0 0 -135z m360 90 l0 -45 45 0
45 0 0 45 0 45 45 0 45 0 0 -45 0 -45 45 0 45 0 0 45 0 45 90 0 90 0 0 -45 0
-45 -90 0 -90 0 0 -45 0 -45 90 0 90 0 0 -45 0 -45 90 0 90 0 0 -45 0 -45 45
0 45 0 0 90 0 90 -90 0 -90 0 0 45 0 45 90 0 90 0 0 -45 0 -45 45 0 45 0 0
-90 0 -90 405 0 405 0 0 -45 0 -45 45 0 45 0 0 90 0 90 90 0 90 0 0 90 0 90
45 0 45 0 0 -90 0 -90 -45 0 -45 0 0 -90 0 -90 45 0 45 0 0 -45 0 -45 -45 0
-45 0 0 -45 0 -45 -45 0 -45 0 0 45 0 45 -45 0 -45 0 0 -90 0 -90 -45 0 -45 0
0 45 0 45 -90 0 -90 0 0 45 0 45 -90 0 -90 0 0 -45 0 -45 45 0 45 0 0 -45 0
-45 -45 0 -45 0 0 45 0 45 -135 0 -135 0 0 -45 0 -45 45 0 45 0 0 -90 0 -90
45 0 45 0 0 45 0 45 45 0 45 0 0 -135 0 -135 45 0 45 0 0 90 0 90 90 0 90 0 0
-45 0 -45 45 0 45 0 0 45 0 45 90 0 90 0 0 -45 0 -45 -90 0 -90 0 0 -45 0 -45
45 0 45 0 0 -45 0 -45 45 0 45 0 0 -45 0 -45 45 0 45 0 0 45 0 45 45 0 45 0 0
-45 0 -45 -45 0 -45 0 0 -90 0 -90 45 0 45 0 0 -45 0 -45 -90 0 -90 0 0 -90 0
-90 45 0 45 0 0 45 0 45 45 0 45 0 0 -45 0 -45 -45 0 -45 0 0 -135 0 -135 -90
0 -90 0 0 45 0 45 45 0 45 0 0 45 0 45 -135 0 -135 0 0 135 0 135 -45 0 -45 0
0 -45 0 -45 -45 0 -45 0 0 -90 0 -90 45 0 45 0 0 -45 0 -45 -90 0 -90 0 0 -90
0 -90 -45 0 -45 0 0 -45 0 -45 45 0 45 0 0 -45 0 -45 -45 0 -45 0 0 45 0 45
-45 0 -45 0 0 -45 0 -45 -45 0 -45 0 0 45 0 45 -45 0 -45 0 0 -45 0 -45 -45 0
-45 0 0 45 0 45 45 0 45 0 0 45 0 45 -135 0 -135 0 0 45 0 45 -135 0 -135 0 0
90 0 90 -45 0 -45 0 0 45 0 45 -45 0 -45 0 0 45 0 45 -90 0 -90 0 0 45 0 45
-45 0 -45 0 0 -90 0 -90 -180 0 -180 0 0 -45 0 -45 45 0 45 0 0 -45 0 -45
-180 0 -180 0 0 90 0 90 -45 0 -45 0 0 -135 0 -135 45 0 45 0 0 -90 0 -90 -45
0 -45 0 0 -45 0 -45 45 0 45 0 0 -45 0 -45 -45 0 -45 0 0 45 0 45 -45 0 -45 0
0 45 0 45 45 0 45 0 0 45 0 45 -45 0 -45 0 0 135 0 135 -45 0 -45 0 0 45 0 45
-45 0 -45 0 0 -90 0 -90 -45 0 -45 0 0 -45 0 -45 45 0 45 0 0 -45 0 -45 -135
0 -135 0 0 45 0 45 -45 0 -45 0 0 45 0 45 -45 0 -45 0 0 90 0 90 45 0 45 0 0
-90 0 -90 45 0 45 0 0 180 0 180 -45 0 -45 0 0 -45 0 -45 -90 0 -90 0 0 45 0
45 -135 0 -135 0 0 45 0 45 -45 0 -45 0 0 -45 0 -45 -45 0 -45 0 0 45 0 45
-45 0 -45 0 0 -45 0 -45 -45 0 -45 0 0 -45 0 -45 45 0 45 0 0 -45 0 -45 -45 0
-45 0 0 -45 0 -45 45 0 45 0 0 -45 0 -45 45 0 45 0 0 45 0 45 45 0 45 0 0 45
0 45 -45 0 -45 0 0 45 0 45 135 0 135 0 0 -45 0 -45 45 0 45 0 0 -45 0 -45
-90 0 -90 0 0 -45 0 -45 45 0 45 0 0 -45 0 -45 45 0 45 0 0 -45 0 -45 -90 0
-90 0 0 90 0 90 -90 0 -90 0 0 -90 0 -90 -45 0 -45 0 0 45 0 45 -45 0 -45 0 0
90 0 90 -90 0 -90 0 0 45 0 45 -45 0 -45 0 0 45 0 45 -45 0 -45 0 0 -90 0 -90
-90 0 -90 0 0 90 0 90 90 0 90 0 0 45 0 45 -45 0 -45 0 0 45 0 45 45 0 45 0 0
-45 0 -45 45 0 45 0 0 45 0 45 45 0 45 0 0 -45 0 -45 90 0 90 0 0 90 0 90 90
0 90 0 0 45 0 45 45 0 45 0 0 45 0 45 45 0 45 0 0 90 0 90 45 0 45 0 0 90 0
90 -45 0 -45 0 0 45 0 45 90 0 90 0 0 -45 0 -45 45 0 45 0 0 45 0 45 45 0 45
0 0 -45 0 -45 45 0 45 0 0 -45 0 -45 45 0 45 0 0 90 0 90 45 0 45 0 0 -90 0
-90 45 0 45 0 0 90 0 90 45 0 45 0 0 90 0 90 90 0 90 0 0 45 0 45 -45 0 -45 0
0 45 0 45 45 0 45 0 0 45 0 45 45 0 45 0 0 -45 0 -45 135 0 135 0 0 -45 0 -45
90 0 90 0 0 45 0 45 45 0 45 0 0 90 0 90 45 0 45 0 0 -45 0 -45 45 0 45 0 0
-45 0 -45 45 0 45 0 0 45 0 45 135 0 135 0 0 45 0 45 -135 0 -135 0 0 45 0 45
-45 0 -45 0 0 45 0 45 45 0 45 0 0 -45z m1620 -90 l0 -135 -135 0 -135 0 0
135 0 135 135 0 135 0 0 -135z m-4050 -270 l0 -45 -45 0 -45 0 0 45 0 45 45 0
45 0 0 -45z m-180 -135 l0 -90 45 0 45 0 0 -45 0 -45 45 0 45 0 0 -45 0 -45
-45 0 -45 0 0 45 0 45 -90 0 -90 0 0 135 0 135 45 0 45 0 0 -90z m0 -315 l0
-45 -90 0 -90 0 0 45 0 45 90 0 90 0 0 -45z m2250 -1260 l0 -135 -135 0 -135
0 0 135 0 135 135 0 135 0 0 -135z m1980 0 l0 -135 -135 0 -135 0 0 135 0 135
135 0 135 0 0 -135z m-900 -90 l0 -45 -45 0 -45 0 0 45 0 45 45 0 45 0 0 -45z
m-900 -90 l0 -45 -45 0 -45 0 0 45 0 45 45 0 45 0 0 -45z m1440 -90 l0 -45
-45 0 -45 0 0 45 0 45 45 0 45 0 0 -45z m-2790 -90 l0 -45 -45 0 -45 0 0 -45
0 -45 -45 0 -45 0 0 45 0 45 45 0 45 0 0 45 0 45 45 0 45 0 0 -45z m2790 -90
l0 -45 -90 0 -90 0 0 45 0 45 90 0 90 0 0 -45z"/>
<path d="M3960 4860 l0 -90 -45 0 -45 0 0 -90 0 -90 45 0 45 0 0 90 0 90 45 0
45 0 0 90 0 90 -45 0 -45 0 0 -90z"/>
<path d="M3150 4095 l0 -45 45 0 45 0 0 45 0 45 -45 0 -45 0 0 -45z"/>
<path d="M3780 3645 l0 -45 45 0 45 0 0 45 0 45 -45 0 -45 0 0 -45z"/>
<path d="M4500 3645 l0 -45 45 0 45 0 0 45 0 45 -45 0 -45 0 0 -45z"/>
<path d="M3330 3195 l0 -135 45 0 45 0 0 45 0 45 45 0 45 0 0 -45 0 -45 45 0
45 0 0 45 0 45 -45 0 -45 0 0 90 0 90 -90 0 -90 0 0 -135z"/>
<path d="M1440 4545 l0 -45 -45 0 -45 0 0 -45 0 -45 45 0 45 0 0 -90 0 -90 45
0 45 0 0 -45 0 -45 135 0 135 0 0 45 0 45 90 0 90 0 0 45 0 45 -45 0 -45 0 0
45 0 45 -45 0 -45 0 0 -90 0 -90 -135 0 -135 0 0 90 0 90 45 0 45 0 0 -45 0
-45 45 0 45 0 0 45 0 45 -45 0 -45 0 0 45 0 45 -45 0 -45 0 0 45 0 45 -45 0
-45 0 0 -45z m90 -90 l0 -45 -45 0 -45 0 0 45 0 45 45 0 45 0 0 -45z"/>
<path d="M990 4455 l0 -45 45 0 45 0 0 -45 0 -45 45 0 45 0 0 -45 0 -45 45 0
45 0 0 45 0 45 -45 0 -45 0 0 45 0 45 45 0 45 0 0 45 0 45 -45 0 -45 0 0 -45
0 -45 -45 0 -45 0 0 45 0 45 -45 0 -45 0 0 -45z"/>
<path d="M1260 4005 l0 -45 -45 0 -45 0 0 -45 0 -45 -90 0 -90 0 0 -90 0 -90
45 0 45 0 0 45 0 45 90 0 90 0 0 45 0 45 45 0 45 0 0 45 0 45 45 0 45 0 0 45
0 45 -90 0 -90 0 0 -45z"/>
<path d="M1620 4005 l0 -45 45 0 45 0 0 45 0 45 -45 0 -45 0 0 -45z"/>
<path d="M1170 3645 l0 -45 45 0 45 0 0 45 0 45 -45 0 -45 0 0 -45z"/>
<path d="M1080 3420 l0 -90 90 0 90 0 0 45 0 45 -45 0 -45 0 0 45 0 45 -45 0
-45 0 0 -90z"/>
<path d="M810 3330 l0 -90 -90 0 -90 0 0 -45 0 -45 90 0 90 0 0 45 0 45 45 0
45 0 0 45 0 45 45 0 45 0 0 45 0 45 -90 0 -90 0 0 -90z"/>
<path d="M1350 3375 l0 -45 45 0 45 0 0 45 0 45 -45 0 -45 0 0 -45z"/>
<path d="M1440 2790 l0 -180 45 0 45 0 0 135 0 135 45 0 45 0 0 45 0 45 -90 0
-90 0 0 -180z"/>
<path d="M2610 4635 l0 -45 45 0 45 0 0 45 0 45 -45 0 -45 0 0 -45z"/>
<path d="M1080 2835 l0 -45 45 0 45 0 0 45 0 45 -45 0 -45 0 0 -45z"/>
<path d="M630 2655 l0 -45 45 0 45 0 0 45 0 45 -45 0 -45 0 0 -45z"/>
<path d="M2610 2655 l0 -45 45 0 45 0 0 45 0 45 -45 0 -45 0 0 -45z"/>
<path d="M3510 2475 l0 -45 -45 0 -45 0 0 -45 0 -45 -45 0 -45 0 0 45 0 45
-90 0 -90 0 0 -45 0 -45 90 0 90 0 0 -45 0 -45 -90 0 -90 0 0 -45 0 -45 -90 0
-90 0 0 135 0 135 -45 0 -45 0 0 -135 0 -135 -45 0 -45 0 0 -45 0 -45 -45 0
-45 0 0 90 0 90 -45 0 -45 0 0 45 0 45 -45 0 -45 0 0 -45 0 -45 -45 0 -45 0 0
-90 0 -90 45 0 45 0 0 -45 0 -45 90 0 90 0 0 -45 0 -45 90 0 90 0 0 -45 0 -45
-45 0 -45 0 0 -45 0 -45 -45 0 -45 0 0 45 0 45 -45 0 -45 0 0 -45 0 -45 -45 0
-45 0 0 90 0 90 -45 0 -45 0 0 45 0 45 -90 0 -90 0 0 45 0 45 -45 0 -45 0 0
-45 0 -45 -45 0 -45 0 0 -45 0 -45 45 0 45 0 0 45 0 45 45 0 45 0 0 -135 0
-135 45 0 45 0 0 -45 0 -45 90 0 90 0 0 -45 0 -45 -135 0 -135 0 0 45 0 45
-90 0 -90 0 0 -45 0 -45 -45 0 -45 0 0 135 0 135 -45 0 -45 0 0 45 0 45 -45 0
-45 0 0 -45 0 -45 -180 0 -180 0 0 -45 0 -45 45 0 45 0 0 -45 0 -45 45 0 45 0
0 -45 0 -45 45 0 45 0 0 -45 0 -45 45 0 45 0 0 -45 0 -45 45 0 45 0 0 -90 0
-90 45 0 45 0 0 -45 0 -45 -45 0 -45 0 0 -90 0 -90 45 0 45 0 0 90 0 90 45 0
45 0 0 90 0 90 45 0 45 0 0 45 0 45 135 0 135 0 0 -45 0 -45 45 0 45 0 0 -45
0 -45 -45 0 -45 0 0 -45 0 -45 45 0 45 0 0 45 0 45 45 0 45 0 0 90 0 90 45 0
45 0 0 -90 0 -90 45 0 45 0 0 45 0 45 90 0 90 0 0 45 0 45 90 0 90 0 0 45 0
45 45 0 45 0 0 45 0 45 45 0 45 0 0 -90 0 -90 -45 0 -45 0 0 -45 0 -45 45 0
45 0 0 45 0 45 45 0 45 0 0 90 0 90 -45 0 -45 0 0 45 0 45 135 0 135 0 0 -45
0 -45 -45 0 -45 0 0 -45 0 -45 45 0 45 0 0 45 0 45 45 0 45 0 0 -45 0 -45 45
0 45 0 0 -45 0 -45 -45 0 -45 0 0 -45 0 -45 -45 0 -45 0 0 45 0 45 -45 0 -45
0 0 -45 0 -45 -45 0 -45 0 0 -90 0 -90 45 0 45 0 0 90 0 90 45 0 45 0 0 -45 0
-45 90 0 90 0 0 90 0 90 45 0 45 0 0 -45 0 -45 45 0 45 0 0 45 0 45 90 0 90 0
0 -135 0 -135 45 0 45 0 0 -135 0 -135 -45 0 -45 0 0 -45 0 -45 45 0 45 0 0
45 0 45 45 0 45 0 0 45 0 45 45 0 45 0 0 45 0 45 -45 0 -45 0 0 45 0 45 45 0
45 0 0 45 0 45 -45 0 -45 0 0 -45 0 -45 -45 0 -45 0 0 90 0 90 45 0 45 0 0 45
0 45 90 0 90 0 0 -45 0 -45 45 0 45 0 0 135 0 135 45 0 45 0 0 45 0 45 45 0
45 0 0 -90 0 -90 -45 0 -45 0 0 -90 0 -90 45 0 45 0 0 90 0 90 45 0 45 0 0
-45 0 -45 45 0 45 0 0 45 0 45 -45 0 -45 0 0 90 0 90 -45 0 -45 0 0 45 0 45
-135 0 -135 0 0 -45 0 -45 -45 0 -45 0 0 45 0 45 -45 0 -45 0 0 -45 0 -45 -45
0 -45 0 0 -90 0 -90 -45 0 -45 0 0 45 0 45 -45 0 -45 0 0 45 0 45 -45 0 -45 0
0 -135 0 -135 -45 0 -45 0 0 90 0 90 -90 0 -90 0 0 45 0 45 45 0 45 0 0 45 0
45 -45 0 -45 0 0 90 0 90 -90 0 -90 0 0 45 0 45 45 0 45 0 0 45 0 45 -45 0
-45 0 0 -45 0 -45 -45 0 -45 0 0 90 0 90 45 0 45 0 0 90 0 90 45 0 45 0 0 -90
0 -90 45 0 45 0 0 -45 0 -45 180 0 180 0 0 -45 0 -45 -45 0 -45 0 0 -90 0 -90
-45 0 -45 0 0 -45 0 -45 45 0 45 0 0 45 0 45 45 0 45 0 0 -45 0 -45 45 0 45 0
0 45 0 45 45 0 45 0 0 45 0 45 -45 0 -45 0 0 -45 0 -45 -45 0 -45 0 0 90 0 90
45 0 45 0 0 45 0 45 -45 0 -45 0 0 45 0 45 45 0 45 0 0 45 0 45 90 0 90 0 0
45 0 45 -90 0 -90 0 0 -45 0 -45 -90 0 -90 0 0 90 0 90 -45 0 -45 0 0 -45 0
-45 -45 0 -45 0 0 45 0 45 -90 0 -90 0 0 45 0 45 -45 0 -45 0 0 -45z m-90
-270 l0 -45 -45 0 -45 0 0 45 0 45 45 0 45 0 0 -45z m-810 -90 l0 -45 -45 0
-45 0 0 45 0 45 45 0 45 0 0 -45z m540 -135 l0 -90 45 0 45 0 0 45 0 45 90 0
90 0 0 -90 0 -90 45 0 45 0 0 -45 0 -45 -90 0 -90 0 0 -45 0 -45 -45 0 -45 0
0 -45 0 -45 -135 0 -135 0 0 45 0 45 135 0 135 0 0 45 0 45 -90 0 -90 0 0 45
0 45 -45 0 -45 0 0 45 0 45 -45 0 -45 0 0 45 0 45 90 0 90 0 0 45 0 45 45 0
45 0 0 -90z m-720 -180 l0 -90 -45 0 -45 0 0 90 0 90 45 0 45 0 0 -90z m-540
-135 l0 -135 45 0 45 0 0 -45 0 -45 45 0 45 0 0 -90 0 -90 -45 0 -45 0 0 90 0
90 -45 0 -45 0 0 45 0 45 -45 0 -45 0 0 45 0 45 -45 0 -45 0 0 45 0 45 45 0
45 0 0 45 0 45 45 0 45 0 0 -135z m810 0 l0 -45 45 0 45 0 0 -45 0 -45 45 0
45 0 0 -45 0 -45 45 0 45 0 0 -45 0 -45 -135 0 -135 0 0 45 0 45 -45 0 -45 0
0 -45 0 -45 -90 0 -90 0 0 45 0 45 45 0 45 0 0 45 0 45 45 0 45 0 0 90 0 90
45 0 45 0 0 -45z m990 0 l0 -45 -45 0 -45 0 0 45 0 45 45 0 45 0 0 -45z
m-1440 -180 l0 -45 -45 0 -45 0 0 45 0 45 45 0 45 0 0 -45z m2250 0 l0 -45
-45 0 -45 0 0 45 0 45 45 0 45 0 0 -45z m-180 -90 l0 -45 -45 0 -45 0 0 45 0
45 45 0 45 0 0 -45z"/>
<path d="M3060 1845 l0 -45 45 0 45 0 0 45 0 45 -45 0 -45 0 0 -45z"/>
<path d="M2700 1485 l0 -45 45 0 45 0 0 45 0 45 -45 0 -45 0 0 -45z"/>
<path d="M2250 2385 l0 -45 45 0 45 0 0 45 0 45 -45 0 -45 0 0 -45z"/>
<path d="M4590 2295 l0 -45 90 0 90 0 0 45 0 45 -90 0 -90 0 0 -45z"/>
<path d="M4950 2295 l0 -45 45 0 45 0 0 45 0 45 -45 0 -45 0 0 -45z"/>
<path d="M1530 1935 l0 -45 45 0 45 0 0 45 0 45 -45 0 -45 0 0 -45z"/>
<path d="M3780 1935 l0 -45 45 0 45 0 0 45 0 45 -45 0 -45 0 0 -45z"/>
<path d="M2070 1755 l0 -45 45 0 45 0 0 45 0 45 -45 0 -45 0 0 -45z"/>
<path d="M1260 1440 l0 -90 45 0 45 0 0 90 0 90 -45 0 -45 0 0 -90z"/>
<path d="M1440 1395 l0 -45 90 0 90 0 0 -45 0 -45 45 0 45 0 0 45 0 45 -45 0
-45 0 0 45 0 45 -90 0 -90 0 0 -45z"/>
<path d="M630 1215 l0 -45 45 0 45 0 0 45 0 45 -45 0 -45 0 0 -45z"/>
<path d="M810 1125 l0 -45 45 0 45 0 0 45 0 45 -45 0 -45 0 0 -45z"/>
<path d="M2160 1125 l0 -45 90 0 90 0 0 45 0 45 -90 0 -90 0 0 -45z"/>
<path d="M3870 1125 l0 -45 -45 0 -45 0 0 -45 0 -45 45 0 45 0 0 -45 0 -45
-45 0 -45 0 0 -45 0 -45 90 0 90 0 0 45 0 45 90 0 90 0 0 45 0 45 -45 0 -45 0
0 90 0 90 -90 0 -90 0 0 -45z"/>
<path d="M4590 2655 l0 -45 45 0 45 0 0 45 0 45 -45 0 -45 0 0 -45z"/>
<path d="M2610 675 l0 -45 45 0 45 0 0 45 0 45 -45 0 -45 0 0 -45z"/>
<path d="M4590 675 l0 -45 45 0 45 0 0 45 0 45 -45 0 -45 0 0 -45z"/>
<path d="M4590 4905 l0 -315 315 0 315 0 0 315 0 315 -315 0 -315 0 0 -315z
m540 0 l0 -225 -225 0 -225 0 0 225 0 225 225 0 225 0 0 -225z"/>
<path d="M4770 4905 l0 -135 135 0 135 0 0 135 0 135 -135 0 -135 0 0 -135z"/>
<path d="M810 4815 l0 -45 45 0 45 0 0 45 0 45 -45 0 -45 0 0 -45z"/>
<path d="M4410 4635 l0 -45 45 0 45 0 0 45 0 45 -45 0 -45 0 0 -45z"/>
<path d="M180 3465 l0 -45 45 0 45 0 0 45 0 45 -45 0 -45 0 0 -45z"/>
<path d="M4860 3105 l0 -45 45 0 45 0 0 45 0 45 -45 0 -45 0 0 -45z"/>
<path d="M90 1665 l0 -45 45 0 45 0 0 45 0 45 -45 0 -45 0 0 -45z"/>
<path d="M3060 855 l0 -45 45 0 45 0 0 -90 0 -90 45 0 45 0 0 90 0 90 -45 0
-45 0 0 45 0 45 -45 0 -45 0 0 -45z"/>
<path d="M90 405 l0 -315 315 0 315 0 0 315 0 315 -315 0 -315 0 0 -315z m540
0 l0 -225 -225 0 -225 0 0 225 0 225 225 0 225 0 0 -225z"/>
<path d="M270 405 l0 -135 135 0 135 0 0 135 0 135 -135 0 -135 0 0 -135z"/>
<path d="M3240 495 l0 -45 45 0 45 0 0 45 0 45 -45 0 -45 0 0 -45z"/>
<path d="M2430 225 l0 -45 45 0 45 0 0 45 0 45 -45 0 -45 0 0 -45z"/>
<path d="M5130 225 l0 -45 45 0 45 0 0 45 0 45 -45 0 -45 0 0 -45z"/>
<path d="M4950 135 l0 -45 45 0 45 0 0 45 0 45 -45 0 -45 0 0 -45z"/>
</g>
</svg>
