<?xml version="1.0" standalone="no"?>
<!DOCTYPE svg PUBLIC "-//W3C//DTD SVG 20010904//EN"
 "http://www.w3.org/TR/2001/REC-SVG-20010904/DTD/svg10.dtd">
<svg version="1.0" xmlns="http://www.w3.org/2000/svg"
 width="639.000000pt" height="639.000000pt" viewBox="0 0 639.000000 639.000000"
 preserveAspectRatio="xMidYMid meet">

<g transform="translate(0.000000,639.000000) scale(0.100000,-0.100000)"
fill="#000000" stroke="none">
<path d="M90 5985 l0 -315 315 0 315 0 0 315 0 315 -315 0 -315 0 0 -315z
m540 0 l0 -225 -225 0 -225 0 0 225 0 225 225 0 225 0 0 -225z"/>
<path d="M270 5985 l0 -135 135 0 135 0 0 135 0 135 -135 0 -135 0 0 -135z"/>
<path d="M900 6210 l0 -90 -45 0 -45 0 0 -90 0 -90 45 0 45 0 0 45 0 45 180 0
180 0 0 -135 0 -135 -45 0 -45 0 0 -45 0 -45 -45 0 -45 0 0 90 0 90 -45 0 -45
0 0 -135 0 -135 -45 0 -45 0 0 -45 0 -45 -45 0 -45 0 0 45 0 45 -90 0 -90 0 0
-45 0 -45 -45 0 -45 0 0 45 0 45 -90 0 -90 0 0 -90 0 -90 -45 0 -45 0 0 -45 0
-45 90 0 90 0 0 -45 0 -45 -135 0 -135 0 0 -45 0 -45 -45 0 -45 0 0 -90 0 -90
45 0 45 0 0 45 0 45 45 0 45 0 0 -45 0 -45 45 0 45 0 0 -45 0 -45 -135 0 -135
0 0 -180 0 -180 45 0 45 0 0 -45 0 -45 90 0 90 0 0 -135 0 -135 -90 0 -90 0 0
45 0 45 45 0 45 0 0 45 0 45 -90 0 -90 0 0 -135 0 -135 45 0 45 0 0 -45 0 -45
45 0 45 0 0 45 0 45 45 0 45 0 0 -90 0 -90 -135 0 -135 0 0 -90 0 -90 90 0 90
0 0 45 0 45 45 0 45 0 0 45 0 45 45 0 45 0 0 180 0 180 45 0 45 0 0 45 0 45
45 0 45 0 0 -45 0 -45 45 0 45 0 0 -45 0 -45 -90 0 -90 0 0 -45 0 -45 90 0 90
0 0 -45 0 -45 -90 0 -90 0 0 -45 0 -45 90 0 90 0 0 -45 0 -45 -90 0 -90 0 0
-45 0 -45 -90 0 -90 0 0 -45 0 -45 -90 0 -90 0 0 -45 0 -45 -45 0 -45 0 0
-135 0 -135 45 0 45 0 0 90 0 90 45 0 45 0 0 -90 0 -90 45 0 45 0 0 -45 0 -45
-90 0 -90 0 0 -45 0 -45 135 0 135 0 0 -90 0 -90 45 0 45 0 0 -90 0 -90 -45 0
-45 0 0 45 0 45 -90 0 -90 0 0 45 0 45 45 0 45 0 0 45 0 45 -45 0 -45 0 0 -45
0 -45 -45 0 -45 0 0 -45 0 -45 -45 0 -45 0 0 -135 0 -135 45 0 45 0 0 45 0 45
45 0 45 0 0 -135 0 -135 45 0 45 0 0 90 0 90 45 0 45 0 0 -135 0 -135 45 0 45
0 0 -45 0 -45 45 0 45 0 0 -45 0 -45 45 0 45 0 0 45 0 45 45 0 45 0 0 -90 0
-90 -90 0 -90 0 0 -45 0 -45 -45 0 -45 0 0 45 0 45 -45 0 -45 0 0 90 0 90 -45
0 -45 0 0 45 0 45 -90 0 -90 0 0 90 0 90 -45 0 -45 0 0 -180 0 -180 45 0 45 0
0 -45 0 -45 -45 0 -45 0 0 -45 0 -45 45 0 45 0 0 -45 0 -45 -45 0 -45 0 0 -90
0 -90 45 0 45 0 0 -45 0 -45 -45 0 -45 0 0 -90 0 -90 90 0 90 0 0 45 0 45 -45
0 -45 0 0 45 0 45 90 0 90 0 0 90 0 90 45 0 45 0 0 -135 0 -135 -45 0 -45 0 0
-90 0 -90 -45 0 -45 0 0 -45 0 -45 -45 0 -45 0 0 45 0 45 -45 0 -45 0 0 -45 0
-45 45 0 45 0 0 -45 0 -45 -45 0 -45 0 0 -135 0 -135 45 0 45 0 0 135 0 135
45 0 45 0 0 -45 0 -45 45 0 45 0 0 45 0 45 45 0 45 0 0 -45 0 -45 180 0 180 0
0 -45 0 -45 -90 0 -90 0 0 -45 0 -45 90 0 90 0 0 -90 0 -90 45 0 45 0 0 -45 0
-45 -45 0 -45 0 0 -90 0 -90 45 0 45 0 0 90 0 90 45 0 45 0 0 45 0 45 90 0 90
0 0 -45 0 -45 45 0 45 0 0 -45 0 -45 -90 0 -90 0 0 -45 0 -45 90 0 90 0 0 45
0 45 45 0 45 0 0 -90 0 -90 -45 0 -45 0 0 -90 0 -90 45 0 45 0 0 90 0 90 45 0
45 0 0 90 0 90 45 0 45 0 0 -45 0 -45 135 0 135 0 0 45 0 45 -45 0 -45 0 0 45
0 45 90 0 90 0 0 45 0 45 -90 0 -90 0 0 90 0 90 135 0 135 0 0 -45 0 -45 45 0
45 0 0 -45 0 -45 -45 0 -45 0 0 -45 0 -45 45 0 45 0 0 -90 0 -90 135 0 135 0
0 45 0 45 45 0 45 0 0 45 0 45 45 0 45 0 0 45 0 45 45 0 45 0 0 -90 0 -90 -45
0 -45 0 0 -90 0 -90 -45 0 -45 0 0 -45 0 -45 90 0 90 0 0 -45 0 -45 45 0 45 0
0 90 0 90 45 0 45 0 0 -90 0 -90 135 0 135 0 0 45 0 45 45 0 45 0 0 -45 0 -45
45 0 45 0 0 45 0 45 -45 0 -45 0 0 90 0 90 45 0 45 0 0 -45 0 -45 45 0 45 0 0
-45 0 -45 45 0 45 0 0 -45 0 -45 180 0 180 0 0 45 0 45 45 0 45 0 0 -45 0 -45
45 0 45 0 0 45 0 45 -45 0 -45 0 0 45 0 45 -45 0 -45 0 0 45 0 45 45 0 45 0 0
135 0 135 45 0 45 0 0 135 0 135 45 0 45 0 0 -135 0 -135 45 0 45 0 0 -45 0
-45 -45 0 -45 0 0 -45 0 -45 45 0 45 0 0 -45 0 -45 -90 0 -90 0 0 -45 0 -45
90 0 90 0 0 -45 0 -45 -45 0 -45 0 0 -45 0 -45 45 0 45 0 0 45 0 45 90 0 90 0
0 -45 0 -45 45 0 45 0 0 45 0 45 -45 0 -45 0 0 45 0 45 90 0 90 0 0 -90 0 -90
45 0 45 0 0 45 0 45 45 0 45 0 0 -45 0 -45 45 0 45 0 0 45 0 45 45 0 45 0 0
-45 0 -45 180 0 180 0 0 45 0 45 -45 0 -45 0 0 45 0 45 45 0 45 0 0 45 0 45
45 0 45 0 0 90 0 90 45 0 45 0 0 -45 0 -45 45 0 45 0 0 -45 0 -45 45 0 45 0 0
45 0 45 45 0 45 0 0 -90 0 -90 -180 0 -180 0 0 -90 0 -90 45 0 45 0 0 45 0 45
135 0 135 0 0 45 0 45 45 0 45 0 0 -45 0 -45 45 0 45 0 0 -45 0 -45 45 0 45 0
0 45 0 45 45 0 45 0 0 -45 0 -45 90 0 90 0 0 90 0 90 45 0 45 0 0 45 0 45 -90
0 -90 0 0 -45 0 -45 -45 0 -45 0 0 45 0 45 -45 0 -45 0 0 45 0 45 90 0 90 0 0
90 0 90 45 0 45 0 0 -90 0 -90 45 0 45 0 0 90 0 90 -45 0 -45 0 0 90 0 90 -45
0 -45 0 0 90 0 90 90 0 90 0 0 90 0 90 -45 0 -45 0 0 -45 0 -45 -45 0 -45 0 0
45 0 45 -45 0 -45 0 0 45 0 45 -45 0 -45 0 0 -45 0 -45 -180 0 -180 0 0 45 0
45 45 0 45 0 0 90 0 90 -45 0 -45 0 0 90 0 90 -45 0 -45 0 0 135 0 135 45 0
45 0 0 90 0 90 45 0 45 0 0 -90 0 -90 90 0 90 0 0 -45 0 -45 -45 0 -45 0 0
-45 0 -45 45 0 45 0 0 -90 0 -90 -45 0 -45 0 0 45 0 45 -45 0 -45 0 0 -45 0
-45 45 0 45 0 0 -45 0 -45 45 0 45 0 0 45 0 45 45 0 45 0 0 135 0 135 45 0 45
0 0 -45 0 -45 45 0 45 0 0 45 0 45 -45 0 -45 0 0 45 0 45 -90 0 -90 0 0 45 0
45 90 0 90 0 0 45 0 45 45 0 45 0 0 45 0 45 -45 0 -45 0 0 45 0 45 90 0 90 0
0 -90 0 -90 45 0 45 0 0 180 0 180 -45 0 -45 0 0 135 0 135 45 0 45 0 0 90 0
90 -45 0 -45 0 0 45 0 45 45 0 45 0 0 45 0 45 -45 0 -45 0 0 45 0 45 -45 0
-45 0 0 45 0 45 45 0 45 0 0 90 0 90 45 0 45 0 0 45 0 45 -45 0 -45 0 0 45 0
45 45 0 45 0 0 180 0 180 -45 0 -45 0 0 45 0 45 45 0 45 0 0 45 0 45 -90 0
-90 0 0 45 0 45 90 0 90 0 0 90 0 90 -45 0 -45 0 0 -45 0 -45 -45 0 -45 0 0
90 0 90 45 0 45 0 0 45 0 45 45 0 45 0 0 45 0 45 -45 0 -45 0 0 90 0 90 45 0
45 0 0 45 0 45 -45 0 -45 0 0 90 0 90 -90 0 -90 0 0 45 0 45 -45 0 -45 0 0
-45 0 -45 45 0 45 0 0 -45 0 -45 -45 0 -45 0 0 -45 0 -45 -45 0 -45 0 0 180 0
180 45 0 45 0 0 45 0 45 45 0 45 0 0 45 0 45 45 0 45 0 0 45 0 45 -90 0 -90 0
0 -45 0 -45 -45 0 -45 0 0 -45 0 -45 -135 0 -135 0 0 90 0 90 -45 0 -45 0 0
-90 0 -90 -45 0 -45 0 0 -45 0 -45 -90 0 -90 0 0 135 0 135 45 0 45 0 0 -45 0
-45 45 0 45 0 0 45 0 45 -45 0 -45 0 0 45 0 45 45 0 45 0 0 135 0 135 -45 0
-45 0 0 45 0 45 45 0 45 0 0 45 0 45 -45 0 -45 0 0 45 0 45 135 0 135 0 0 45
0 45 -450 0 -450 0 0 -45 0 -45 -45 0 -45 0 0 45 0 45 -45 0 -45 0 0 -45 0
-45 -45 0 -45 0 0 45 0 45 -225 0 -225 0 0 -45 0 -45 -90 0 -90 0 0 45 0 45
-45 0 -45 0 0 -45 0 -45 -135 0 -135 0 0 45 0 45 -45 0 -45 0 0 -45 0 -45 -45
0 -45 0 0 -45 0 -45 -45 0 -45 0 0 45 0 45 -45 0 -45 0 0 45 0 45 -135 0 -135
0 0 -45 0 -45 135 0 135 0 0 -45 0 -45 45 0 45 0 0 -45 0 -45 -90 0 -90 0 0
45 0 45 -135 0 -135 0 0 90 0 90 -45 0 -45 0 0 -90 0 -90 45 0 45 0 0 -45 0
-45 -45 0 -45 0 0 -45 0 -45 -45 0 -45 0 0 45 0 45 -90 0 -90 0 0 45 0 45 -45
0 -45 0 0 45 0 45 90 0 90 0 0 45 0 45 -135 0 -135 0 0 -90 0 -90 -45 0 -45 0
0 -45 0 -45 -45 0 -45 0 0 45 0 45 -270 0 -270 0 0 -90 0 -90 -45 0 -45 0 0
45 0 45 -45 0 -45 0 0 45 0 45 45 0 45 0 0 45 0 45 -45 0 -45 0 0 45 0 45 -45
0 -45 0 0 -45 0 -45 -45 0 -45 0 0 45 0 45 -90 0 -90 0 0 -90z m2520 -45 l0
-45 45 0 45 0 0 -45 0 -45 45 0 45 0 0 -45 0 -45 90 0 90 0 0 45 0 45 -45 0
-45 0 0 90 0 90 45 0 45 0 0 -45 0 -45 90 0 90 0 0 45 0 45 45 0 45 0 0 -135
0 -135 -45 0 -45 0 0 -45 0 -45 45 0 45 0 0 -135 0 -135 135 0 135 0 0 135 0
135 -45 0 -45 0 0 -90 0 -90 -45 0 -45 0 0 135 0 135 90 0 90 0 0 45 0 45 -45
0 -45 0 0 45 0 45 -45 0 -45 0 0 45 0 45 90 0 90 0 0 -45 0 -45 45 0 45 0 0
-45 0 -45 45 0 45 0 0 45 0 45 90 0 90 0 0 45 0 45 45 0 45 0 0 -45 0 -45 -45
0 -45 0 0 -45 0 -45 -90 0 -90 0 0 -45 0 -45 45 0 45 0 0 -45 0 -45 -45 0 -45
0 0 -45 0 -45 45 0 45 0 0 -45 0 -45 -45 0 -45 0 0 45 0 45 -45 0 -45 0 0 -90
0 -90 135 0 135 0 0 -45 0 -45 -45 0 -45 0 0 -45 0 -45 -45 0 -45 0 0 -45 0
-45 -45 0 -45 0 0 45 0 45 -45 0 -45 0 0 -90 0 -90 45 0 45 0 0 -45 0 -45 -45
0 -45 0 0 45 0 45 -45 0 -45 0 0 90 0 90 45 0 45 0 0 45 0 45 -135 0 -135 0 0
-45 0 -45 45 0 45 0 0 -135 0 -135 -45 0 -45 0 0 45 0 45 -45 0 -45 0 0 -45 0
-45 -45 0 -45 0 0 -90 0 -90 -45 0 -45 0 0 90 0 90 -45 0 -45 0 0 -45 0 -45
-45 0 -45 0 0 -45 0 -45 45 0 45 0 0 -45 0 -45 45 0 45 0 0 -45 0 -45 45 0 45
0 0 -45 0 -45 45 0 45 0 0 -45 0 -45 45 0 45 0 0 -135 0 -135 45 0 45 0 0 -45
0 -45 -45 0 -45 0 0 -180 0 -180 45 0 45 0 0 -45 0 -45 45 0 45 0 0 90 0 90
-45 0 -45 0 0 90 0 90 45 0 45 0 0 180 0 180 90 0 90 0 0 90 0 90 -45 0 -45 0
0 -45 0 -45 -90 0 -90 0 0 45 0 45 -45 0 -45 0 0 45 0 45 -45 0 -45 0 0 45 0
45 45 0 45 0 0 45 0 45 -45 0 -45 0 0 45 0 45 45 0 45 0 0 -45 0 -45 135 0
135 0 0 45 0 45 45 0 45 0 0 -45 0 -45 -45 0 -45 0 0 -45 0 -45 -90 0 -90 0 0
-90 0 -90 90 0 90 0 0 45 0 45 45 0 45 0 0 -45 0 -45 45 0 45 0 0 90 0 90 45
0 45 0 0 90 0 90 -45 0 -45 0 0 45 0 45 45 0 45 0 0 -45 0 -45 45 0 45 0 0 45
0 45 45 0 45 0 0 45 0 45 -90 0 -90 0 0 45 0 45 90 0 90 0 0 -45 0 -45 90 0
90 0 0 45 0 45 45 0 45 0 0 -45 0 -45 -45 0 -45 0 0 -45 0 -45 -45 0 -45 0 0
-45 0 -45 -45 0 -45 0 0 -45 0 -45 45 0 45 0 0 -90 0 -90 45 0 45 0 0 90 0 90
90 0 90 0 0 45 0 45 -45 0 -45 0 0 45 0 45 45 0 45 0 0 45 0 45 90 0 90 0 0
-90 0 -90 135 0 135 0 0 -45 0 -45 -180 0 -180 0 0 -90 0 -90 45 0 45 0 0 45
0 45 90 0 90 0 0 -45 0 -45 90 0 90 0 0 45 0 45 45 0 45 0 0 45 0 45 45 0 45
0 0 -90 0 -90 -90 0 -90 0 0 -45 0 -45 90 0 90 0 0 -45 0 -45 45 0 45 0 0 -90
0 -90 45 0 45 0 0 -45 0 -45 -45 0 -45 0 0 45 0 45 -90 0 -90 0 0 -45 0 -45
45 0 45 0 0 -45 0 -45 90 0 90 0 0 -45 0 -45 -45 0 -45 0 0 -90 0 -90 90 0 90
0 0 -45 0 -45 45 0 45 0 0 -90 0 -90 -45 0 -45 0 0 45 0 45 -45 0 -45 0 0 -90
0 -90 45 0 45 0 0 -45 0 -45 45 0 45 0 0 -45 0 -45 -45 0 -45 0 0 -45 0 -45
-45 0 -45 0 0 -45 0 -45 -45 0 -45 0 0 90 0 90 -45 0 -45 0 0 45 0 45 90 0 90
0 0 45 0 45 -45 0 -45 0 0 90 0 90 45 0 45 0 0 45 0 45 -45 0 -45 0 0 45 0 45
-45 0 -45 0 0 -45 0 -45 -45 0 -45 0 0 45 0 45 45 0 45 0 0 135 0 135 -135 0
-135 0 0 90 0 90 -45 0 -45 0 0 45 0 45 -45 0 -45 0 0 45 0 45 45 0 45 0 0
-45 0 -45 45 0 45 0 0 90 0 90 -225 0 -225 0 0 -45 0 -45 90 0 90 0 0 -45 0
-45 -45 0 -45 0 0 -45 0 -45 45 0 45 0 0 -90 0 -90 45 0 45 0 0 45 0 45 45 0
45 0 0 -45 0 -45 -45 0 -45 0 0 -90 0 -90 -45 0 -45 0 0 -90 0 -90 90 0 90 0
0 -45 0 -45 -45 0 -45 0 0 -45 0 -45 -45 0 -45 0 0 -45 0 -45 -90 0 -90 0 0
45 0 45 -90 0 -90 0 0 -45 0 -45 -45 0 -45 0 0 45 0 45 -45 0 -45 0 0 -90 0
-90 90 0 90 0 0 -45 0 -45 -90 0 -90 0 0 -45 0 -45 45 0 45 0 0 -90 0 -90 90
0 90 0 0 45 0 45 45 0 45 0 0 -90 0 -90 45 0 45 0 0 45 0 45 45 0 45 0 0 45 0
45 -45 0 -45 0 0 45 0 45 45 0 45 0 0 -45 0 -45 90 0 90 0 0 -135 0 -135 90 0
90 0 0 -45 0 -45 45 0 45 0 0 -45 0 -45 45 0 45 0 0 -45 0 -45 45 0 45 0 0 45
0 45 90 0 90 0 0 45 0 45 -45 0 -45 0 0 45 0 45 -45 0 -45 0 0 90 0 90 90 0
90 0 0 -45 0 -45 -45 0 -45 0 0 -45 0 -45 45 0 45 0 0 -45 0 -45 45 0 45 0 0
-90 0 -90 -45 0 -45 0 0 -90 0 -90 -45 0 -45 0 0 -90 0 -90 -90 0 -90 0 0 90
0 90 -45 0 -45 0 0 90 0 90 -45 0 -45 0 0 -90 0 -90 -90 0 -90 0 0 -90 0 -90
-45 0 -45 0 0 -90 0 -90 45 0 45 0 0 -90 0 -90 -45 0 -45 0 0 -135 0 -135 -90
0 -90 0 0 -45 0 -45 -45 0 -45 0 0 -45 0 -45 90 0 90 0 0 -45 0 -45 -90 0 -90
0 0 -45 0 -45 -45 0 -45 0 0 -45 0 -45 90 0 90 0 0 45 0 45 90 0 90 0 0 90 0
90 45 0 45 0 0 -45 0 -45 45 0 45 0 0 -45 0 -45 -90 0 -90 0 0 -45 0 -45 -90
0 -90 0 0 -45 0 -45 180 0 180 0 0 -45 0 -45 -45 0 -45 0 0 -45 0 -45 90 0 90
0 0 45 0 45 90 0 90 0 0 -45 0 -45 -45 0 -45 0 0 -45 0 -45 -135 0 -135 0 0
-45 0 -45 -90 0 -90 0 0 -45 0 -45 90 0 90 0 0 -90 0 -90 -45 0 -45 0 0 45 0
45 -45 0 -45 0 0 -45 0 -45 -45 0 -45 0 0 -90 0 -90 -45 0 -45 0 0 -45 0 -45
-45 0 -45 0 0 -45 0 -45 -90 0 -90 0 0 45 0 45 45 0 45 0 0 45 0 45 90 0 90 0
0 90 0 90 -45 0 -45 0 0 45 0 45 45 0 45 0 0 -45 0 -45 45 0 45 0 0 135 0 135
-45 0 -45 0 0 -45 0 -45 -180 0 -180 0 0 45 0 45 45 0 45 0 0 90 0 90 -90 0
-90 0 0 45 0 45 90 0 90 0 0 45 0 45 -45 0 -45 0 0 135 0 135 -90 0 -90 0 0
-45 0 -45 45 0 45 0 0 -90 0 -90 -90 0 -90 0 0 45 0 45 -90 0 -90 0 0 -45 0
-45 45 0 45 0 0 -45 0 -45 90 0 90 0 0 -45 0 -45 -90 0 -90 0 0 -45 0 -45 -45
0 -45 0 0 -45 0 -45 45 0 45 0 0 -90 0 -90 -45 0 -45 0 0 -45 0 -45 -45 0 -45
0 0 45 0 45 45 0 45 0 0 90 0 90 -45 0 -45 0 0 45 0 45 -45 0 -45 0 0 45 0 45
45 0 45 0 0 45 0 45 45 0 45 0 0 45 0 45 -135 0 -135 0 0 -90 0 -90 -45 0 -45
0 0 -45 0 -45 -135 0 -135 0 0 -45 0 -45 -45 0 -45 0 0 -45 0 -45 45 0 45 0 0
-45 0 -45 -45 0 -45 0 0 -45 0 -45 45 0 45 0 0 -90 0 -90 -45 0 -45 0 0 -45 0
-45 -45 0 -45 0 0 -45 0 -45 -45 0 -45 0 0 45 0 45 -45 0 -45 0 0 45 0 45 -45
0 -45 0 0 45 0 45 135 0 135 0 0 45 0 45 -45 0 -45 0 0 90 0 90 45 0 45 0 0
45 0 45 -45 0 -45 0 0 45 0 45 -45 0 -45 0 0 45 0 45 -45 0 -45 0 0 -45 0 -45
-90 0 -90 0 0 45 0 45 -90 0 -90 0 0 -45 0 -45 -45 0 -45 0 0 -45 0 -45 -45 0
-45 0 0 -90 0 -90 -45 0 -45 0 0 90 0 90 45 0 45 0 0 45 0 45 -45 0 -45 0 0
45 0 45 45 0 45 0 0 45 0 45 -45 0 -45 0 0 135 0 135 -45 0 -45 0 0 -45 0 -45
-45 0 -45 0 0 -45 0 -45 45 0 45 0 0 -45 0 -45 -45 0 -45 0 0 -45 0 -45 45 0
45 0 0 -45 0 -45 -90 0 -90 0 0 -45 0 -45 -45 0 -45 0 0 45 0 45 -135 0 -135
0 0 45 0 45 -45 0 -45 0 0 -45 0 -45 -45 0 -45 0 0 90 0 90 -45 0 -45 0 0 -45
0 -45 -90 0 -90 0 0 45 0 45 90 0 90 0 0 45 0 45 -45 0 -45 0 0 45 0 45 45 0
45 0 0 45 0 45 -45 0 -45 0 0 45 0 45 45 0 45 0 0 135 0 135 90 0 90 0 0 45 0
45 45 0 45 0 0 -45 0 -45 -45 0 -45 0 0 -45 0 -45 -45 0 -45 0 0 -45 0 -45 90
0 90 0 0 45 0 45 45 0 45 0 0 45 0 45 45 0 45 0 0 90 0 90 -180 0 -180 0 0
-45 0 -45 -45 0 -45 0 0 45 0 45 -45 0 -45 0 0 45 0 45 45 0 45 0 0 45 0 45
-90 0 -90 0 0 -135 0 -135 45 0 45 0 0 -45 0 -45 -45 0 -45 0 0 -45 0 -45 45
0 45 0 0 -45 0 -45 -45 0 -45 0 0 -180 0 -180 -45 0 -45 0 0 135 0 135 -45 0
-45 0 0 -135 0 -135 -45 0 -45 0 0 -45 0 -45 90 0 90 0 0 -45 0 -45 -90 0 -90
0 0 -45 0 -45 45 0 45 0 0 -90 0 -90 -45 0 -45 0 0 -45 0 -45 -45 0 -45 0 0
45 0 45 45 0 45 0 0 45 0 45 -45 0 -45 0 0 45 0 45 -45 0 -45 0 0 -90 0 -90
-45 0 -45 0 0 -45 0 -45 -45 0 -45 0 0 45 0 45 45 0 45 0 0 45 0 45 -45 0 -45
0 0 45 0 45 45 0 45 0 0 45 0 45 -45 0 -45 0 0 45 0 45 -45 0 -45 0 0 45 0 45
-45 0 -45 0 0 -45 0 -45 -135 0 -135 0 0 45 0 45 -45 0 -45 0 0 45 0 45 45 0
45 0 0 -45 0 -45 135 0 135 0 0 45 0 45 -45 0 -45 0 0 45 0 45 45 0 45 0 0
-45 0 -45 180 0 180 0 0 135 0 135 45 0 45 0 0 -45 0 -45 45 0 45 0 0 90 0 90
-135 0 -135 0 0 -90 0 -90 -45 0 -45 0 0 -45 0 -45 -45 0 -45 0 0 135 0 135
-90 0 -90 0 0 -45 0 -45 45 0 45 0 0 -45 0 -45 -90 0 -90 0 0 -45 0 -45 -45 0
-45 0 0 45 0 45 45 0 45 0 0 90 0 90 45 0 45 0 0 45 0 45 45 0 45 0 0 45 0 45
-45 0 -45 0 0 45 0 45 135 0 135 0 0 -45 0 -45 -45 0 -45 0 0 -45 0 -45 45 0
45 0 0 -45 0 -45 45 0 45 0 0 45 0 45 45 0 45 0 0 135 0 135 -45 0 -45 0 0 45
0 45 90 0 90 0 0 -180 0 -180 90 0 90 0 0 -90 0 -90 45 0 45 0 0 90 0 90 45 0
45 0 0 45 0 45 -45 0 -45 0 0 135 0 135 -90 0 -90 0 0 45 0 45 45 0 45 0 0 45
0 45 45 0 45 0 0 45 0 45 -180 0 -180 0 0 45 0 45 -45 0 -45 0 0 -45 0 -45
-45 0 -45 0 0 -90 0 -90 -45 0 -45 0 0 90 0 90 45 0 45 0 0 45 0 45 -45 0 -45
0 0 45 0 45 -90 0 -90 0 0 -45 0 -45 45 0 45 0 0 -45 0 -45 -45 0 -45 0 0 -45
0 -45 45 0 45 0 0 -45 0 -45 -45 0 -45 0 0 45 0 45 -45 0 -45 0 0 45 0 45 45
0 45 0 0 45 0 45 -45 0 -45 0 0 90 0 90 90 0 90 0 0 45 0 45 -45 0 -45 0 0 45
0 45 45 0 45 0 0 45 0 45 -90 0 -90 0 0 45 0 45 90 0 90 0 0 -45 0 -45 90 0
90 0 0 -45 0 -45 -90 0 -90 0 0 -45 0 -45 135 0 135 0 0 45 0 45 45 0 45 0 0
-45 0 -45 45 0 45 0 0 45 0 45 90 0 90 0 0 -90 0 -90 90 0 90 0 0 45 0 45 -45
0 -45 0 0 45 0 45 45 0 45 0 0 180 0 180 -90 0 -90 0 0 135 0 135 -45 0 -45 0
0 -135 0 -135 -45 0 -45 0 0 45 0 45 -45 0 -45 0 0 45 0 45 -45 0 -45 0 0 45
0 45 -180 0 -180 0 0 45 0 45 45 0 45 0 0 45 0 45 -90 0 -90 0 0 45 0 45 180
0 180 0 0 45 0 45 -45 0 -45 0 0 45 0 45 45 0 45 0 0 45 0 45 45 0 45 0 0 45
0 45 45 0 45 0 0 45 0 45 -135 0 -135 0 0 90 0 90 90 0 90 0 0 45 0 45 -135 0
-135 0 0 -45 0 -45 -45 0 -45 0 0 45 0 45 45 0 45 0 0 45 0 45 -90 0 -90 0 0
-45 0 -45 -45 0 -45 0 0 90 0 90 -90 0 -90 0 0 90 0 90 45 0 45 0 0 45 0 45
45 0 45 0 0 90 0 90 -45 0 -45 0 0 45 0 45 45 0 45 0 0 -45 0 -45 90 0 90 0 0
45 0 45 90 0 90 0 0 45 0 45 -135 0 -135 0 0 45 0 45 -45 0 -45 0 0 90 0 90
45 0 45 0 0 -45 0 -45 45 0 45 0 0 45 0 45 90 0 90 0 0 -45 0 -45 90 0 90 0 0
90 0 90 45 0 45 0 0 -90 0 -90 90 0 90 0 0 90 0 90 -45 0 -45 0 0 45 0 45 45
0 45 0 0 45 0 45 45 0 45 0 0 45 0 45 45 0 45 0 0 -45 0 -45 45 0 45 0 0 90 0
90 45 0 45 0 0 -45 0 -45 45 0 45 0 0 90 0 90 135 0 135 0 0 -135 0 -135 45 0
45 0 0 -45 0 -45 -45 0 -45 0 0 -45 0 -45 135 0 135 0 0 -45 0 -45 45 0 45 0
0 45 0 45 90 0 90 0 0 -45 0 -45 45 0 45 0 0 -45 0 -45 -90 0 -90 0 0 -45 0
-45 45 0 45 0 0 -45 0 -45 -45 0 -45 0 0 45 0 45 -45 0 -45 0 0 -135 0 -135
-45 0 -45 0 0 -45 0 -45 45 0 45 0 0 -45 0 -45 45 0 45 0 0 -45 0 -45 45 0 45
0 0 90 0 90 -45 0 -45 0 0 90 0 90 45 0 45 0 0 -90 0 -90 45 0 45 0 0 180 0
180 45 0 45 0 0 90 0 90 135 0 135 0 0 -45 0 -45 -90 0 -90 0 0 -45 0 -45 -45
0 -45 0 0 -180 0 -180 45 0 45 0 0 45 0 45 45 0 45 0 0 -45 0 -45 -45 0 -45 0
0 -45 0 -45 45 0 45 0 0 -45 0 -45 45 0 45 0 0 45 0 45 45 0 45 0 0 45 0 45
-45 0 -45 0 0 45 0 45 45 0 45 0 0 45 0 45 -135 0 -135 0 0 45 0 45 45 0 45 0
0 45 0 45 45 0 45 0 0 -45 0 -45 45 0 45 0 0 -45 0 -45 45 0 45 0 0 135 0 135
-45 0 -45 0 0 45 0 45 180 0 180 0 0 -45 0 -45 45 0 45 0 0 -45 0 -45 45 0 45
0 0 90 0 90 45 0 45 0 0 -45 0 -45 45 0 45 0 0 45 0 45 45 0 45 0 0 90 0 90
-45 0 -45 0 0 -45 0 -45 -90 0 -90 0 0 90 0 90 45 0 45 0 0 45 0 45 -90 0 -90
0 0 -135 0 -135 -45 0 -45 0 0 180 0 180 45 0 45 0 0 45 0 45 -45 0 -45 0 0
45 0 45 -45 0 -45 0 0 -90 0 -90 -45 0 -45 0 0 90 0 90 45 0 45 0 0 45 0 45
45 0 45 0 0 -45z m1620 0 l0 -45 -45 0 -45 0 0 -45 0 -45 -45 0 -45 0 0 -90 0
-90 45 0 45 0 0 45 0 45 45 0 45 0 0 45 0 45 45 0 45 0 0 90 0 90 45 0 45 0 0
-45 0 -45 45 0 45 0 0 -45 0 -45 -45 0 -45 0 0 -45 0 -45 -90 0 -90 0 0 -45 0
-45 -45 0 -45 0 0 -90 0 -90 45 0 45 0 0 45 0 45 45 0 45 0 0 45 0 45 45 0 45
0 0 -45 0 -45 45 0 45 0 0 -45 0 -45 -45 0 -45 0 0 -45 0 -45 -45 0 -45 0 0
45 0 45 -45 0 -45 0 0 -45 0 -45 -45 0 -45 0 0 45 0 45 -45 0 -45 0 0 45 0 45
-45 0 -45 0 0 -45 0 -45 -45 0 -45 0 0 45 0 45 45 0 45 0 0 45 0 45 -45 0 -45
0 0 45 0 45 45 0 45 0 0 45 0 45 45 0 45 0 0 45 0 45 45 0 45 0 0 45 0 45 45
0 45 0 0 -45z m-2790 -90 l0 -45 -45 0 -45 0 0 45 0 45 45 0 45 0 0 -45z m630
-135 l0 -90 45 0 45 0 0 -90 0 -90 -45 0 -45 0 0 90 0 90 -135 0 -135 0 0 45
0 45 90 0 90 0 0 45 0 45 45 0 45 0 0 -90z m-630 -45 l0 -45 -90 0 -90 0 0 45
0 45 90 0 90 0 0 -45z m180 -90 l0 -135 -45 0 -45 0 0 135 0 135 45 0 45 0 0
-135z m900 -90 l0 -135 -135 0 -135 0 0 135 0 135 135 0 135 0 0 -135z m-1080
0 l0 -45 -45 0 -45 0 0 45 0 45 45 0 45 0 0 -45z m360 0 l0 -45 45 0 45 0 0
45 0 45 45 0 45 0 0 -45 0 -45 -45 0 -45 0 0 -45 0 -45 -45 0 -45 0 0 45 0 45
-45 0 -45 0 0 45 0 45 45 0 45 0 0 -45z m2520 -270 l0 -45 -90 0 -90 0 0 45 0
45 90 0 90 0 0 -45z m450 -90 l0 -45 -45 0 -45 0 0 45 0 45 45 0 45 0 0 -45z
m180 -135 l0 -90 -90 0 -90 0 0 45 0 45 45 0 45 0 0 45 0 45 45 0 45 0 0 -90z
m-270 -45 l0 -45 -45 0 -45 0 0 45 0 45 45 0 45 0 0 -45z m720 -270 l0 -45
-45 0 -45 0 0 -45 0 -45 -45 0 -45 0 0 45 0 45 45 0 45 0 0 45 0 45 45 0 45 0
0 -45z m-90 -360 l0 -45 -45 0 -45 0 0 45 0 45 45 0 45 0 0 -45z m-450 -540
l0 -45 -45 0 -45 0 0 45 0 45 45 0 45 0 0 -45z m0 -270 l0 -45 -45 0 -45 0 0
45 0 45 45 0 45 0 0 -45z m-5220 -180 l0 -45 45 0 45 0 0 -45 0 -45 -45 0 -45
0 0 -45 0 -45 -45 0 -45 0 0 45 0 45 45 0 45 0 0 45 0 45 -45 0 -45 0 0 45 0
45 45 0 45 0 0 -45z m5220 -45 l0 -90 -45 0 -45 0 0 90 0 90 45 0 45 0 0 -90z
m-180 -90 l0 -90 -45 0 -45 0 0 45 0 45 -135 0 -135 0 0 45 0 45 180 0 180 0
0 -90z m-4680 -225 l0 -135 -135 0 -135 0 0 135 0 135 135 0 135 0 0 -135z
m5040 0 l0 -135 -135 0 -135 0 0 135 0 135 135 0 135 0 0 -135z m-4770 -90 l0
-45 -45 0 -45 0 0 -45 0 -45 -45 0 -45 0 0 45 0 45 45 0 45 0 0 45 0 45 45 0
45 0 0 -45z m360 -135 l0 -90 -90 0 -90 0 0 45 0 45 -45 0 -45 0 0 -45 0 -45
-45 0 -45 0 0 45 0 45 45 0 45 0 0 45 0 45 135 0 135 0 0 -90z m-1170 -225 l0
-45 -45 0 -45 0 0 45 0 45 45 0 45 0 0 -45z m5940 -360 l0 -45 -45 0 -45 0 0
45 0 45 45 0 45 0 0 -45z m-450 -90 l0 -45 45 0 45 0 0 -45 0 -45 90 0 90 0 0
-45 0 -45 -90 0 -90 0 0 -45 0 -45 -45 0 -45 0 0 45 0 45 45 0 45 0 0 45 0 45
-45 0 -45 0 0 45 0 45 -45 0 -45 0 0 45 0 45 45 0 45 0 0 -45z m-4590 -90 l0
-45 -90 0 -90 0 0 45 0 45 90 0 90 0 0 -45z m-810 -135 l0 -90 45 0 45 0 0
-45 0 -45 45 0 45 0 0 -90 0 -90 -45 0 -45 0 0 90 0 90 -90 0 -90 0 0 135 0
135 45 0 45 0 0 -90z m0 -315 l0 -45 -45 0 -45 0 0 -45 0 -45 -45 0 -45 0 0
45 0 45 45 0 45 0 0 45 0 45 45 0 45 0 0 -45z m5760 -720 l0 -45 -45 0 -45 0
0 -90 0 -90 45 0 45 0 0 -45 0 -45 -45 0 -45 0 0 45 0 45 -45 0 -45 0 0 90 0
90 45 0 45 0 0 45 0 45 45 0 45 0 0 -45z m-4500 -180 l0 -45 -45 0 -45 0 0
-45 0 -45 45 0 45 0 0 -45 0 -45 45 0 45 0 0 -45 0 -45 -45 0 -45 0 0 -45 0
-45 -45 0 -45 0 0 45 0 45 45 0 45 0 0 45 0 45 -90 0 -90 0 0 -45 0 -45 -45 0
-45 0 0 45 0 45 45 0 45 0 0 135 0 135 90 0 90 0 0 -45z m540 -90 l0 -45 -45
0 -45 0 0 45 0 45 45 0 45 0 0 -45z m360 0 l0 -45 -45 0 -45 0 0 -45 0 -45
-90 0 -90 0 0 -45 0 -45 -45 0 -45 0 0 45 0 45 45 0 45 0 0 45 0 45 90 0 90 0
0 45 0 45 45 0 45 0 0 -45z m810 -90 l0 -135 -135 0 -135 0 0 135 0 135 135 0
135 0 0 -135z m1350 45 l0 -90 -45 0 -45 0 0 -45 0 -45 -45 0 -45 0 0 -90 0
-90 -90 0 -90 0 0 45 0 45 45 0 45 0 0 45 0 45 45 0 45 0 0 45 0 45 45 0 45 0
0 90 0 90 45 0 45 0 0 -90z m1170 -45 l0 -135 -135 0 -135 0 0 135 0 135 135
0 135 0 0 -135z m-2970 0 l0 -45 45 0 45 0 0 -90 0 -90 45 0 45 0 0 -135 0
-135 -45 0 -45 0 0 90 0 90 -45 0 -45 0 0 -45 0 -45 -45 0 -45 0 0 45 0 45 45
0 45 0 0 90 0 90 -45 0 -45 0 0 -45 0 -45 -45 0 -45 0 0 -45 0 -45 -45 0 -45
0 0 45 0 45 45 0 45 0 0 45 0 45 45 0 45 0 0 90 0 90 45 0 45 0 0 -45z m1980
-90 l0 -45 -45 0 -45 0 0 45 0 45 45 0 45 0 0 -45z m-90 -180 l0 -45 -45 0
-45 0 0 -45 0 -45 -45 0 -45 0 0 45 0 45 45 0 45 0 0 45 0 45 45 0 45 0 0 -45z
m1080 0 l0 -45 45 0 45 0 0 -90 0 -90 -45 0 -45 0 0 45 0 45 -45 0 -45 0 0 90
0 90 45 0 45 0 0 -45z m-1620 -90 l0 -45 -45 0 -45 0 0 45 0 45 45 0 45 0 0
-45z m-450 -90 l0 -45 -45 0 -45 0 0 45 0 45 45 0 45 0 0 -45z"/>
<path d="M4320 5895 l0 -45 90 0 90 0 0 45 0 45 -90 0 -90 0 0 -45z"/>
<path d="M1710 5760 l0 -90 45 0 45 0 0 90 0 90 -45 0 -45 0 0 -90z"/>
<path d="M3780 5805 l0 -45 -45 0 -45 0 0 -45 0 -45 45 0 45 0 0 45 0 45 45 0
45 0 0 -45 0 -45 45 0 45 0 0 90 0 90 -90 0 -90 0 0 -45z"/>
<path d="M1350 5715 l0 -45 45 0 45 0 0 45 0 45 -45 0 -45 0 0 -45z"/>
<path d="M1530 5670 l0 -90 -90 0 -90 0 0 -90 0 -90 45 0 45 0 0 -90 0 -90
-45 0 -45 0 0 45 0 45 -45 0 -45 0 0 -45 0 -45 -135 0 -135 0 0 45 0 45 45 0
45 0 0 45 0 45 -45 0 -45 0 0 -45 0 -45 -90 0 -90 0 0 45 0 45 -90 0 -90 0 0
-45 0 -45 90 0 90 0 0 -45 0 -45 90 0 90 0 0 -45 0 -45 -45 0 -45 0 0 -45 0
-45 45 0 45 0 0 45 0 45 135 0 135 0 0 -45 0 -45 -90 0 -90 0 0 -45 0 -45 45
0 45 0 0 -45 0 -45 -45 0 -45 0 0 -45 0 -45 -45 0 -45 0 0 45 0 45 -45 0 -45
0 0 45 0 45 -45 0 -45 0 0 -45 0 -45 -90 0 -90 0 0 -45 0 -45 -90 0 -90 0 0
-90 0 -90 45 0 45 0 0 45 0 45 45 0 45 0 0 -45 0 -45 45 0 45 0 0 45 0 45 -45
0 -45 0 0 45 0 45 90 0 90 0 0 45 0 45 45 0 45 0 0 -45 0 -45 45 0 45 0 0 -45
0 -45 -90 0 -90 0 0 -45 0 -45 90 0 90 0 0 -45 0 -45 45 0 45 0 0 45 0 45 45
0 45 0 0 45 0 45 45 0 45 0 0 45 0 45 -45 0 -45 0 0 45 0 45 45 0 45 0 0 90 0
90 90 0 90 0 0 90 0 90 135 0 135 0 0 -90 0 -90 45 0 45 0 0 90 0 90 45 0 45
0 0 -45 0 -45 90 0 90 0 0 -45 0 -45 45 0 45 0 0 45 0 45 -45 0 -45 0 0 90 0
90 45 0 45 0 0 45 0 45 45 0 45 0 0 45 0 45 -180 0 -180 0 0 45 0 45 -90 0
-90 0 0 -45 0 -45 90 0 90 0 0 -90 0 -90 -45 0 -45 0 0 45 0 45 -90 0 -90 0 0
180 0 180 -45 0 -45 0 0 -90z m540 -315 l0 -45 -45 0 -45 0 0 45 0 45 45 0 45
0 0 -45z"/>
<path d="M1890 5715 l0 -45 45 0 45 0 0 45 0 45 -45 0 -45 0 0 -45z"/>
<path d="M3960 5535 l0 -45 45 0 45 0 0 45 0 45 -45 0 -45 0 0 -45z"/>
<path d="M2340 5445 l0 -45 45 0 45 0 0 45 0 45 -45 0 -45 0 0 -45z"/>
<path d="M4410 5445 l0 -45 45 0 45 0 0 45 0 45 -45 0 -45 0 0 -45z"/>
<path d="M3330 5355 l0 -45 -45 0 -45 0 0 -45 0 -45 45 0 45 0 0 45 0 45 45 0
45 0 0 -90 0 -90 -45 0 -45 0 0 -45 0 -45 -45 0 -45 0 0 45 0 45 -45 0 -45 0
0 -45 0 -45 45 0 45 0 0 -45 0 -45 90 0 90 0 0 45 0 45 45 0 45 0 0 135 0 135
-45 0 -45 0 0 45 0 45 -45 0 -45 0 0 -45z"/>
<path d="M3780 5265 l0 -135 45 0 45 0 0 45 0 45 45 0 45 0 0 45 0 45 45 0 45
0 0 45 0 45 -135 0 -135 0 0 -135z"/>
<path d="M3600 5265 l0 -45 45 0 45 0 0 45 0 45 -45 0 -45 0 0 -45z"/>
<path d="M1530 5085 l0 -45 45 0 45 0 0 45 0 45 -45 0 -45 0 0 -45z"/>
<path d="M630 4995 l0 -45 45 0 45 0 0 45 0 45 -45 0 -45 0 0 -45z"/>
<path d="M1890 4995 l0 -45 45 0 45 0 0 45 0 45 -45 0 -45 0 0 -45z"/>
<path d="M1440 4860 l0 -90 -45 0 -45 0 0 -90 0 -90 45 0 45 0 0 -90 0 -90
-135 0 -135 0 0 -45 0 -45 -90 0 -90 0 0 -45 0 -45 90 0 90 0 0 -135 0 -135
45 0 45 0 0 -45 0 -45 45 0 45 0 0 45 0 45 45 0 45 0 0 -45 0 -45 45 0 45 0 0
45 0 45 90 0 90 0 0 135 0 135 45 0 45 0 0 90 0 90 -45 0 -45 0 0 135 0 135
-90 0 -90 0 0 135 0 135 -45 0 -45 0 0 -90z m180 -315 l0 -45 -45 0 -45 0 0
45 0 45 45 0 45 0 0 -45z m0 -225 l0 -90 -45 0 -45 0 0 -90 0 -90 -90 0 -90 0
0 -45 0 -45 -45 0 -45 0 0 180 0 180 45 0 45 0 0 -45 0 -45 45 0 45 0 0 90 0
90 90 0 90 0 0 -90z"/>
<path d="M1620 4860 l0 -90 45 0 45 0 0 45 0 45 45 0 45 0 0 -90 0 -90 90 0
90 0 0 -45 0 -45 45 0 45 0 0 -90 0 -90 -90 0 -90 0 0 -90 0 -90 225 0 225 0
0 45 0 45 45 0 45 0 0 -45 0 -45 45 0 45 0 0 -45 0 -45 45 0 45 0 0 45 0 45
45 0 45 0 0 -45 0 -45 45 0 45 0 0 -45 0 -45 -45 0 -45 0 0 -180 0 -180 90 0
90 0 0 90 0 90 45 0 45 0 0 90 0 90 90 0 90 0 0 45 0 45 -90 0 -90 0 0 45 0
45 -90 0 -90 0 0 90 0 90 -135 0 -135 0 0 90 0 90 45 0 45 0 0 -45 0 -45 45 0
45 0 0 45 0 45 -45 0 -45 0 0 90 0 90 -45 0 -45 0 0 -45 0 -45 -45 0 -45 0 0
45 0 45 -45 0 -45 0 0 45 0 45 -45 0 -45 0 0 45 0 45 -45 0 -45 0 0 -45 0 -45
-90 0 -90 0 0 -45 0 -45 -45 0 -45 0 0 45 0 45 -45 0 -45 0 0 45 0 45 -90 0
-90 0 0 -90z m630 -45 l0 -45 45 0 45 0 0 -45 0 -45 45 0 45 0 0 -90 0 -90
-45 0 -45 0 0 -45 0 -45 -45 0 -45 0 0 45 0 45 -45 0 -45 0 0 45 0 45 45 0 45
0 0 -45 0 -45 45 0 45 0 0 90 0 90 -180 0 -180 0 0 45 0 45 90 0 90 0 0 45 0
45 45 0 45 0 0 -45z"/>
<path d="M2610 4905 l0 -45 45 0 45 0 0 -45 0 -45 45 0 45 0 0 -45 0 -45 45 0
45 0 0 45 0 45 -45 0 -45 0 0 45 0 45 -45 0 -45 0 0 45 0 45 -45 0 -45 0 0
-45z"/>
<path d="M3510 4905 l0 -45 45 0 45 0 0 45 0 45 -45 0 -45 0 0 -45z"/>
<path d="M3060 4815 l0 -45 45 0 45 0 0 -45 0 -45 45 0 45 0 0 -45 0 -45 -90
0 -90 0 0 45 0 45 -45 0 -45 0 0 -180 0 -180 90 0 90 0 0 45 0 45 90 0 90 0 0
135 0 135 45 0 45 0 0 -180 0 -180 45 0 45 0 0 90 0 90 135 0 135 0 0 -45 0
-45 -90 0 -90 0 0 -45 0 -45 90 0 90 0 0 45 0 45 90 0 90 0 0 90 0 90 -45 0
-45 0 0 45 0 45 -45 0 -45 0 0 -45 0 -45 -45 0 -45 0 0 45 0 45 -45 0 -45 0 0
-45 0 -45 -45 0 -45 0 0 45 0 45 -45 0 -45 0 0 90 0 90 -45 0 -45 0 0 -45 0
-45 -45 0 -45 0 0 45 0 45 -90 0 -90 0 0 -45z m90 -360 l0 -45 -45 0 -45 0 0
45 0 45 45 0 45 0 0 -45z"/>
<path d="M4590 4815 l0 -45 45 0 45 0 0 -45 0 -45 45 0 45 0 0 -45 0 -45 -45
0 -45 0 0 -90 0 -90 90 0 90 0 0 45 0 45 45 0 45 0 0 -135 0 -135 45 0 45 0 0
-45 0 -45 -45 0 -45 0 0 -45 0 -45 45 0 45 0 0 -135 0 -135 45 0 45 0 0 -45 0
-45 90 0 90 0 0 45 0 45 -45 0 -45 0 0 90 0 90 -45 0 -45 0 0 45 0 45 -45 0
-45 0 0 45 0 45 135 0 135 0 0 45 0 45 -45 0 -45 0 0 45 0 45 -90 0 -90 0 0
90 0 90 45 0 45 0 0 45 0 45 -90 0 -90 0 0 45 0 45 45 0 45 0 0 45 0 45 45 0
45 0 0 45 0 45 -45 0 -45 0 0 -45 0 -45 -45 0 -45 0 0 -45 0 -45 -90 0 -90 0
0 90 0 90 -90 0 -90 0 0 -45z m270 -270 l0 -45 -45 0 -45 0 0 45 0 45 45 0 45
0 0 -45z"/>
<path d="M4500 4635 l0 -45 45 0 45 0 0 45 0 45 -45 0 -45 0 0 -45z"/>
<path d="M1800 4545 l0 -45 45 0 45 0 0 45 0 45 -45 0 -45 0 0 -45z"/>
<path d="M5580 4455 l0 -45 45 0 45 0 0 45 0 45 -45 0 -45 0 0 -45z"/>
<path d="M4320 4365 l0 -45 45 0 45 0 0 -90 0 -90 -90 0 -90 0 0 -90 0 -90 45
0 45 0 0 -180 0 -180 45 0 45 0 0 -45 0 -45 -45 0 -45 0 0 -45 0 -45 -45 0
-45 0 0 135 0 135 -90 0 -90 0 0 90 0 90 -45 0 -45 0 0 135 0 135 -45 0 -45 0
0 45 0 45 90 0 90 0 0 45 0 45 -90 0 -90 0 0 -45 0 -45 -45 0 -45 0 0 -45 0
-45 -45 0 -45 0 0 45 0 45 -90 0 -90 0 0 -45 0 -45 -45 0 -45 0 0 45 0 45 -45
0 -45 0 0 45 0 45 -45 0 -45 0 0 -45 0 -45 45 0 45 0 0 -135 0 -135 90 0 90 0
0 -45 0 -45 45 0 45 0 0 -45 0 -45 -90 0 -90 0 0 -45 0 -45 45 0 45 0 0 -45 0
-45 -90 0 -90 0 0 135 0 135 -45 0 -45 0 0 45 0 45 -90 0 -90 0 0 -45 0 -45
90 0 90 0 0 -45 0 -45 -135 0 -135 0 0 -90 0 -90 -135 0 -135 0 0 -135 0 -135
-45 0 -45 0 0 45 0 45 -45 0 -45 0 0 -45 0 -45 -45 0 -45 0 0 -45 0 -45 -135
0 -135 0 0 45 0 45 -45 0 -45 0 0 -45 0 -45 -45 0 -45 0 0 -180 0 -180 45 0
45 0 0 -45 0 -45 -135 0 -135 0 0 45 0 45 45 0 45 0 0 90 0 90 -90 0 -90 0 0
45 0 45 45 0 45 0 0 45 0 45 45 0 45 0 0 45 0 45 45 0 45 0 0 45 0 45 135 0
135 0 0 -45 0 -45 45 0 45 0 0 45 0 45 45 0 45 0 0 45 0 45 90 0 90 0 0 45 0
45 -90 0 -90 0 0 90 0 90 90 0 90 0 0 45 0 45 -135 0 -135 0 0 90 0 90 -45 0
-45 0 0 45 0 45 -90 0 -90 0 0 -90 0 -90 -135 0 -135 0 0 -45 0 -45 -90 0 -90
0 0 -90 0 -90 45 0 45 0 0 -225 0 -225 -90 0 -90 0 0 90 0 90 -45 0 -45 0 0
-90 0 -90 45 0 45 0 0 -45 0 -45 45 0 45 0 0 -45 0 -45 45 0 45 0 0 -45 0 -45
-45 0 -45 0 0 -45 0 -45 45 0 45 0 0 -90 0 -90 45 0 45 0 0 -45 0 -45 90 0 90
0 0 -45 0 -45 45 0 45 0 0 -45 0 -45 -45 0 -45 0 0 -45 0 -45 45 0 45 0 0 -45
0 -45 45 0 45 0 0 -45 0 -45 -45 0 -45 0 0 -45 0 -45 90 0 90 0 0 -45 0 -45
-45 0 -45 0 0 -45 0 -45 90 0 90 0 0 -45 0 -45 45 0 45 0 0 45 0 45 45 0 45 0
0 -45 0 -45 135 0 135 0 0 135 0 135 90 0 90 0 0 -45 0 -45 -45 0 -45 0 0
-135 0 -135 90 0 90 0 0 45 0 45 90 0 90 0 0 -45 0 -45 -45 0 -45 0 0 -45 0
-45 45 0 45 0 0 45 0 45 90 0 90 0 0 -45 0 -45 -45 0 -45 0 0 -45 0 -45 -90 0
-90 0 0 -90 0 -90 180 0 180 0 0 45 0 45 45 0 45 0 0 135 0 135 -90 0 -90 0 0
45 0 45 135 0 135 0 0 -45 0 -45 45 0 45 0 0 -90 0 -90 -45 0 -45 0 0 -90 0
-90 -45 0 -45 0 0 -45 0 -45 -45 0 -45 0 0 -135 0 -135 -45 0 -45 0 0 45 0 45
-45 0 -45 0 0 90 0 90 -90 0 -90 0 0 -45 0 -45 45 0 45 0 0 -45 0 -45 45 0 45
0 0 -45 0 -45 45 0 45 0 0 -45 0 -45 45 0 45 0 0 45 0 45 225 0 225 0 0 45 0
45 -45 0 -45 0 0 45 0 45 45 0 45 0 0 135 0 135 -90 0 -90 0 0 45 0 45 135 0
135 0 0 -135 0 -135 45 0 45 0 0 45 0 45 45 0 45 0 0 -45 0 -45 45 0 45 0 0
45 0 45 -45 0 -45 0 0 45 0 45 135 0 135 0 0 45 0 45 135 0 135 0 0 45 0 45
45 0 45 0 0 -45 0 -45 90 0 90 0 0 90 0 90 45 0 45 0 0 45 0 45 90 0 90 0 0
45 0 45 -45 0 -45 0 0 45 0 45 -45 0 -45 0 0 45 0 45 90 0 90 0 0 -45 0 -45
45 0 45 0 0 45 0 45 -45 0 -45 0 0 135 0 135 45 0 45 0 0 45 0 45 -45 0 -45 0
0 45 0 45 -45 0 -45 0 0 90 0 90 45 0 45 0 0 45 0 45 45 0 45 0 0 -135 0 -135
45 0 45 0 0 135 0 135 45 0 45 0 0 -45 0 -45 45 0 45 0 0 45 0 45 -45 0 -45 0
0 45 0 45 -180 0 -180 0 0 45 0 45 90 0 90 0 0 45 0 45 -90 0 -90 0 0 -45 0
-45 -90 0 -90 0 0 -45 0 -45 -45 0 -45 0 0 90 0 90 -45 0 -45 0 0 45 0 45 -90
0 -90 0 0 45 0 45 45 0 45 0 0 45 0 45 -135 0 -135 0 0 45 0 45 -45 0 -45 0 0
45 0 45 135 0 135 0 0 90 0 90 45 0 45 0 0 45 0 45 -45 0 -45 0 0 -45 0 -45
-90 0 -90 0 0 -45 0 -45 -45 0 -45 0 0 90 0 90 90 0 90 0 0 45 0 45 -45 0 -45
0 0 45 0 45 -45 0 -45 0 0 45 0 45 90 0 90 0 0 -45 0 -45 45 0 45 0 0 45 0 45
45 0 45 0 0 90 0 90 -45 0 -45 0 0 45 0 45 -45 0 -45 0 0 45 0 45 -135 0 -135
0 0 -45z m270 -90 l0 -45 45 0 45 0 0 -90 0 -90 -45 0 -45 0 0 45 0 45 -45 0
-45 0 0 90 0 90 45 0 45 0 0 -45z m-2340 -270 l0 -45 -45 0 -45 0 0 45 0 45
45 0 45 0 0 -45z m1620 -45 l0 -90 45 0 45 0 0 -45 0 -45 -45 0 -45 0 0 -45 0
-45 45 0 45 0 0 -45 0 -45 45 0 45 0 0 -45 0 -45 45 0 45 0 0 -45 0 -45 45 0
45 0 0 -45 0 -45 45 0 45 0 0 45 0 45 45 0 45 0 0 -45 0 -45 45 0 45 0 0 -45
0 -45 45 0 45 0 0 -90 0 -90 -90 0 -90 0 0 45 0 45 -45 0 -45 0 0 45 0 45 -90
0 -90 0 0 -45 0 -45 45 0 45 0 0 -90 0 -90 180 0 180 0 0 -45 0 -45 -45 0 -45
0 0 -45 0 -45 -45 0 -45 0 0 -45 0 -45 -135 0 -135 0 0 -45 0 -45 45 0 45 0 0
-135 0 -135 -45 0 -45 0 0 -45 0 -45 90 0 90 0 0 45 0 45 45 0 45 0 0 -45 0
-45 -45 0 -45 0 0 -135 0 -135 45 0 45 0 0 45 0 45 90 0 90 0 0 45 0 45 -45 0
-45 0 0 45 0 45 45 0 45 0 0 -45 0 -45 45 0 45 0 0 45 0 45 45 0 45 0 0 45 0
45 -45 0 -45 0 0 90 0 90 -45 0 -45 0 0 -90 0 -90 -45 0 -45 0 0 180 0 180 90
0 90 0 0 45 0 45 45 0 45 0 0 -45 0 -45 45 0 45 0 0 -45 0 -45 45 0 45 0 0 90
0 90 -45 0 -45 0 0 45 0 45 -45 0 -45 0 0 45 0 45 45 0 45 0 0 -45 0 -45 45 0
45 0 0 -45 0 -45 45 0 45 0 0 45 0 45 45 0 45 0 0 -45 0 -45 45 0 45 0 0 -45
0 -45 -45 0 -45 0 0 -45 0 -45 -90 0 -90 0 0 -45 0 -45 45 0 45 0 0 -90 0 -90
-45 0 -45 0 0 45 0 45 -45 0 -45 0 0 90 0 90 -45 0 -45 0 0 -135 0 -135 45 0
45 0 0 -45 0 -45 135 0 135 0 0 45 0 45 45 0 45 0 0 -45 0 -45 -45 0 -45 0 0
-90 0 -90 -135 0 -135 0 0 -45 0 -45 135 0 135 0 0 -45 0 -45 -45 0 -45 0 0
-90 0 -90 -180 0 -180 0 0 45 0 45 45 0 45 0 0 45 0 45 -90 0 -90 0 0 45 0 45
-90 0 -90 0 0 -90 0 -90 -135 0 -135 0 0 -45 0 -45 135 0 135 0 0 -45 0 -45
45 0 45 0 0 45 0 45 45 0 45 0 0 -45 0 -45 -45 0 -45 0 0 -45 0 -45 -45 0 -45
0 0 45 0 45 -90 0 -90 0 0 -90 0 -90 -45 0 -45 0 0 45 0 45 -45 0 -45 0 0 45
0 45 45 0 45 0 0 45 0 45 -45 0 -45 0 0 90 0 90 45 0 45 0 0 45 0 45 -90 0
-90 0 0 45 0 45 -45 0 -45 0 0 45 0 45 -45 0 -45 0 0 90 0 90 45 0 45 0 0 135
0 135 -45 0 -45 0 0 90 0 90 -45 0 -45 0 0 45 0 45 90 0 90 0 0 90 0 90 45 0
45 0 0 45 0 45 -45 0 -45 0 0 45 0 45 -45 0 -45 0 0 45 0 45 -45 0 -45 0 0 45
0 45 -45 0 -45 0 0 -45 0 -45 -45 0 -45 0 0 -90 0 -90 45 0 45 0 0 45 0 45 45
0 45 0 0 -90 0 -90 -135 0 -135 0 0 135 0 135 45 0 45 0 0 45 0 45 45 0 45 0
0 45 0 45 -45 0 -45 0 0 45 0 45 45 0 45 0 0 -45 0 -45 90 0 90 0 0 45 0 45
-45 0 -45 0 0 90 0 90 90 0 90 0 0 45 0 45 -45 0 -45 0 0 45 0 45 -90 0 -90 0
0 45 0 45 135 0 135 0 0 -90z m-1530 -225 l0 -135 -180 0 -180 0 0 90 0 90
-90 0 -90 0 0 45 0 45 270 0 270 0 0 -135z m-450 -90 l0 -45 -45 0 -45 0 0 45
0 45 45 0 45 0 0 -45z m1260 0 l0 -45 90 0 90 0 0 -90 0 -90 -45 0 -45 0 0 45
0 45 -90 0 -90 0 0 -45 0 -45 -45 0 -45 0 0 -180 0 -180 -135 0 -135 0 0 -45
0 -45 45 0 45 0 0 -45 0 -45 45 0 45 0 0 -45 0 -45 45 0 45 0 0 90 0 90 135 0
135 0 0 -45 0 -45 45 0 45 0 0 45 0 45 45 0 45 0 0 -90 0 -90 45 0 45 0 0 -45
0 -45 90 0 90 0 0 -45 0 -45 -45 0 -45 0 0 -45 0 -45 90 0 90 0 0 -45 0 -45
-45 0 -45 0 0 -45 0 -45 -45 0 -45 0 0 -45 0 -45 45 0 45 0 0 -45 0 -45 -45 0
-45 0 0 -90 0 -90 45 0 45 0 0 -45 0 -45 45 0 45 0 0 45 0 45 45 0 45 0 0 -45
0 -45 45 0 45 0 0 -45 0 -45 -45 0 -45 0 0 -45 0 -45 -45 0 -45 0 0 45 0 45
-45 0 -45 0 0 45 0 45 -45 0 -45 0 0 45 0 45 -45 0 -45 0 0 -45 0 -45 -45 0
-45 0 0 -45 0 -45 -45 0 -45 0 0 45 0 45 45 0 45 0 0 45 0 45 -45 0 -45 0 0
45 0 45 -45 0 -45 0 0 -90 0 -90 -90 0 -90 0 0 -45 0 -45 -45 0 -45 0 0 90 0
90 90 0 90 0 0 45 0 45 45 0 45 0 0 45 0 45 -45 0 -45 0 0 45 0 45 -180 0
-180 0 0 135 0 135 -45 0 -45 0 0 -180 0 -180 45 0 45 0 0 -45 0 -45 -45 0
-45 0 0 45 0 45 -45 0 -45 0 0 -45 0 -45 -45 0 -45 0 0 -45 0 -45 45 0 45 0 0
-45 0 -45 -45 0 -45 0 0 45 0 45 -45 0 -45 0 0 90 0 90 -45 0 -45 0 0 -45 0
-45 -45 0 -45 0 0 45 0 45 45 0 45 0 0 45 0 45 -90 0 -90 0 0 45 0 45 -45 0
-45 0 0 45 0 45 45 0 45 0 0 45 0 45 -45 0 -45 0 0 45 0 45 -45 0 -45 0 0 45
0 45 45 0 45 0 0 45 0 45 45 0 45 0 0 90 0 90 -45 0 -45 0 0 90 0 90 225 0
225 0 0 45 0 45 90 0 90 0 0 -45 0 -45 45 0 45 0 0 45 0 45 45 0 45 0 0 90 0
90 -45 0 -45 0 0 45 0 45 45 0 45 0 0 -45 0 -45 45 0 45 0 0 45 0 45 45 0 45
0 0 90 0 90 45 0 45 0 0 -45z m-1170 -180 l0 -45 -45 0 -45 0 0 -45 0 -45 -45
0 -45 0 0 45 0 45 45 0 45 0 0 45 0 45 45 0 45 0 0 -45z m360 0 l0 -45 -45 0
-45 0 0 45 0 45 45 0 45 0 0 -45z m990 -270 l0 -135 -135 0 -135 0 0 135 0
135 135 0 135 0 0 -135z m270 -270 l0 -45 -45 0 -45 0 0 45 0 45 45 0 45 0 0
-45z m-540 -810 l0 -45 -45 0 -45 0 0 45 0 45 45 0 45 0 0 -45z m450 -585 l0
-90 -90 0 -90 0 0 45 0 45 45 0 45 0 0 45 0 45 45 0 45 0 0 -90z m360 -270 l0
-90 -90 0 -90 0 0 -45 0 -45 -45 0 -45 0 0 45 0 45 45 0 45 0 0 45 0 45 45 0
45 0 0 45 0 45 45 0 45 0 0 -90z"/>
<path d="M3780 3645 l0 -45 45 0 45 0 0 -45 0 -45 -45 0 -45 0 0 -45 0 -45 45
0 45 0 0 -90 0 -90 135 0 135 0 0 45 0 45 -45 0 -45 0 0 90 0 90 -45 0 -45 0
0 45 0 45 -45 0 -45 0 0 45 0 45 -45 0 -45 0 0 -45z"/>
<path d="M4410 3195 l0 -45 45 0 45 0 0 45 0 45 -45 0 -45 0 0 -45z"/>
<path d="M4050 3105 l0 -45 -45 0 -45 0 0 -45 0 -45 90 0 90 0 0 90 0 90 -45
0 -45 0 0 -45z"/>
<path d="M3870 2745 l0 -135 45 0 45 0 0 -180 0 -180 45 0 45 0 0 -45 0 -45
-45 0 -45 0 0 -45 0 -45 45 0 45 0 0 45 0 45 45 0 45 0 0 45 0 45 -45 0 -45 0
0 90 0 90 45 0 45 0 0 45 0 45 -45 0 -45 0 0 135 0 135 45 0 45 0 0 45 0 45
-135 0 -135 0 0 -135z"/>
<path d="M4230 2835 l0 -45 90 0 90 0 0 45 0 45 -90 0 -90 0 0 -45z"/>
<path d="M4680 2655 l0 -45 45 0 45 0 0 45 0 45 -45 0 -45 0 0 -45z"/>
<path d="M4770 2115 l0 -45 45 0 45 0 0 45 0 45 -45 0 -45 0 0 -45z"/>
<path d="M4140 2025 l0 -45 45 0 45 0 0 45 0 45 -45 0 -45 0 0 -45z"/>
<path d="M4590 2025 l0 -45 45 0 45 0 0 45 0 45 -45 0 -45 0 0 -45z"/>
<path d="M4770 1935 l0 -45 45 0 45 0 0 45 0 45 -45 0 -45 0 0 -45z"/>
<path d="M2070 3735 l0 -45 45 0 45 0 0 45 0 45 -45 0 -45 0 0 -45z"/>
<path d="M2520 3105 l0 -45 45 0 45 0 0 45 0 45 -45 0 -45 0 0 -45z"/>
<path d="M2250 2925 l0 -135 -45 0 -45 0 0 -45 0 -45 -45 0 -45 0 0 -45 0 -45
45 0 45 0 0 -45 0 -45 45 0 45 0 0 -45 0 -45 45 0 45 0 0 -45 0 -45 45 0 45 0
0 -45 0 -45 90 0 90 0 0 45 0 45 -90 0 -90 0 0 45 0 45 -45 0 -45 0 0 45 0 45
45 0 45 0 0 45 0 45 90 0 90 0 0 -45 0 -45 45 0 45 0 0 180 0 180 -90 0 -90 0
0 45 0 45 -45 0 -45 0 0 45 0 45 -90 0 -90 0 0 -135z m180 0 l0 -45 45 0 45 0
0 -90 0 -90 -45 0 -45 0 0 -45 0 -45 -45 0 -45 0 0 45 0 45 45 0 45 0 0 45 0
45 -45 0 -45 0 0 90 0 90 45 0 45 0 0 -45z m-180 -270 l0 -45 -45 0 -45 0 0
45 0 45 45 0 45 0 0 -45z"/>
<path d="M2970 2745 l0 -45 -90 0 -90 0 0 -45 0 -45 45 0 45 0 0 -45 0 -45
135 0 135 0 0 45 0 45 45 0 45 0 0 -45 0 -45 45 0 45 0 0 -90 0 -90 -45 0 -45
0 0 45 0 45 -90 0 -90 0 0 -45 0 -45 45 0 45 0 0 -45 0 -45 45 0 45 0 0 -45 0
-45 45 0 45 0 0 -45 0 -45 45 0 45 0 0 -45 0 -45 45 0 45 0 0 90 0 90 45 0 45
0 0 45 0 45 -90 0 -90 0 0 45 0 45 45 0 45 0 0 180 0 180 -180 0 -180 0 0 45
0 45 -90 0 -90 0 0 -45z m180 -90 l0 -45 -90 0 -90 0 0 45 0 45 90 0 90 0 0
-45z m270 -90 l0 -45 -45 0 -45 0 0 45 0 45 45 0 45 0 0 -45z m0 -360 l0 -45
-45 0 -45 0 0 45 0 45 45 0 45 0 0 -45z"/>
<path d="M2880 2385 l0 -45 45 0 45 0 0 45 0 45 -45 0 -45 0 0 -45z"/>
<path d="M3780 1845 l0 -45 45 0 45 0 0 45 0 45 -45 0 -45 0 0 -45z"/>
<path d="M3150 3195 l0 -45 45 0 45 0 0 45 0 45 -45 0 -45 0 0 -45z"/>
<path d="M1800 4095 l0 -45 45 0 45 0 0 45 0 45 -45 0 -45 0 0 -45z"/>
<path d="M2430 4005 l0 -45 45 0 45 0 0 45 0 45 -45 0 -45 0 0 -45z"/>
<path d="M4770 3915 l0 -45 45 0 45 0 0 -90 0 -90 45 0 45 0 0 90 0 90 -45 0
-45 0 0 45 0 45 -45 0 -45 0 0 -45z"/>
<path d="M900 3825 l0 -45 45 0 45 0 0 -45 0 -45 -45 0 -45 0 0 -45 0 -45 -45
0 -45 0 0 -45 0 -45 45 0 45 0 0 45 0 45 45 0 45 0 0 -45 0 -45 45 0 45 0 0
-90 0 -90 45 0 45 0 0 45 0 45 45 0 45 0 0 90 0 90 -45 0 -45 0 0 45 0 45 -45
0 -45 0 0 45 0 45 45 0 45 0 0 45 0 45 -45 0 -45 0 0 -45 0 -45 -45 0 -45 0 0
45 0 45 -45 0 -45 0 0 -45z m270 -270 l0 -45 -45 0 -45 0 0 45 0 45 45 0 45 0
0 -45z"/>
<path d="M1260 3735 l0 -45 45 0 45 0 0 45 0 45 -45 0 -45 0 0 -45z"/>
<path d="M1440 3645 l0 -45 -45 0 -45 0 0 -45 0 -45 45 0 45 0 0 45 0 45 45 0
45 0 0 45 0 45 -45 0 -45 0 0 -45z"/>
<path d="M1530 2745 l0 -45 45 0 45 0 0 45 0 45 -45 0 -45 0 0 -45z"/>
<path d="M990 2655 l0 -45 -90 0 -90 0 0 -45 0 -45 135 0 135 0 0 -45 0 -45
135 0 135 0 0 45 0 45 -90 0 -90 0 0 45 0 45 45 0 45 0 0 45 0 45 -45 0 -45 0
0 -45 0 -45 -45 0 -45 0 0 45 0 45 -45 0 -45 0 0 -45z"/>
<path d="M5940 2655 l0 -45 -45 0 -45 0 0 -45 0 -45 90 0 90 0 0 90 0 90 -45
0 -45 0 0 -45z"/>
<path d="M1620 2565 l0 -45 -90 0 -90 0 0 -45 0 -45 45 0 45 0 0 -45 0 -45 45
0 45 0 0 -90 0 -90 45 0 45 0 0 -45 0 -45 135 0 135 0 0 90 0 90 -90 0 -90 0
0 -45 0 -45 -45 0 -45 0 0 90 0 90 90 0 90 0 0 90 0 90 -45 0 -45 0 0 -45 0
-45 -45 0 -45 0 0 90 0 90 -45 0 -45 0 0 -45z"/>
<path d="M1440 2205 l0 -45 45 0 45 0 0 45 0 45 -45 0 -45 0 0 -45z"/>
<path d="M2160 1665 l0 -45 90 0 90 0 0 45 0 45 -90 0 -90 0 0 -45z"/>
<path d="M2430 1620 l0 -90 -90 0 -90 0 0 -45 0 -45 45 0 45 0 0 -45 0 -45
-45 0 -45 0 0 -45 0 -45 -45 0 -45 0 0 135 0 135 -90 0 -90 0 0 -90 0 -90 45
0 45 0 0 -45 0 -45 -45 0 -45 0 0 -90 0 -90 90 0 90 0 0 -45 0 -45 90 0 90 0
0 90 0 90 -45 0 -45 0 0 45 0 45 90 0 90 0 0 90 0 90 90 0 90 0 0 -45 0 -45
45 0 45 0 0 -135 0 -135 45 0 45 0 0 -45 0 -45 -45 0 -45 0 0 -45 0 -45 45 0
45 0 0 45 0 45 45 0 45 0 0 45 0 45 -45 0 -45 0 0 135 0 135 90 0 90 0 0 -45
0 -45 -45 0 -45 0 0 -45 0 -45 45 0 45 0 0 45 0 45 45 0 45 0 0 90 0 90 -90 0
-90 0 0 90 0 90 -45 0 -45 0 0 45 0 45 -45 0 -45 0 0 -45 0 -45 -45 0 -45 0 0
45 0 45 -90 0 -90 0 0 -90z m180 -45 l0 -45 -45 0 -45 0 0 45 0 45 45 0 45 0
0 -45z m-450 -360 l0 -45 -45 0 -45 0 0 45 0 45 45 0 45 0 0 -45z"/>
<path d="M1710 1395 l0 -45 90 0 90 0 0 45 0 45 -90 0 -90 0 0 -45z"/>
<path d="M4950 1395 l0 -45 -45 0 -45 0 0 -45 0 -45 45 0 45 0 0 45 0 45 45 0
45 0 0 45 0 45 -45 0 -45 0 0 -45z"/>
<path d="M1080 1215 l0 -45 90 0 90 0 0 45 0 45 -90 0 -90 0 0 -45z"/>
<path d="M1800 1170 l0 -90 45 0 45 0 0 90 0 90 -45 0 -45 0 0 -90z"/>
<path d="M900 1125 l0 -45 45 0 45 0 0 45 0 45 -45 0 -45 0 0 -45z"/>
<path d="M5040 1125 l0 -45 -45 0 -45 0 0 -45 0 -45 45 0 45 0 0 -45 0 -45
-45 0 -45 0 0 -45 0 -45 90 0 90 0 0 90 0 90 45 0 45 0 0 -90 0 -90 45 0 45 0
0 45 0 45 45 0 45 0 0 90 0 90 -90 0 -90 0 0 45 0 45 -90 0 -90 0 0 -45z m90
-90 l0 -45 -45 0 -45 0 0 45 0 45 45 0 45 0 0 -45z"/>
<path d="M1080 1035 l0 -45 45 0 45 0 0 45 0 45 -45 0 -45 0 0 -45z"/>
<path d="M4230 945 l0 -45 45 0 45 0 0 45 0 45 -45 0 -45 0 0 -45z"/>
<path d="M3510 405 l0 -45 45 0 45 0 0 45 0 45 -45 0 -45 0 0 -45z"/>
<path d="M5130 5715 l0 -45 45 0 45 0 0 45 0 45 -45 0 -45 0 0 -45z"/>
<path d="M3150 5715 l0 -45 45 0 45 0 0 45 0 45 -45 0 -45 0 0 -45z"/>
<path d="M630 3195 l0 -45 45 0 45 0 0 45 0 45 -45 0 -45 0 0 -45z"/>
<path d="M5670 3195 l0 -45 45 0 45 0 0 45 0 45 -45 0 -45 0 0 -45z"/>
<path d="M3150 675 l0 -45 45 0 45 0 0 45 0 45 -45 0 -45 0 0 -45z"/>
<path d="M5670 675 l0 -45 45 0 45 0 0 45 0 45 -45 0 -45 0 0 -45z"/>
<path d="M1440 6255 l0 -45 135 0 135 0 0 45 0 45 -135 0 -135 0 0 -45z"/>
<path d="M1980 6255 l0 -45 45 0 45 0 0 45 0 45 -45 0 -45 0 0 -45z"/>
<path d="M5670 5985 l0 -315 315 0 315 0 0 315 0 315 -315 0 -315 0 0 -315z
m540 0 l0 -225 -225 0 -225 0 0 225 0 225 225 0 225 0 0 -225z"/>
<path d="M5850 5985 l0 -135 135 0 135 0 0 135 0 135 -135 0 -135 0 0 -135z"/>
<path d="M5490 5940 l0 -90 45 0 45 0 0 90 0 90 -45 0 -45 0 0 -90z"/>
<path d="M810 5715 l0 -45 45 0 45 0 0 45 0 45 -45 0 -45 0 0 -45z"/>
<path d="M5490 5715 l0 -45 45 0 45 0 0 45 0 45 -45 0 -45 0 0 -45z"/>
<path d="M6120 5355 l0 -45 45 0 45 0 0 -45 0 -45 45 0 45 0 0 90 0 90 -90 0
-90 0 0 -45z"/>
<path d="M6120 1935 l0 -45 45 0 45 0 0 -45 0 -45 45 0 45 0 0 90 0 90 -90 0
-90 0 0 -45z"/>
<path d="M5580 1755 l0 -45 45 0 45 0 0 45 0 45 -45 0 -45 0 0 -45z"/>
<path d="M6120 1575 l0 -45 -45 0 -45 0 0 -90 0 -90 90 0 90 0 0 45 0 45 45 0
45 0 0 90 0 90 -90 0 -90 0 0 -45z m90 -90 l0 -45 -45 0 -45 0 0 45 0 45 45 0
45 0 0 -45z"/>
<path d="M5760 1305 l0 -45 45 0 45 0 0 45 0 45 -45 0 -45 0 0 -45z"/>
<path d="M360 855 l0 -45 90 0 90 0 0 45 0 45 -90 0 -90 0 0 -45z"/>
<path d="M90 405 l0 -315 315 0 315 0 0 315 0 315 -315 0 -315 0 0 -315z m540
0 l0 -225 -225 0 -225 0 0 225 0 225 225 0 225 0 0 -225z"/>
<path d="M270 405 l0 -135 135 0 135 0 0 135 0 135 -135 0 -135 0 0 -135z"/>
<path d="M1890 360 l0 -90 -45 0 -45 0 0 -90 0 -90 90 0 90 0 0 45 0 45 -45 0
-45 0 0 45 0 45 45 0 45 0 0 90 0 90 -45 0 -45 0 0 -90z"/>
<path d="M900 180 l0 -90 45 0 45 0 0 45 0 45 45 0 45 0 0 -45 0 -45 45 0 45
0 0 45 0 45 -45 0 -45 0 0 45 0 45 -90 0 -90 0 0 -90z"/>
<path d="M1530 225 l0 -45 -45 0 -45 0 0 -45 0 -45 90 0 90 0 0 45 0 45 45 0
45 0 0 45 0 45 -90 0 -90 0 0 -45z"/>
<path d="M2160 225 l0 -45 -45 0 -45 0 0 -45 0 -45 135 0 135 0 0 90 0 90 -90
0 -90 0 0 -45z"/>
</g>
</svg>
