<?xml version="1.0" standalone="no"?>
<!DOCTYPE svg PUBLIC "-//W3C//DTD SVG 20010904//EN"
 "http://www.w3.org/TR/2001/REC-SVG-20010904/DTD/svg10.dtd">
<svg version="1.0" xmlns="http://www.w3.org/2000/svg"
 width="639.000000pt" height="639.000000pt" viewBox="0 0 639.000000 639.000000"
 preserveAspectRatio="xMidYMid meet">

<g transform="translate(0.000000,639.000000) scale(0.100000,-0.100000)"
fill="#000000" stroke="none">
<path d="M90 5985 l0 -315 315 0 315 0 0 315 0 315 -315 0 -315 0 0 -315z
m540 0 l0 -225 -225 0 -225 0 0 225 0 225 225 0 225 0 0 -225z"/>
<path d="M270 5985 l0 -135 135 0 135 0 0 135 0 135 -135 0 -135 0 0 -135z"/>
<path d="M1080 6255 l0 -45 -135 0 -135 0 0 -45 0 -45 45 0 45 0 0 -135 0
-135 -45 0 -45 0 0 -135 0 -135 -180 0 -180 0 0 -45 0 -45 -90 0 -90 0 0 -45
0 -45 90 0 90 0 0 45 0 45 45 0 45 0 0 -90 0 -90 -45 0 -45 0 0 -45 0 -45
-180 0 -180 0 0 -90 0 -90 45 0 45 0 0 45 0 45 90 0 90 0 0 -45 0 -45 90 0 90
0 0 -45 0 -45 -45 0 -45 0 0 -45 0 -45 -45 0 -45 0 0 45 0 45 -45 0 -45 0 0
-45 0 -45 -45 0 -45 0 0 45 0 45 -45 0 -45 0 0 -180 0 -180 45 0 45 0 0 -225
0 -225 -45 0 -45 0 0 -45 0 -45 45 0 45 0 0 -90 0 -90 45 0 45 0 0 -45 0 -45
-45 0 -45 0 0 -45 0 -45 -45 0 -45 0 0 -45 0 -45 45 0 45 0 0 -45 0 -45 45 0
45 0 0 45 0 45 -45 0 -45 0 0 45 0 45 90 0 90 0 0 45 0 45 45 0 45 0 0 45 0
45 -45 0 -45 0 0 45 0 45 -45 0 -45 0 0 45 0 45 135 0 135 0 0 45 0 45 -135 0
-135 0 0 45 0 45 270 0 270 0 0 -45 0 -45 45 0 45 0 0 -45 0 -45 45 0 45 0 0
-45 0 -45 -90 0 -90 0 0 45 0 45 -45 0 -45 0 0 45 0 45 -45 0 -45 0 0 -45 0
-45 45 0 45 0 0 -45 0 -45 -45 0 -45 0 0 -45 0 -45 -45 0 -45 0 0 -45 0 -45
45 0 45 0 0 -45 0 -45 -45 0 -45 0 0 -45 0 -45 -45 0 -45 0 0 -90 0 -90 -45 0
-45 0 0 -45 0 -45 45 0 45 0 0 -45 0 -45 -45 0 -45 0 0 -45 0 -45 -45 0 -45 0
0 135 0 135 -90 0 -90 0 0 -45 0 -45 45 0 45 0 0 -45 0 -45 -45 0 -45 0 0 -45
0 -45 45 0 45 0 0 -45 0 -45 -45 0 -45 0 0 -45 0 -45 45 0 45 0 0 -90 0 -90
-45 0 -45 0 0 -45 0 -45 45 0 45 0 0 45 0 45 45 0 45 0 0 -90 0 -90 -45 0 -45
0 0 -45 0 -45 -45 0 -45 0 0 -45 0 -45 135 0 135 0 0 -45 0 -45 -90 0 -90 0 0
-45 0 -45 45 0 45 0 0 -90 0 -90 -90 0 -90 0 0 -45 0 -45 45 0 45 0 0 -45 0
-45 -45 0 -45 0 0 -135 0 -135 45 0 45 0 0 135 0 135 45 0 45 0 0 -90 0 -90
90 0 90 0 0 90 0 90 45 0 45 0 0 -135 0 -135 45 0 45 0 0 -45 0 -45 45 0 45 0
0 -45 0 -45 -45 0 -45 0 0 -45 0 -45 -45 0 -45 0 0 -90 0 -90 -45 0 -45 0 0
-90 0 -90 180 0 180 0 0 -45 0 -45 -90 0 -90 0 0 -45 0 -45 90 0 90 0 0 -180
0 -180 270 0 270 0 0 -90 0 -90 -45 0 -45 0 0 45 0 45 -45 0 -45 0 0 -45 0
-45 -45 0 -45 0 0 -45 0 -45 -45 0 -45 0 0 -45 0 -45 90 0 90 0 0 90 0 90 45
0 45 0 0 -45 0 -45 90 0 90 0 0 225 0 225 90 0 90 0 0 90 0 90 -45 0 -45 0 0
-45 0 -45 -45 0 -45 0 0 45 0 45 -180 0 -180 0 0 90 0 90 45 0 45 0 0 -45 0
-45 180 0 180 0 0 45 0 45 45 0 45 0 0 45 0 45 45 0 45 0 0 90 0 90 45 0 45 0
0 -90 0 -90 45 0 45 0 0 90 0 90 -45 0 -45 0 0 45 0 45 90 0 90 0 0 -135 0
-135 45 0 45 0 0 -90 0 -90 -90 0 -90 0 0 45 0 45 -90 0 -90 0 0 -45 0 -45 90
0 90 0 0 -45 0 -45 -45 0 -45 0 0 -45 0 -45 -45 0 -45 0 0 -90 0 -90 90 0 90
0 0 45 0 45 45 0 45 0 0 -45 0 -45 45 0 45 0 0 -45 0 -45 -45 0 -45 0 0 -45 0
-45 -45 0 -45 0 0 45 0 45 -45 0 -45 0 0 -90 0 -90 -45 0 -45 0 0 -45 0 -45
-45 0 -45 0 0 90 0 90 -45 0 -45 0 0 -135 0 -135 90 0 90 0 0 45 0 45 90 0 90
0 0 -45 0 -45 45 0 45 0 0 45 0 45 45 0 45 0 0 45 0 45 45 0 45 0 0 45 0 45
45 0 45 0 0 45 0 45 45 0 45 0 0 -90 0 -90 -45 0 -45 0 0 -45 0 -45 -45 0 -45
0 0 -45 0 -45 45 0 45 0 0 45 0 45 45 0 45 0 0 45 0 45 45 0 45 0 0 -90 0 -90
270 0 270 0 0 45 0 45 45 0 45 0 0 45 0 45 45 0 45 0 0 -45 0 -45 45 0 45 0 0
-45 0 -45 45 0 45 0 0 45 0 45 45 0 45 0 0 45 0 45 -45 0 -45 0 0 -45 0 -45
-45 0 -45 0 0 45 0 45 -45 0 -45 0 0 90 0 90 90 0 90 0 0 -45 0 -45 135 0 135
0 0 45 0 45 -90 0 -90 0 0 45 0 45 90 0 90 0 0 45 0 45 45 0 45 0 0 90 0 90
-45 0 -45 0 0 45 0 45 90 0 90 0 0 -180 0 -180 -45 0 -45 0 0 -90 0 -90 45 0
45 0 0 -45 0 -45 -45 0 -45 0 0 -45 0 -45 -45 0 -45 0 0 45 0 45 -45 0 -45 0
0 -45 0 -45 45 0 45 0 0 -45 0 -45 45 0 45 0 0 45 0 45 45 0 45 0 0 45 0 45
45 0 45 0 0 -90 0 -90 180 0 180 0 0 45 0 45 -45 0 -45 0 0 45 0 45 90 0 90 0
0 -45 0 -45 45 0 45 0 0 90 0 90 45 0 45 0 0 45 0 45 -45 0 -45 0 0 45 0 45
90 0 90 0 0 -90 0 -90 45 0 45 0 0 90 0 90 45 0 45 0 0 135 0 135 45 0 45 0 0
-45 0 -45 45 0 45 0 0 45 0 45 45 0 45 0 0 -45 0 -45 45 0 45 0 0 -45 0 -45
45 0 45 0 0 -45 0 -45 90 0 90 0 0 45 0 45 45 0 45 0 0 -90 0 -90 -90 0 -90 0
0 -45 0 -45 -45 0 -45 0 0 45 0 45 -45 0 -45 0 0 45 0 45 -45 0 -45 0 0 45 0
45 -90 0 -90 0 0 -45 0 -45 45 0 45 0 0 -45 0 -45 45 0 45 0 0 -90 0 -90 -45
0 -45 0 0 45 0 45 -90 0 -90 0 0 -45 0 -45 90 0 90 0 0 -45 0 -45 -90 0 -90 0
0 -45 0 -45 180 0 180 0 0 90 0 90 90 0 90 0 0 -45 0 -45 -45 0 -45 0 0 -45 0
-45 45 0 45 0 0 45 0 45 45 0 45 0 0 -45 0 -45 90 0 90 0 0 45 0 45 -90 0 -90
0 0 45 0 45 135 0 135 0 0 -45 0 -45 90 0 90 0 0 -45 0 -45 225 0 225 0 0 90
0 90 -45 0 -45 0 0 -45 0 -45 -45 0 -45 0 0 90 0 90 90 0 90 0 0 90 0 90 -135
0 -135 0 0 45 0 45 -45 0 -45 0 0 45 0 45 135 0 135 0 0 45 0 45 -90 0 -90 0
0 45 0 45 45 0 45 0 0 45 0 45 45 0 45 0 0 45 0 45 45 0 45 0 0 45 0 45 -90 0
-90 0 0 -90 0 -90 -45 0 -45 0 0 135 0 135 45 0 45 0 0 45 0 45 45 0 45 0 0
45 0 45 45 0 45 0 0 225 0 225 -45 0 -45 0 0 45 0 45 45 0 45 0 0 45 0 45 -45
0 -45 0 0 -45 0 -45 -45 0 -45 0 0 45 0 45 -90 0 -90 0 0 45 0 45 135 0 135 0
0 45 0 45 45 0 45 0 0 45 0 45 -45 0 -45 0 0 90 0 90 45 0 45 0 0 45 0 45 -45
0 -45 0 0 -45 0 -45 -45 0 -45 0 0 45 0 45 -45 0 -45 0 0 45 0 45 90 0 90 0 0
45 0 45 45 0 45 0 0 135 0 135 -45 0 -45 0 0 45 0 45 45 0 45 0 0 45 0 45 -45
0 -45 0 0 45 0 45 -45 0 -45 0 0 45 0 45 -45 0 -45 0 0 45 0 45 135 0 135 0 0
45 0 45 -45 0 -45 0 0 45 0 45 45 0 45 0 0 45 0 45 -45 0 -45 0 0 45 0 45 45
0 45 0 0 45 0 45 -45 0 -45 0 0 -45 0 -45 -45 0 -45 0 0 -90 0 -90 -90 0 -90
0 0 -45 0 -45 -90 0 -90 0 0 90 0 90 135 0 135 0 0 90 0 90 -45 0 -45 0 0 -45
0 -45 -90 0 -90 0 0 -45 0 -45 -135 0 -135 0 0 45 0 45 -45 0 -45 0 0 45 0 45
90 0 90 0 0 -45 0 -45 45 0 45 0 0 45 0 45 -45 0 -45 0 0 90 0 90 -45 0 -45 0
0 45 0 45 -90 0 -90 0 0 -45 0 -45 90 0 90 0 0 -45 0 -45 -90 0 -90 0 0 -45 0
-45 -90 0 -90 0 0 45 0 45 -45 0 -45 0 0 -45 0 -45 45 0 45 0 0 -45 0 -45 45
0 45 0 0 -45 0 -45 45 0 45 0 0 45 0 45 45 0 45 0 0 -45 0 -45 45 0 45 0 0
-45 0 -45 -45 0 -45 0 0 -90 0 -90 45 0 45 0 0 -180 0 -180 -45 0 -45 0 0 45
0 45 -45 0 -45 0 0 -45 0 -45 -45 0 -45 0 0 -90 0 -90 -45 0 -45 0 0 90 0 90
-45 0 -45 0 0 -45 0 -45 -45 0 -45 0 0 90 0 90 90 0 90 0 0 90 0 90 -45 0 -45
0 0 45 0 45 90 0 90 0 0 45 0 45 -45 0 -45 0 0 45 0 45 -45 0 -45 0 0 90 0 90
-45 0 -45 0 0 -45 0 -45 -45 0 -45 0 0 -90 0 -90 -45 0 -45 0 0 -45 0 -45 -90
0 -90 0 0 45 0 45 45 0 45 0 0 90 0 90 45 0 45 0 0 45 0 45 45 0 45 0 0 45 0
45 -45 0 -45 0 0 -45 0 -45 -45 0 -45 0 0 -45 0 -45 -45 0 -45 0 0 -45 0 -45
-45 0 -45 0 0 -90 0 -90 -45 0 -45 0 0 -45 0 -45 -135 0 -135 0 0 45 0 45 90
0 90 0 0 90 0 90 45 0 45 0 0 45 0 45 45 0 45 0 0 45 0 45 45 0 45 0 0 45 0
45 -45 0 -45 0 0 -45 0 -45 -45 0 -45 0 0 -45 0 -45 -45 0 -45 0 0 -45 0 -45
-90 0 -90 0 0 -90 0 -90 -45 0 -45 0 0 45 0 45 -90 0 -90 0 0 45 0 45 45 0 45
0 0 45 0 45 90 0 90 0 0 90 0 90 45 0 45 0 0 -45 0 -45 45 0 45 0 0 45 0 45
45 0 45 0 0 45 0 45 135 0 135 0 0 90 0 90 135 0 135 0 0 -45 0 -45 135 0 135
0 0 45 0 45 -45 0 -45 0 0 90 0 90 90 0 90 0 0 -45 0 -45 135 0 135 0 0 -45 0
-45 45 0 45 0 0 -45 0 -45 45 0 45 0 0 45 0 45 -45 0 -45 0 0 45 0 45 90 0 90
0 0 45 0 45 90 0 90 0 0 -45 0 -45 -45 0 -45 0 0 -45 0 -45 45 0 45 0 0 45 0
45 45 0 45 0 0 90 0 90 90 0 90 0 0 45 0 45 -45 0 -45 0 0 45 0 45 -45 0 -45
0 0 45 0 45 -45 0 -45 0 0 -45 0 -45 -45 0 -45 0 0 -45 0 -45 45 0 45 0 0 -45
0 -45 -90 0 -90 0 0 -45 0 -45 -90 0 -90 0 0 45 0 45 45 0 45 0 0 45 0 45 45
0 45 0 0 90 0 90 45 0 45 0 0 90 0 90 -90 0 -90 0 0 45 0 45 45 0 45 0 0 45 0
45 45 0 45 0 0 90 0 90 45 0 45 0 0 -45 0 -45 45 0 45 0 0 -45 0 -45 -45 0
-45 0 0 -45 0 -45 45 0 45 0 0 -45 0 -45 90 0 90 0 0 90 0 90 -45 0 -45 0 0
45 0 45 45 0 45 0 0 135 0 135 -45 0 -45 0 0 45 0 45 -45 0 -45 0 0 -45 0 -45
45 0 45 0 0 -90 0 -90 -45 0 -45 0 0 45 0 45 -45 0 -45 0 0 45 0 45 -45 0 -45
0 0 -45 0 -45 -45 0 -45 0 0 90 0 90 -90 0 -90 0 0 -45 0 -45 45 0 45 0 0 -45
0 -45 45 0 45 0 0 -45 0 -45 -90 0 -90 0 0 -90 0 -90 -90 0 -90 0 0 180 0 180
45 0 45 0 0 45 0 45 -45 0 -45 0 0 45 0 45 45 0 45 0 0 45 0 45 -45 0 -45 0 0
-45 0 -45 -45 0 -45 0 0 135 0 135 -45 0 -45 0 0 45 0 45 45 0 45 0 0 45 0 45
-45 0 -45 0 0 45 0 45 135 0 135 0 0 45 0 45 -135 0 -135 0 0 -45 0 -45 -45 0
-45 0 0 45 0 45 -90 0 -90 0 0 -45 0 -45 -135 0 -135 0 0 45 0 45 -180 0 -180
0 0 -45 0 -45 180 0 180 0 0 -45 0 -45 45 0 45 0 0 -45 0 -45 45 0 45 0 0 45
0 45 90 0 90 0 0 -135 0 -135 90 0 90 0 0 -90 0 -90 -45 0 -45 0 0 45 0 45
-45 0 -45 0 0 -45 0 -45 45 0 45 0 0 -45 0 -45 -90 0 -90 0 0 135 0 135 -45 0
-45 0 0 -90 0 -90 -45 0 -45 0 0 90 0 90 -45 0 -45 0 0 90 0 90 -45 0 -45 0 0
45 0 45 -90 0 -90 0 0 -90 0 -90 -135 0 -135 0 0 90 0 90 -45 0 -45 0 0 45 0
45 -45 0 -45 0 0 -45 0 -45 45 0 45 0 0 -90 0 -90 45 0 45 0 0 -45 0 -45 90 0
90 0 0 -90 0 -90 45 0 45 0 0 45 0 45 45 0 45 0 0 -90 0 -90 -90 0 -90 0 0
-45 0 -45 -45 0 -45 0 0 45 0 45 -45 0 -45 0 0 45 0 45 45 0 45 0 0 45 0 45
-45 0 -45 0 0 -45 0 -45 -45 0 -45 0 0 90 0 90 -45 0 -45 0 0 90 0 90 -45 0
-45 0 0 90 0 90 -45 0 -45 0 0 45 0 45 -45 0 -45 0 0 -45 0 -45 45 0 45 0 0
-45 0 -45 -45 0 -45 0 0 -45 0 -45 90 0 90 0 0 -45 0 -45 -45 0 -45 0 0 -45 0
-45 -45 0 -45 0 0 45 0 45 -45 0 -45 0 0 -45 0 -45 45 0 45 0 0 -45 0 -45 -45
0 -45 0 0 -90 0 -90 -45 0 -45 0 0 90 0 90 -45 0 -45 0 0 45 0 45 45 0 45 0 0
90 0 90 -45 0 -45 0 0 45 0 45 90 0 90 0 0 45 0 45 -45 0 -45 0 0 45 0 45 -90
0 -90 0 0 -90 0 -90 -45 0 -45 0 0 -45 0 -45 -45 0 -45 0 0 135 0 135 -180 0
-180 0 0 -45 0 -45 -45 0 -45 0 0 45 0 45 -45 0 -45 0 0 -90 0 -90 90 0 90 0
0 45 0 45 45 0 45 0 0 -90 0 -90 -45 0 -45 0 0 -45 0 -45 45 0 45 0 0 -45 0
-45 -90 0 -90 0 0 -90 0 -90 45 0 45 0 0 45 0 45 45 0 45 0 0 -90 0 -90 -45 0
-45 0 0 -45 0 -45 -45 0 -45 0 0 45 0 45 -45 0 -45 0 0 180 0 180 45 0 45 0 0
45 0 45 -90 0 -90 0 0 45 0 45 -180 0 -180 0 0 90 0 90 -45 0 -45 0 0 -90 0
-90 -45 0 -45 0 0 45 0 45 -45 0 -45 0 0 45 0 45 -135 0 -135 0 0 -45 0 -45
135 0 135 0 0 -90 0 -90 45 0 45 0 0 -45 0 -45 -45 0 -45 0 0 -90 0 -90 -45 0
-45 0 0 -90 0 -90 90 0 90 0 0 -45 0 -45 -45 0 -45 0 0 -45 0 -45 -90 0 -90 0
0 180 0 180 -45 0 -45 0 0 -90 0 -90 -45 0 -45 0 0 135 0 135 90 0 90 0 0 45
0 45 45 0 45 0 0 45 0 45 -45 0 -45 0 0 45 0 45 -135 0 -135 0 0 90 0 90 -45
0 -45 0 0 -90 0 -90 45 0 45 0 0 -90 0 -90 -45 0 -45 0 0 45 0 45 -45 0 -45 0
0 90 0 90 -45 0 -45 0 0 -45 0 -45 -45 0 -45 0 0 -45 0 -45 -45 0 -45 0 0 90
0 90 45 0 45 0 0 45 0 45 -45 0 -45 0 0 -45z m2070 -135 l0 -90 45 0 45 0 0
-45 0 -45 -45 0 -45 0 0 45 0 45 -45 0 -45 0 0 90 0 90 45 0 45 0 0 -90z
m-900 -45 l0 -45 -45 0 -45 0 0 45 0 45 45 0 45 0 0 -45z m3060 0 l0 -45 -45
0 -45 0 0 45 0 45 45 0 45 0 0 -45z m-4230 -180 l0 -135 45 0 45 0 0 -270 0
-270 45 0 45 0 0 -135 0 -135 45 0 45 0 0 45 0 45 45 0 45 0 0 90 0 90 -45 0
-45 0 0 45 0 45 -45 0 -45 0 0 270 0 270 45 0 45 0 0 45 0 45 -45 0 -45 0 0
45 0 45 45 0 45 0 0 -45 0 -45 45 0 45 0 0 -45 0 -45 45 0 45 0 0 -90 0 -90
-45 0 -45 0 0 45 0 45 -45 0 -45 0 0 -90 0 -90 90 0 90 0 0 -90 0 -90 -45 0
-45 0 0 45 0 45 -45 0 -45 0 0 -90 0 -90 135 0 135 0 0 90 0 90 45 0 45 0 0
-45 0 -45 45 0 45 0 0 -45 0 -45 45 0 45 0 0 -90 0 -90 45 0 45 0 0 45 0 45
90 0 90 0 0 45 0 45 45 0 45 0 0 45 0 45 -90 0 -90 0 0 45 0 45 135 0 135 0 0
45 0 45 -45 0 -45 0 0 45 0 45 -45 0 -45 0 0 -45 0 -45 -45 0 -45 0 0 45 0 45
-45 0 -45 0 0 45 0 45 45 0 45 0 0 90 0 90 90 0 90 0 0 -45 0 -45 -45 0 -45 0
0 -45 0 -45 45 0 45 0 0 -45 0 -45 45 0 45 0 0 135 0 135 45 0 45 0 0 45 0 45
45 0 45 0 0 -45 0 -45 -45 0 -45 0 0 -45 0 -45 45 0 45 0 0 -45 0 -45 45 0 45
0 0 -90 0 -90 45 0 45 0 0 -45 0 -45 45 0 45 0 0 -45 0 -45 -45 0 -45 0 0 45
0 45 -90 0 -90 0 0 -45 0 -45 -45 0 -45 0 0 45 0 45 -45 0 -45 0 0 -135 0
-135 45 0 45 0 0 45 0 45 45 0 45 0 0 -45 0 -45 45 0 45 0 0 45 0 45 135 0
135 0 0 90 0 90 180 0 180 0 0 -45 0 -45 135 0 135 0 0 90 0 90 45 0 45 0 0
-45 0 -45 90 0 90 0 0 135 0 135 45 0 45 0 0 45 0 45 45 0 45 0 0 -45 0 -45
45 0 45 0 0 -90 0 -90 45 0 45 0 0 -45 0 -45 -90 0 -90 0 0 -45 0 -45 135 0
135 0 0 -45 0 -45 135 0 135 0 0 45 0 45 45 0 45 0 0 45 0 45 45 0 45 0 0 45
0 45 135 0 135 0 0 -135 0 -135 45 0 45 0 0 45 0 45 45 0 45 0 0 45 0 45 45 0
45 0 0 -90 0 -90 45 0 45 0 0 -45 0 -45 45 0 45 0 0 -45 0 -45 -45 0 -45 0 0
45 0 45 -45 0 -45 0 0 -135 0 -135 -45 0 -45 0 0 -45 0 -45 45 0 45 0 0 -45 0
-45 45 0 45 0 0 45 0 45 45 0 45 0 0 90 0 90 45 0 45 0 0 -45 0 -45 135 0 135
0 0 -45 0 -45 45 0 45 0 0 -45 0 -45 -45 0 -45 0 0 45 0 45 -180 0 -180 0 0
-45 0 -45 -45 0 -45 0 0 -45 0 -45 45 0 45 0 0 -45 0 -45 -45 0 -45 0 0 -45 0
-45 45 0 45 0 0 -45 0 -45 -45 0 -45 0 0 45 0 45 -45 0 -45 0 0 45 0 45 -45 0
-45 0 0 -90 0 -90 -45 0 -45 0 0 -90 0 -90 -45 0 -45 0 0 45 0 45 -45 0 -45 0
0 90 0 90 -45 0 -45 0 0 -45 0 -45 -45 0 -45 0 0 90 0 90 -45 0 -45 0 0 -90 0
-90 -90 0 -90 0 0 -45 0 -45 45 0 45 0 0 -45 0 -45 45 0 45 0 0 45 0 45 45 0
45 0 0 -45 0 -45 -45 0 -45 0 0 -45 0 -45 -45 0 -45 0 0 45 0 45 -45 0 -45 0
0 45 0 45 -90 0 -90 0 0 -45 0 -45 45 0 45 0 0 -45 0 -45 45 0 45 0 0 -45 0
-45 -90 0 -90 0 0 45 0 45 -45 0 -45 0 0 -90 0 -90 -45 0 -45 0 0 45 0 45
-135 0 -135 0 0 -45 0 -45 -45 0 -45 0 0 -45 0 -45 90 0 90 0 0 45 0 45 45 0
45 0 0 -45 0 -45 -45 0 -45 0 0 -90 0 -90 -90 0 -90 0 0 45 0 45 -45 0 -45 0
0 135 0 135 90 0 90 0 0 45 0 45 45 0 45 0 0 45 0 45 -180 0 -180 0 0 -45 0
-45 -45 0 -45 0 0 135 0 135 -135 0 -135 0 0 -45 0 -45 45 0 45 0 0 -45 0 -45
45 0 45 0 0 -90 0 -90 45 0 45 0 0 -45 0 -45 -45 0 -45 0 0 -45 0 -45 90 0 90
0 0 -90 0 -90 45 0 45 0 0 -45 0 -45 45 0 45 0 0 -45 0 -45 45 0 45 0 0 45 0
45 45 0 45 0 0 -45 0 -45 90 0 90 0 0 -45 0 -45 -90 0 -90 0 0 -90 0 -90 -135
0 -135 0 0 -45 0 -45 -45 0 -45 0 0 45 0 45 45 0 45 0 0 45 0 45 -90 0 -90 0
0 90 0 90 -90 0 -90 0 0 -45 0 -45 -90 0 -90 0 0 45 0 45 -45 0 -45 0 0 45 0
45 -45 0 -45 0 0 -45 0 -45 -45 0 -45 0 0 45 0 45 -45 0 -45 0 0 -45 0 -45
-45 0 -45 0 0 45 0 45 -45 0 -45 0 0 -90 0 -90 135 0 135 0 0 -45 0 -45 45 0
45 0 0 -45 0 -45 -45 0 -45 0 0 45 0 45 -45 0 -45 0 0 -45 0 -45 -45 0 -45 0
0 -45 0 -45 45 0 45 0 0 -45 0 -45 90 0 90 0 0 -45 0 -45 45 0 45 0 0 -180 0
-180 -45 0 -45 0 0 -45 0 -45 45 0 45 0 0 -45 0 -45 45 0 45 0 0 45 0 45 90 0
90 0 0 90 0 90 -90 0 -90 0 0 135 0 135 90 0 90 0 0 -135 0 -135 45 0 45 0 0
-45 0 -45 45 0 45 0 0 45 0 45 45 0 45 0 0 45 0 45 -45 0 -45 0 0 45 0 45 -45
0 -45 0 0 45 0 45 90 0 90 0 0 45 0 45 180 0 180 0 0 45 0 45 45 0 45 0 0 90
0 90 45 0 45 0 0 -90 0 -90 135 0 135 0 0 90 0 90 45 0 45 0 0 45 0 45 90 0
90 0 0 -90 0 -90 90 0 90 0 0 -45 0 -45 -90 0 -90 0 0 -45 0 -45 -45 0 -45 0
0 45 0 45 -90 0 -90 0 0 -45 0 -45 45 0 45 0 0 -45 0 -45 90 0 90 0 0 -90 0
-90 45 0 45 0 0 90 0 90 45 0 45 0 0 -45 0 -45 45 0 45 0 0 45 0 45 45 0 45 0
0 -45 0 -45 45 0 45 0 0 -45 0 -45 -45 0 -45 0 0 -45 0 -45 90 0 90 0 0 45 0
45 45 0 45 0 0 45 0 45 45 0 45 0 0 -45 0 -45 -45 0 -45 0 0 -90 0 -90 -180 0
-180 0 0 -45 0 -45 45 0 45 0 0 -90 0 -90 -45 0 -45 0 0 90 0 90 -45 0 -45 0
0 -135 0 -135 -45 0 -45 0 0 45 0 45 -45 0 -45 0 0 -90 0 -90 45 0 45 0 0 -45
0 -45 45 0 45 0 0 45 0 45 45 0 45 0 0 45 0 45 90 0 90 0 0 -45 0 -45 -45 0
-45 0 0 -45 0 -45 90 0 90 0 0 45 0 45 45 0 45 0 0 45 0 45 45 0 45 0 0 45 0
45 45 0 45 0 0 -90 0 -90 -45 0 -45 0 0 -45 0 -45 -45 0 -45 0 0 -45 0 -45
-45 0 -45 0 0 -90 0 -90 90 0 90 0 0 45 0 45 135 0 135 0 0 45 0 45 -90 0 -90
0 0 45 0 45 90 0 90 0 0 45 0 45 -45 0 -45 0 0 45 0 45 90 0 90 0 0 -90 0 -90
45 0 45 0 0 -45 0 -45 45 0 45 0 0 -90 0 -90 -90 0 -90 0 0 45 0 45 -45 0 -45
0 0 -90 0 -90 -45 0 -45 0 0 -45 0 -45 90 0 90 0 0 -45 0 -45 45 0 45 0 0 -45
0 -45 135 0 135 0 0 45 0 45 45 0 45 0 0 45 0 45 -45 0 -45 0 0 45 0 45 -45 0
-45 0 0 90 0 90 45 0 45 0 0 45 0 45 45 0 45 0 0 -45 0 -45 45 0 45 0 0 -45 0
-45 -45 0 -45 0 0 -45 0 -45 45 0 45 0 0 -135 0 -135 -45 0 -45 0 0 -45 0 -45
-135 0 -135 0 0 -180 0 -180 45 0 45 0 0 -45 0 -45 -45 0 -45 0 0 45 0 45 -45
0 -45 0 0 -45 0 -45 -45 0 -45 0 0 45 0 45 -45 0 -45 0 0 90 0 90 -45 0 -45 0
0 -90 0 -90 -90 0 -90 0 0 -45 0 -45 -45 0 -45 0 0 -45 0 -45 90 0 90 0 0 -90
0 -90 -90 0 -90 0 0 90 0 90 -45 0 -45 0 0 45 0 45 -180 0 -180 0 0 -45 0 -45
-45 0 -45 0 0 -90 0 -90 -90 0 -90 0 0 135 0 135 45 0 45 0 0 -45 0 -45 45 0
45 0 0 90 0 90 -45 0 -45 0 0 45 0 45 -45 0 -45 0 0 45 0 45 -45 0 -45 0 0 45
0 45 -45 0 -45 0 0 -90 0 -90 -45 0 -45 0 0 45 0 45 -45 0 -45 0 0 90 0 90
-45 0 -45 0 0 -45 0 -45 -90 0 -90 0 0 -45 0 -45 45 0 45 0 0 -45 0 -45 90 0
90 0 0 -45 0 -45 -90 0 -90 0 0 45 0 45 -45 0 -45 0 0 45 0 45 -45 0 -45 0 0
-45 0 -45 -45 0 -45 0 0 -45 0 -45 -45 0 -45 0 0 -45 0 -45 -45 0 -45 0 0 135
0 135 -90 0 -90 0 0 -45 0 -45 45 0 45 0 0 -45 0 -45 -45 0 -45 0 0 -45 0 -45
-90 0 -90 0 0 90 0 90 -45 0 -45 0 0 -45 0 -45 -45 0 -45 0 0 -135 0 -135 -45
0 -45 0 0 45 0 45 -45 0 -45 0 0 45 0 45 -90 0 -90 0 0 -45 0 -45 45 0 45 0 0
-45 0 -45 -45 0 -45 0 0 -45 0 -45 135 0 135 0 0 -90 0 -90 90 0 90 0 0 -45 0
-45 -180 0 -180 0 0 -45 0 -45 45 0 45 0 0 -45 0 -45 -45 0 -45 0 0 45 0 45
-90 0 -90 0 0 45 0 45 -45 0 -45 0 0 45 0 45 45 0 45 0 0 45 0 45 -90 0 -90 0
0 45 0 45 -45 0 -45 0 0 -90 0 -90 -45 0 -45 0 0 -45 0 -45 -45 0 -45 0 0 -45
0 -45 -45 0 -45 0 0 -45 0 -45 -45 0 -45 0 0 45 0 45 45 0 45 0 0 45 0 45 45
0 45 0 0 45 0 45 45 0 45 0 0 45 0 45 -45 0 -45 0 0 45 0 45 45 0 45 0 0 45 0
45 90 0 90 0 0 45 0 45 45 0 45 0 0 -45 0 -45 90 0 90 0 0 45 0 45 -45 0 -45
0 0 90 0 90 -45 0 -45 0 0 -45 0 -45 -45 0 -45 0 0 135 0 135 45 0 45 0 0 -45
0 -45 45 0 45 0 0 -45 0 -45 135 0 135 0 0 135 0 135 -45 0 -45 0 0 45 0 45
-45 0 -45 0 0 90 0 90 -90 0 -90 0 0 -45 0 -45 45 0 45 0 0 -45 0 -45 -135 0
-135 0 0 -45 0 -45 -90 0 -90 0 0 45 0 45 -45 0 -45 0 0 45 0 45 45 0 45 0 0
-45 0 -45 45 0 45 0 0 45 0 45 45 0 45 0 0 45 0 45 90 0 90 0 0 45 0 45 45 0
45 0 0 45 0 45 45 0 45 0 0 45 0 45 -135 0 -135 0 0 90 0 90 -45 0 -45 0 0
-135 0 -135 45 0 45 0 0 -45 0 -45 -45 0 -45 0 0 45 0 45 -45 0 -45 0 0 -90 0
-90 -45 0 -45 0 0 90 0 90 45 0 45 0 0 45 0 45 -90 0 -90 0 0 -135 0 -135 -45
0 -45 0 0 -45 0 -45 -45 0 -45 0 0 -45 0 -45 -90 0 -90 0 0 -45 0 -45 -45 0
-45 0 0 -45 0 -45 45 0 45 0 0 -45 0 -45 -90 0 -90 0 0 -45 0 -45 -45 0 -45 0
0 90 0 90 45 0 45 0 0 45 0 45 -90 0 -90 0 0 45 0 45 -45 0 -45 0 0 -45 0 -45
-45 0 -45 0 0 -45 0 -45 90 0 90 0 0 -45 0 -45 -90 0 -90 0 0 -45 0 -45 -45 0
-45 0 0 -45 0 -45 -45 0 -45 0 0 45 0 45 -45 0 -45 0 0 45 0 45 -135 0 -135 0
0 45 0 45 90 0 90 0 0 45 0 45 -45 0 -45 0 0 45 0 45 45 0 45 0 0 45 0 45 45
0 45 0 0 45 0 45 45 0 45 0 0 90 0 90 -90 0 -90 0 0 -45 0 -45 -45 0 -45 0 0
45 0 45 45 0 45 0 0 45 0 45 -45 0 -45 0 0 45 0 45 -45 0 -45 0 0 45 0 45 -90
0 -90 0 0 -45 0 -45 -45 0 -45 0 0 45 0 45 45 0 45 0 0 45 0 45 90 0 90 0 0
-45 0 -45 45 0 45 0 0 45 0 45 45 0 45 0 0 45 0 45 -45 0 -45 0 0 45 0 45 -45
0 -45 0 0 -45 0 -45 -90 0 -90 0 0 45 0 45 90 0 90 0 0 45 0 45 -45 0 -45 0 0
45 0 45 -45 0 -45 0 0 45 0 45 45 0 45 0 0 -45 0 -45 45 0 45 0 0 90 0 90 -45
0 -45 0 0 90 0 90 -45 0 -45 0 0 45 0 45 -45 0 -45 0 0 45 0 45 -45 0 -45 0 0
45 0 45 45 0 45 0 0 -45 0 -45 45 0 45 0 0 45 0 45 45 0 45 0 0 -45 0 -45 45
0 45 0 0 -45 0 -45 45 0 45 0 0 45 0 45 90 0 90 0 0 -45 0 -45 45 0 45 0 0 90
0 90 90 0 90 0 0 45 0 45 45 0 45 0 0 45 0 45 45 0 45 0 0 -90 0 -90 45 0 45
0 0 -45 0 -45 90 0 90 0 0 45 0 45 -45 0 -45 0 0 45 0 45 -45 0 -45 0 0 135 0
135 -45 0 -45 0 0 -45 0 -45 -90 0 -90 0 0 -45 0 -45 -45 0 -45 0 0 -45 0 -45
-45 0 -45 0 0 90 0 90 45 0 45 0 0 90 0 90 45 0 45 0 0 45 0 45 45 0 45 0 0
45 0 45 -45 0 -45 0 0 45 0 45 45 0 45 0 0 45 0 45 45 0 45 0 0 45 0 45 -90 0
-90 0 0 45 0 45 45 0 45 0 0 45 0 45 -90 0 -90 0 0 45 0 45 -90 0 -90 0 0 45
0 45 90 0 90 0 0 45 0 45 -45 0 -45 0 0 225 0 225 -45 0 -45 0 0 45 0 45 -45
0 -45 0 0 -45 0 -45 -45 0 -45 0 0 -45 0 -45 45 0 45 0 0 -45 0 -45 45 0 45 0
0 -45 0 -45 -45 0 -45 0 0 -45 0 -45 45 0 45 0 0 -45 0 -45 -45 0 -45 0 0 -45
0 -45 -135 0 -135 0 0 45 0 45 -45 0 -45 0 0 -45 0 -45 -45 0 -45 0 0 135 0
135 -45 0 -45 0 0 45 0 45 45 0 45 0 0 -45 0 -45 45 0 45 0 0 90 0 90 45 0 45
0 0 -90 0 -90 45 0 45 0 0 -45 0 -45 45 0 45 0 0 45 0 45 45 0 45 0 0 45 0 45
-45 0 -45 0 0 45 0 45 -45 0 -45 0 0 45 0 45 45 0 45 0 0 45 0 45 45 0 45 0 0
45 0 45 -90 0 -90 0 0 90 0 90 45 0 45 0 0 45 0 45 90 0 90 0 0 45 0 45 -90 0
-90 0 0 45 0 45 90 0 90 0 0 45 0 45 90 0 90 0 0 45 0 45 -45 0 -45 0 0 90 0
90 45 0 45 0 0 90 0 90 45 0 45 0 0 -135z m630 90 l0 -45 -45 0 -45 0 0 45 0
45 45 0 45 0 0 -45z m1800 -45 l0 -90 -45 0 -45 0 0 90 0 90 45 0 45 0 0 -90z
m1170 0 l0 -90 -90 0 -90 0 0 45 0 45 45 0 45 0 0 45 0 45 45 0 45 0 0 -90z
m-1350 -225 l0 -135 -135 0 -135 0 0 135 0 135 135 0 135 0 0 -135z m180 0 l0
-45 -45 0 -45 0 0 45 0 45 45 0 45 0 0 -45z m1260 0 l0 -45 -45 0 -45 0 0 45
0 45 45 0 45 0 0 -45z m630 -180 l0 -45 -45 0 -45 0 0 45 0 45 45 0 45 0 0
-45z m360 -450 l0 -45 -45 0 -45 0 0 45 0 45 45 0 45 0 0 -45z m450 0 l0 -45
-45 0 -45 0 0 45 0 45 45 0 45 0 0 -45z m-630 -360 l0 -45 90 0 90 0 0 -45 0
-45 -45 0 -45 0 0 -45 0 -45 -45 0 -45 0 0 -45 0 -45 45 0 45 0 0 -45 0 -45
-45 0 -45 0 0 45 0 45 -45 0 -45 0 0 180 0 180 45 0 45 0 0 -45z m540 -90 l0
-45 -45 0 -45 0 0 45 0 45 45 0 45 0 0 -45z m-5220 -855 l0 -90 45 0 45 0 0
-45 0 -45 -90 0 -90 0 0 -45 0 -45 45 0 45 0 0 -45 0 -45 -180 0 -180 0 0 45
0 45 90 0 90 0 0 45 0 45 -45 0 -45 0 0 45 0 45 45 0 45 0 0 -45 0 -45 45 0
45 0 0 90 0 90 -90 0 -90 0 0 45 0 45 135 0 135 0 0 -90z m4680 -135 l0 -45
90 0 90 0 0 -45 0 -45 90 0 90 0 0 -45 0 -45 -135 0 -135 0 0 45 0 45 -45 0
-45 0 0 45 0 45 -45 0 -45 0 0 45 0 45 45 0 45 0 0 -45z m-540 -90 l0 -45 -90
0 -90 0 0 45 0 45 90 0 90 0 0 -45z m-90 -225 l0 -90 -45 0 -45 0 0 45 0 45
-45 0 -45 0 0 45 0 45 90 0 90 0 0 -90z m-4140 -135 l0 -135 -135 0 -135 0 0
135 0 135 135 0 135 0 0 -135z m2520 0 l0 -135 -135 0 -135 0 0 135 0 135 135
0 135 0 0 -135z m2520 0 l0 -135 -135 0 -135 0 0 135 0 135 135 0 135 0 0
-135z m180 45 l0 -90 45 0 45 0 0 45 0 45 45 0 45 0 0 -45 0 -45 -45 0 -45 0
0 -45 0 -45 -90 0 -90 0 0 135 0 135 45 0 45 0 0 -90z m-630 -180 l0 -90 -45
0 -45 0 0 90 0 90 45 0 45 0 0 -90z m270 -135 l0 -45 45 0 45 0 0 45 0 45 135
0 135 0 0 -45 0 -45 45 0 45 0 0 45 0 45 45 0 45 0 0 -45 0 -45 -45 0 -45 0 0
-45 0 -45 -135 0 -135 0 0 -45 0 -45 -45 0 -45 0 0 45 0 45 -45 0 -45 0 0 45
0 45 -45 0 -45 0 0 45 0 45 45 0 45 0 0 -45z m-180 -90 l0 -45 45 0 45 0 0
-45 0 -45 -45 0 -45 0 0 -90 0 -90 -90 0 -90 0 0 45 0 45 45 0 45 0 0 45 0 45
45 0 45 0 0 45 0 45 -45 0 -45 0 0 45 0 45 45 0 45 0 0 -45z m270 -315 l0 -90
45 0 45 0 0 90 0 90 90 0 90 0 0 -45 0 -45 45 0 45 0 0 -45 0 -45 -135 0 -135
0 0 -45 0 -45 45 0 45 0 0 -90 0 -90 -90 0 -90 0 0 90 0 90 -135 0 -135 0 0
45 0 45 45 0 45 0 0 45 0 45 45 0 45 0 0 45 0 45 45 0 45 0 0 -90z m-630 -90
l0 -90 -45 0 -45 0 0 90 0 90 45 0 45 0 0 -90z m990 -135 l0 -45 -45 0 -45 0
0 45 0 45 45 0 45 0 0 -45z m-3870 -1170 l0 -45 -45 0 -45 0 0 45 0 45 45 0
45 0 0 -45z m0 -180 l0 -45 -45 0 -45 0 0 -45 0 -45 -45 0 -45 0 0 45 0 45 45
0 45 0 0 45 0 45 45 0 45 0 0 -45z m2160 -135 l0 -180 -90 0 -90 0 0 -45 0
-45 45 0 45 0 0 -45 0 -45 -135 0 -135 0 0 -45 0 -45 45 0 45 0 0 -45 0 -45
-45 0 -45 0 0 -45 0 -45 -45 0 -45 0 0 45 0 45 45 0 45 0 0 45 0 45 -90 0 -90
0 0 45 0 45 -45 0 -45 0 0 45 0 45 45 0 45 0 0 90 0 90 45 0 45 0 0 45 0 45
-45 0 -45 0 0 45 0 45 135 0 135 0 0 -90 0 -90 45 0 45 0 0 45 0 45 45 0 45 0
0 45 0 45 -45 0 -45 0 0 45 0 45 90 0 90 0 0 -180z m-1080 -135 l0 -135 -135
0 -135 0 0 135 0 135 135 0 135 0 0 -135z m270 90 l0 -45 -45 0 -45 0 0 -45 0
-45 -45 0 -45 0 0 45 0 45 45 0 45 0 0 45 0 45 45 0 45 0 0 -45z m2250 -90 l0
-135 -135 0 -135 0 0 135 0 135 135 0 135 0 0 -135z m-4680 0 l0 -45 45 0 45
0 0 45 0 45 45 0 45 0 0 -45 0 -45 -45 0 -45 0 0 -45 0 -45 -45 0 -45 0 0 45
0 45 -45 0 -45 0 0 -45 0 -45 -45 0 -45 0 0 90 0 90 90 0 90 0 0 -45z m720 0
l0 -45 -45 0 -45 0 0 45 0 45 45 0 45 0 0 -45z m4140 -180 l0 -45 45 0 45 0 0
-45 0 -45 -90 0 -90 0 0 -45 0 -45 45 0 45 0 0 -45 0 -45 -45 0 -45 0 0 45 0
45 -135 0 -135 0 0 45 0 45 -45 0 -45 0 0 45 0 45 90 0 90 0 0 -45 0 -45 45 0
45 0 0 45 0 45 45 0 45 0 0 45 0 45 45 0 45 0 0 -45z m-630 -180 l0 -45 -45 0
-45 0 0 45 0 45 45 0 45 0 0 -45z"/>
<path d="M990 5715 l0 -45 45 0 45 0 0 45 0 45 -45 0 -45 0 0 -45z"/>
<path d="M2070 5715 l0 -45 45 0 45 0 0 45 0 45 -45 0 -45 0 0 -45z"/>
<path d="M2430 5625 l0 -135 45 0 45 0 0 135 0 135 -45 0 -45 0 0 -135z"/>
<path d="M3870 5715 l0 -45 45 0 45 0 0 45 0 45 -45 0 -45 0 0 -45z"/>
<path d="M990 5535 l0 -45 -45 0 -45 0 0 -90 0 -90 -45 0 -45 0 0 -45 0 -45
45 0 45 0 0 -45 0 -45 -45 0 -45 0 0 -90 0 -90 135 0 135 0 0 -45 0 -45 -45 0
-45 0 0 -225 0 -225 90 0 90 0 0 45 0 45 90 0 90 0 0 45 0 45 45 0 45 0 0 -90
0 -90 -45 0 -45 0 0 -45 0 -45 -45 0 -45 0 0 -90 0 -90 270 0 270 0 0 -45 0
-45 45 0 45 0 0 -45 0 -45 -45 0 -45 0 0 -45 0 -45 45 0 45 0 0 45 0 45 45 0
45 0 0 -90 0 -90 -45 0 -45 0 0 -45 0 -45 -90 0 -90 0 0 45 0 45 -45 0 -45 0
0 45 0 45 45 0 45 0 0 90 0 90 -225 0 -225 0 0 -45 0 -45 135 0 135 0 0 -45 0
-45 -45 0 -45 0 0 -90 0 -90 45 0 45 0 0 -45 0 -45 -45 0 -45 0 0 -45 0 -45
45 0 45 0 0 -90 0 -90 45 0 45 0 0 -45 0 -45 90 0 90 0 0 45 0 45 45 0 45 0 0
-90 0 -90 -45 0 -45 0 0 -45 0 -45 90 0 90 0 0 -45 0 -45 135 0 135 0 0 -45 0
-45 -90 0 -90 0 0 -90 0 -90 -45 0 -45 0 0 45 0 45 -45 0 -45 0 0 -90 0 -90
-45 0 -45 0 0 -45 0 -45 -45 0 -45 0 0 45 0 45 -45 0 -45 0 0 45 0 45 -90 0
-90 0 0 -45 0 -45 -45 0 -45 0 0 45 0 45 -45 0 -45 0 0 135 0 135 -45 0 -45 0
0 45 0 45 -45 0 -45 0 0 -45 0 -45 -45 0 -45 0 0 -90 0 -90 -45 0 -45 0 0 -45
0 -45 45 0 45 0 0 -45 0 -45 -45 0 -45 0 0 -90 0 -90 -45 0 -45 0 0 -45 0 -45
-90 0 -90 0 0 -45 0 -45 90 0 90 0 0 45 0 45 45 0 45 0 0 -90 0 -90 -45 0 -45
0 0 -45 0 -45 -45 0 -45 0 0 -45 0 -45 -45 0 -45 0 0 -45 0 -45 45 0 45 0 0
-45 0 -45 45 0 45 0 0 45 0 45 90 0 90 0 0 -45 0 -45 -45 0 -45 0 0 -45 0 -45
45 0 45 0 0 -90 0 -90 -45 0 -45 0 0 -45 0 -45 -45 0 -45 0 0 -45 0 -45 45 0
45 0 0 -45 0 -45 -45 0 -45 0 0 -45 0 -45 45 0 45 0 0 -90 0 -90 45 0 45 0 0
90 0 90 -45 0 -45 0 0 45 0 45 45 0 45 0 0 135 0 135 45 0 45 0 0 90 0 90 90
0 90 0 0 -90 0 -90 45 0 45 0 0 45 0 45 45 0 45 0 0 -45 0 -45 45 0 45 0 0 45
0 45 45 0 45 0 0 -45 0 -45 135 0 135 0 0 90 0 90 -45 0 -45 0 0 -45 0 -45
-90 0 -90 0 0 45 0 45 45 0 45 0 0 45 0 45 -45 0 -45 0 0 45 0 45 135 0 135 0
0 -45 0 -45 45 0 45 0 0 45 0 45 90 0 90 0 0 45 0 45 45 0 45 0 0 180 0 180
90 0 90 0 0 -135 0 -135 -45 0 -45 0 0 -45 0 -45 45 0 45 0 0 45 0 45 45 0 45
0 0 -45 0 -45 45 0 45 0 0 45 0 45 45 0 45 0 0 -45 0 -45 90 0 90 0 0 -90 0
-90 45 0 45 0 0 -45 0 -45 -90 0 -90 0 0 -90 0 -90 -45 0 -45 0 0 -45 0 -45
45 0 45 0 0 -90 0 -90 45 0 45 0 0 90 0 90 90 0 90 0 0 -90 0 -90 -45 0 -45 0
0 -45 0 -45 -45 0 -45 0 0 -45 0 -45 45 0 45 0 0 45 0 45 45 0 45 0 0 45 0 45
45 0 45 0 0 -90 0 -90 45 0 45 0 0 -45 0 -45 45 0 45 0 0 45 0 45 -45 0 -45 0
0 135 0 135 90 0 90 0 0 -45 0 -45 45 0 45 0 0 -45 0 -45 45 0 45 0 0 -45 0
-45 45 0 45 0 0 45 0 45 -45 0 -45 0 0 90 0 90 -90 0 -90 0 0 90 0 90 90 0 90
0 0 -45 0 -45 45 0 45 0 0 90 0 90 45 0 45 0 0 45 0 45 45 0 45 0 0 -135 0
-135 -45 0 -45 0 0 -45 0 -45 -45 0 -45 0 0 -45 0 -45 90 0 90 0 0 45 0 45 90
0 90 0 0 45 0 45 45 0 45 0 0 45 0 45 45 0 45 0 0 -45 0 -45 45 0 45 0 0 -45
0 -45 90 0 90 0 0 -45 0 -45 45 0 45 0 0 -45 0 -45 45 0 45 0 0 90 0 90 90 0
90 0 0 -45 0 -45 -45 0 -45 0 0 -45 0 -45 45 0 45 0 0 -45 0 -45 -90 0 -90 0
0 -45 0 -45 90 0 90 0 0 45 0 45 45 0 45 0 0 -45 0 -45 180 0 180 0 0 45 0 45
45 0 45 0 0 45 0 45 45 0 45 0 0 45 0 45 45 0 45 0 0 -45 0 -45 45 0 45 0 0
-45 0 -45 45 0 45 0 0 180 0 180 -45 0 -45 0 0 -90 0 -90 -45 0 -45 0 0 135 0
135 -45 0 -45 0 0 45 0 45 -45 0 -45 0 0 45 0 45 -45 0 -45 0 0 -90 0 -90 90
0 90 0 0 -45 0 -45 -135 0 -135 0 0 45 0 45 -45 0 -45 0 0 90 0 90 -45 0 -45
0 0 45 0 45 -90 0 -90 0 0 45 0 45 45 0 45 0 0 90 0 90 -90 0 -90 0 0 -45 0
-45 -45 0 -45 0 0 45 0 45 -90 0 -90 0 0 45 0 45 -45 0 -45 0 0 -45 0 -45 -45
0 -45 0 0 90 0 90 45 0 45 0 0 135 0 135 90 0 90 0 0 -45 0 -45 -45 0 -45 0 0
-45 0 -45 45 0 45 0 0 45 0 45 45 0 45 0 0 45 0 45 -45 0 -45 0 0 45 0 45 -45
0 -45 0 0 45 0 45 45 0 45 0 0 45 0 45 -45 0 -45 0 0 45 0 45 -45 0 -45 0 0
-45 0 -45 -45 0 -45 0 0 135 0 135 -45 0 -45 0 0 -45 0 -45 -45 0 -45 0 0 45
0 45 -45 0 -45 0 0 45 0 45 -45 0 -45 0 0 -90 0 -90 90 0 90 0 0 -90 0 -90
-45 0 -45 0 0 45 0 45 -45 0 -45 0 0 -45 0 -45 45 0 45 0 0 -45 0 -45 -45 0
-45 0 0 -45 0 -45 -45 0 -45 0 0 -45 0 -45 -45 0 -45 0 0 -45 0 -45 45 0 45 0
0 -90 0 -90 -90 0 -90 0 0 90 0 90 -45 0 -45 0 0 45 0 45 45 0 45 0 0 45 0 45
45 0 45 0 0 90 0 90 45 0 45 0 0 90 0 90 -135 0 -135 0 0 -45 0 -45 -45 0 -45
0 0 -45 0 -45 90 0 90 0 0 -45 0 -45 -90 0 -90 0 0 -45 0 -45 -45 0 -45 0 0
-45 0 -45 45 0 45 0 0 -45 0 -45 45 0 45 0 0 -45 0 -45 -45 0 -45 0 0 -45 0
-45 -45 0 -45 0 0 45 0 45 -45 0 -45 0 0 45 0 45 -45 0 -45 0 0 -90 0 -90 -45
0 -45 0 0 45 0 45 -45 0 -45 0 0 -45 0 -45 -45 0 -45 0 0 90 0 90 -45 0 -45 0
0 45 0 45 -45 0 -45 0 0 45 0 45 45 0 45 0 0 90 0 90 -90 0 -90 0 0 -45 0 -45
-90 0 -90 0 0 45 0 45 -45 0 -45 0 0 45 0 45 225 0 225 0 0 45 0 45 -90 0 -90
0 0 45 0 45 -90 0 -90 0 0 -45 0 -45 -45 0 -45 0 0 45 0 45 -45 0 -45 0 0 45
0 45 45 0 45 0 0 90 0 90 45 0 45 0 0 -45 0 -45 45 0 45 0 0 45 0 45 -45 0
-45 0 0 45 0 45 -90 0 -90 0 0 90 0 90 90 0 90 0 0 45 0 45 45 0 45 0 0 -45 0
-45 45 0 45 0 0 45 0 45 45 0 45 0 0 -45 0 -45 45 0 45 0 0 45 0 45 -45 0 -45
0 0 45 0 45 135 0 135 0 0 45 0 45 45 0 45 0 0 45 0 45 45 0 45 0 0 90 0 90
-45 0 -45 0 0 45 0 45 -45 0 -45 0 0 90 0 90 45 0 45 0 0 45 0 45 45 0 45 0 0
45 0 45 -45 0 -45 0 0 -45 0 -45 -45 0 -45 0 0 -45 0 -45 -180 0 -180 0 0 -45
0 -45 -45 0 -45 0 0 45 0 45 -45 0 -45 0 0 45 0 45 135 0 135 0 0 45 0 45 -45
0 -45 0 0 90 0 90 90 0 90 0 0 -135 0 -135 45 0 45 0 0 135 0 135 45 0 45 0 0
-45 0 -45 45 0 45 0 0 45 0 45 45 0 45 0 0 -45 0 -45 45 0 45 0 0 -45 0 -45
45 0 45 0 0 -90 0 -90 45 0 45 0 0 45 0 45 45 0 45 0 0 45 0 45 -90 0 -90 0 0
90 0 90 45 0 45 0 0 -45 0 -45 90 0 90 0 0 -135 0 -135 135 0 135 0 0 -45 0
-45 45 0 45 0 0 45 0 45 90 0 90 0 0 45 0 45 90 0 90 0 0 45 0 45 -45 0 -45 0
0 45 0 45 90 0 90 0 0 -45 0 -45 45 0 45 0 0 45 0 45 45 0 45 0 0 45 0 45
-135 0 -135 0 0 90 0 90 45 0 45 0 0 45 0 45 45 0 45 0 0 90 0 90 -45 0 -45 0
0 -45 0 -45 -90 0 -90 0 0 45 0 45 -45 0 -45 0 0 45 0 45 -45 0 -45 0 0 -90 0
-90 -45 0 -45 0 0 45 0 45 -45 0 -45 0 0 45 0 45 -45 0 -45 0 0 -45 0 -45 -45
0 -45 0 0 -45 0 -45 -45 0 -45 0 0 45 0 45 -45 0 -45 0 0 -45 0 -45 -45 0 -45
0 0 90 0 90 -135 0 -135 0 0 45 0 45 -135 0 -135 0 0 -45 0 -45 -45 0 -45 0 0
-45 0 -45 -135 0 -135 0 0 -45 0 -45 -45 0 -45 0 0 45 0 45 -45 0 -45 0 0 -45
0 -45 -45 0 -45 0 0 45 0 45 -90 0 -90 0 0 -90 0 -90 45 0 45 0 0 -135 0 -135
45 0 45 0 0 45 0 45 45 0 45 0 0 -90 0 -90 -225 0 -225 0 0 45 0 45 -45 0 -45
0 0 -45 0 -45 -90 0 -90 0 0 45 0 45 -90 0 -90 0 0 45 0 45 135 0 135 0 0 180
0 180 -45 0 -45 0 0 -90 0 -90 -45 0 -45 0 0 45 0 45 -45 0 -45 0 0 -90 0 -90
-90 0 -90 0 0 -45 0 -45 -45 0 -45 0 0 45 0 45 -45 0 -45 0 0 45 0 45 -90 0
-90 0 0 45 0 45 90 0 90 0 0 45 0 45 -45 0 -45 0 0 180 0 180 -45 0 -45 0 0
-45z m0 -270 l0 -45 -45 0 -45 0 0 45 0 45 45 0 45 0 0 -45z m2250 0 l0 -45
45 0 45 0 0 -45 0 -45 -45 0 -45 0 0 -45 0 -45 90 0 90 0 0 -45 0 -45 45 0 45
0 0 45 0 45 90 0 90 0 0 -90 0 -90 -135 0 -135 0 0 -45 0 -45 -45 0 -45 0 0
45 0 45 -90 0 -90 0 0 -45 0 -45 -45 0 -45 0 0 90 0 90 45 0 45 0 0 45 0 45
-45 0 -45 0 0 45 0 45 -45 0 -45 0 0 -45 0 -45 -45 0 -45 0 0 -45 0 -45 45 0
45 0 0 -90 0 -90 -45 0 -45 0 0 45 0 45 -180 0 -180 0 0 90 0 90 45 0 45 0 0
45 0 45 45 0 45 0 0 -90 0 -90 45 0 45 0 0 90 0 90 45 0 45 0 0 45 0 45 90 0
90 0 0 45 0 45 90 0 90 0 0 -45z m720 -135 l0 -90 -45 0 -45 0 0 -135 0 -135
-45 0 -45 0 0 180 0 180 45 0 45 0 0 45 0 45 45 0 45 0 0 -90z m-1620 -45 l0
-45 -45 0 -45 0 0 45 0 45 45 0 45 0 0 -45z m1890 -90 l0 -45 45 0 45 0 0 -45
0 -45 -45 0 -45 0 0 45 0 45 -90 0 -90 0 0 -90 0 -90 -45 0 -45 0 0 90 0 90
45 0 45 0 0 45 0 45 90 0 90 0 0 -45z m-2790 -225 l0 -90 -45 0 -45 0 0 90 0
90 45 0 45 0 0 -90z m-270 -45 l0 -45 -45 0 -45 0 0 45 0 45 45 0 45 0 0 -45z
m3150 0 l0 -45 -45 0 -45 0 0 -45 0 -45 -45 0 -45 0 0 45 0 45 45 0 45 0 0 45
0 45 45 0 45 0 0 -45z m-2700 -90 l0 -45 45 0 45 0 0 -45 0 -45 90 0 90 0 0
-45 0 -45 135 0 135 0 0 45 0 45 -45 0 -45 0 0 45 0 45 90 0 90 0 0 -45 0 -45
45 0 45 0 0 45 0 45 45 0 45 0 0 -45 0 -45 -45 0 -45 0 0 -90 0 -90 45 0 45 0
0 -45 0 -45 -45 0 -45 0 0 45 0 45 -45 0 -45 0 0 -45 0 -45 -45 0 -45 0 0 -45
0 -45 45 0 45 0 0 -45 0 -45 -45 0 -45 0 0 45 0 45 -45 0 -45 0 0 45 0 45 45
0 45 0 0 45 0 45 -90 0 -90 0 0 -45 0 -45 -45 0 -45 0 0 -45 0 -45 45 0 45 0
0 -45 0 -45 -45 0 -45 0 0 45 0 45 -45 0 -45 0 0 45 0 45 -45 0 -45 0 0 45 0
45 45 0 45 0 0 45 0 45 -45 0 -45 0 0 45 0 45 -45 0 -45 0 0 -135 0 -135 -45
0 -45 0 0 45 0 45 -45 0 -45 0 0 -45 0 -45 -45 0 -45 0 0 45 0 45 45 0 45 0 0
45 0 45 45 0 45 0 0 135 0 135 45 0 45 0 0 -45z m360 0 l0 -45 -45 0 -45 0 0
45 0 45 45 0 45 0 0 -45z m630 0 l0 -45 -45 0 -45 0 0 45 0 45 45 0 45 0 0
-45z m1440 -45 l0 -90 -90 0 -90 0 0 45 0 45 -45 0 -45 0 0 45 0 45 135 0 135
0 0 -90z m-2880 -45 l0 -45 -45 0 -45 0 0 45 0 45 45 0 45 0 0 -45z m1440
-315 l0 -90 -45 0 -45 0 0 -45 0 -45 90 0 90 0 0 90 0 90 45 0 45 0 0 45 0 45
90 0 90 0 0 -45 0 -45 45 0 45 0 0 -45 0 -45 -45 0 -45 0 0 45 0 45 -90 0 -90
0 0 -45 0 -45 45 0 45 0 0 -45 0 -45 -45 0 -45 0 0 -90 0 -90 -45 0 -45 0 0
-90 0 -90 -45 0 -45 0 0 45 0 45 -90 0 -90 0 0 -45 0 -45 -45 0 -45 0 0 45 0
45 -135 0 -135 0 0 45 0 45 135 0 135 0 0 90 0 90 45 0 45 0 0 45 0 45 45 0
45 0 0 90 0 90 45 0 45 0 0 -90z m450 -225 l0 -45 -45 0 -45 0 0 -45 0 -45
-45 0 -45 0 0 45 0 45 45 0 45 0 0 45 0 45 45 0 45 0 0 -45z m-1440 -270 l0
-45 45 0 45 0 0 -90 0 -90 -45 0 -45 0 0 90 0 90 -45 0 -45 0 0 45 0 45 45 0
45 0 0 -45z m450 -90 l0 -45 -90 0 -90 0 0 45 0 45 90 0 90 0 0 -45z m-180
-180 l0 -45 45 0 45 0 0 45 0 45 90 0 90 0 0 -45 0 -45 45 0 45 0 0 -45 0 -45
45 0 45 0 0 -90 0 -90 -45 0 -45 0 0 -45 0 -45 -135 0 -135 0 0 45 0 45 135 0
135 0 0 45 0 45 -135 0 -135 0 0 45 0 45 -45 0 -45 0 0 45 0 45 -45 0 -45 0 0
-45 0 -45 -90 0 -90 0 0 45 0 45 90 0 90 0 0 45 0 45 45 0 45 0 0 -45z m-720
-540 l0 -45 -45 0 -45 0 0 45 0 45 45 0 45 0 0 -45z m1260 0 l0 -45 -45 0 -45
0 0 -135 0 -135 45 0 45 0 0 -45 0 -45 45 0 45 0 0 45 0 45 45 0 45 0 0 -90 0
-90 90 0 90 0 0 -45 0 -45 45 0 45 0 0 -45 0 -45 -45 0 -45 0 0 45 0 45 -135
0 -135 0 0 45 0 45 -45 0 -45 0 0 45 0 45 -45 0 -45 0 0 -45 0 -45 -90 0 -90
0 0 -45 0 -45 -90 0 -90 0 0 45 0 45 45 0 45 0 0 90 0 90 45 0 45 0 0 90 0 90
45 0 45 0 0 45 0 45 45 0 45 0 0 45 0 45 45 0 45 0 0 -45z m1350 -90 l0 -45
-45 0 -45 0 0 45 0 45 45 0 45 0 0 -45z m540 -90 l0 -45 45 0 45 0 0 45 0 45
45 0 45 0 0 -45 0 -45 -45 0 -45 0 0 -90 0 -90 -90 0 -90 0 0 -45 0 -45 45 0
45 0 0 -90 0 -90 -45 0 -45 0 0 -180 0 -180 -45 0 -45 0 0 135 0 135 -45 0
-45 0 0 -135 0 -135 -45 0 -45 0 0 135 0 135 -45 0 -45 0 0 45 0 45 90 0 90 0
0 45 0 45 90 0 90 0 0 45 0 45 -180 0 -180 0 0 45 0 45 90 0 90 0 0 45 0 45
45 0 45 0 0 45 0 45 45 0 45 0 0 45 0 45 45 0 45 0 0 -45z m-1530 -90 l0 -45
-45 0 -45 0 0 45 0 45 45 0 45 0 0 -45z m-1440 -135 l0 -90 45 0 45 0 0 90 0
90 45 0 45 0 0 -45 0 -45 90 0 90 0 0 -45 0 -45 -135 0 -135 0 0 -45 0 -45 45
0 45 0 0 -45 0 -45 90 0 90 0 0 45 0 45 45 0 45 0 0 90 0 90 45 0 45 0 0 -180
0 -180 135 0 135 0 0 -90 0 -90 -45 0 -45 0 0 45 0 45 -45 0 -45 0 0 -90 0
-90 -45 0 -45 0 0 45 0 45 -135 0 -135 0 0 -45 0 -45 -45 0 -45 0 0 -45 0 -45
45 0 45 0 0 -45 0 -45 -45 0 -45 0 0 45 0 45 -45 0 -45 0 0 45 0 45 45 0 45 0
0 90 0 90 45 0 45 0 0 45 0 45 -45 0 -45 0 0 45 0 45 -45 0 -45 0 0 45 0 45
-45 0 -45 0 0 45 0 45 -45 0 -45 0 0 45 0 45 -90 0 -90 0 0 -90 0 -90 45 0 45
0 0 -45 0 -45 -90 0 -90 0 0 45 0 45 -45 0 -45 0 0 45 0 45 45 0 45 0 0 90 0
90 180 0 180 0 0 -90z m1350 -315 l0 -45 135 0 135 0 0 -45 0 -45 45 0 45 0 0
45 0 45 45 0 45 0 0 -45 0 -45 45 0 45 0 0 45 0 45 45 0 45 0 0 45 0 45 45 0
45 0 0 -135 0 -135 135 0 135 0 0 -45 0 -45 -45 0 -45 0 0 -45 0 -45 45 0 45
0 0 -90 0 -90 -90 0 -90 0 0 135 0 135 -45 0 -45 0 0 45 0 45 -45 0 -45 0 0
45 0 45 -45 0 -45 0 0 -45 0 -45 -45 0 -45 0 0 -45 0 -45 45 0 45 0 0 -45 0
-45 90 0 90 0 0 -45 0 -45 -45 0 -45 0 0 -45 0 -45 45 0 45 0 0 -45 0 -45 -45
0 -45 0 0 45 0 45 -45 0 -45 0 0 90 0 90 -45 0 -45 0 0 -90 0 -90 -45 0 -45 0
0 90 0 90 -45 0 -45 0 0 45 0 45 45 0 45 0 0 45 0 45 -90 0 -90 0 0 45 0 45
-90 0 -90 0 0 45 0 45 -45 0 -45 0 0 -45 0 -45 -45 0 -45 0 0 90 0 90 90 0 90
0 0 -45z m900 0 l0 -45 -45 0 -45 0 0 45 0 45 45 0 45 0 0 -45z m-2520 -90 l0
-45 45 0 45 0 0 45 0 45 90 0 90 0 0 -45 0 -45 45 0 45 0 0 -45 0 -45 -90 0
-90 0 0 45 0 45 -45 0 -45 0 0 -45 0 -45 -45 0 -45 0 0 -45 0 -45 -45 0 -45 0
0 45 0 45 45 0 45 0 0 45 0 45 -90 0 -90 0 0 -45 0 -45 -45 0 -45 0 0 45 0 45
45 0 45 0 0 45 0 45 90 0 90 0 0 -45z m2700 0 l0 -45 45 0 45 0 0 -45 0 -45
-45 0 -45 0 0 45 0 45 -45 0 -45 0 0 45 0 45 45 0 45 0 0 -45z m720 -180 l0
-45 -45 0 -45 0 0 -45 0 -45 45 0 45 0 0 -90 0 -90 45 0 45 0 0 180 0 180 45
0 45 0 0 -135 0 -135 45 0 45 0 0 45 0 45 45 0 45 0 0 -45 0 -45 90 0 90 0 0
-90 0 -90 45 0 45 0 0 -90 0 -90 45 0 45 0 0 -45 0 -45 90 0 90 0 0 -45 0 -45
-45 0 -45 0 0 -45 0 -45 -45 0 -45 0 0 45 0 45 -45 0 -45 0 0 -45 0 -45 -90 0
-90 0 0 45 0 45 -45 0 -45 0 0 45 0 45 45 0 45 0 0 45 0 45 -45 0 -45 0 0 45
0 45 -135 0 -135 0 0 45 0 45 -135 0 -135 0 0 45 0 45 -90 0 -90 0 0 -45 0
-45 -90 0 -90 0 0 90 0 90 -45 0 -45 0 0 45 0 45 -45 0 -45 0 0 45 0 45 45 0
45 0 0 -45 0 -45 90 0 90 0 0 -90 0 -90 45 0 45 0 0 45 0 45 45 0 45 0 0 45 0
45 45 0 45 0 0 45 0 45 45 0 45 0 0 45 0 45 45 0 45 0 0 -45z m-3420 -180 l0
-45 -45 0 -45 0 0 45 0 45 45 0 45 0 0 -45z m270 0 l0 -45 -45 0 -45 0 0 45 0
45 45 0 45 0 0 -45z m1800 -270 l0 -45 -45 0 -45 0 0 45 0 45 45 0 45 0 0 -45z"/>
<path d="M3060 5175 l0 -45 45 0 45 0 0 45 0 45 -45 0 -45 0 0 -45z"/>
<path d="M3330 4905 l0 -45 45 0 45 0 0 45 0 45 -45 0 -45 0 0 -45z"/>
<path d="M2160 4365 l0 -45 45 0 45 0 0 45 0 45 -45 0 -45 0 0 -45z"/>
<path d="M1800 4275 l0 -45 45 0 45 0 0 45 0 45 -45 0 -45 0 0 -45z"/>
<path d="M2340 3825 l0 -45 45 0 45 0 0 45 0 45 -45 0 -45 0 0 -45z"/>
<path d="M1980 3375 l0 -45 90 0 90 0 0 45 0 45 -90 0 -90 0 0 -45z"/>
<path d="M2250 2565 l0 -45 45 0 45 0 0 45 0 45 -45 0 -45 0 0 -45z"/>
<path d="M4230 2655 l0 -45 45 0 45 0 0 45 0 45 -45 0 -45 0 0 -45z"/>
<path d="M1710 2160 l0 -90 90 0 90 0 0 45 0 45 -45 0 -45 0 0 45 0 45 -45 0
-45 0 0 -90z"/>
<path d="M3060 1845 l0 -45 45 0 45 0 0 45 0 45 -45 0 -45 0 0 -45z"/>
<path d="M4590 1575 l0 -45 45 0 45 0 0 45 0 45 -45 0 -45 0 0 -45z"/>
<path d="M4950 1215 l0 -45 45 0 45 0 0 45 0 45 -45 0 -45 0 0 -45z"/>
<path d="M3870 5535 l0 -45 -45 0 -45 0 0 -45 0 -45 45 0 45 0 0 45 0 45 45 0
45 0 0 45 0 45 -45 0 -45 0 0 -45z"/>
<path d="M4680 5355 l0 -135 45 0 45 0 0 -45 0 -45 -45 0 -45 0 0 -90 0 -90
-45 0 -45 0 0 -45 0 -45 90 0 90 0 0 -45 0 -45 45 0 45 0 0 -45 0 -45 -45 0
-45 0 0 -45 0 -45 45 0 45 0 0 -45 0 -45 45 0 45 0 0 -45 0 -45 45 0 45 0 0
90 0 90 45 0 45 0 0 45 0 45 45 0 45 0 0 45 0 45 -90 0 -90 0 0 90 0 90 45 0
45 0 0 135 0 135 45 0 45 0 0 45 0 45 -90 0 -90 0 0 -45 0 -45 -45 0 -45 0 0
45 0 45 -45 0 -45 0 0 45 0 45 -45 0 -45 0 0 45 0 45 -45 0 -45 0 0 -135z
m360 -315 l0 -90 -45 0 -45 0 0 -45 0 -45 -90 0 -90 0 0 45 0 45 45 0 45 0 0
45 0 45 -45 0 -45 0 0 45 0 45 135 0 135 0 0 -90z m0 -360 l0 -90 -45 0 -45 0
0 90 0 90 45 0 45 0 0 -90z"/>
<path d="M630 5175 l0 -45 45 0 45 0 0 45 0 45 -45 0 -45 0 0 -45z"/>
<path d="M1890 4950 l0 -90 45 0 45 0 0 90 0 90 -45 0 -45 0 0 -90z"/>
<path d="M2070 4905 l0 -45 45 0 45 0 0 45 0 45 -45 0 -45 0 0 -45z"/>
<path d="M450 4455 l0 -45 45 0 45 0 0 45 0 45 -45 0 -45 0 0 -45z"/>
<path d="M630 4455 l0 -45 45 0 45 0 0 45 0 45 -45 0 -45 0 0 -45z"/>
<path d="M990 4275 l0 -45 45 0 45 0 0 45 0 45 -45 0 -45 0 0 -45z"/>
<path d="M3240 3825 l0 -45 -45 0 -45 0 0 -45 0 -45 -45 0 -45 0 0 -45 0 -45
45 0 45 0 0 -45 0 -45 45 0 45 0 0 45 0 45 -45 0 -45 0 0 45 0 45 90 0 90 0 0
90 0 90 -45 0 -45 0 0 -45z"/>
<path d="M1170 3735 l0 -45 90 0 90 0 0 45 0 45 -90 0 -90 0 0 -45z"/>
<path d="M3420 3645 l0 -45 45 0 45 0 0 -90 0 -90 45 0 45 0 0 -45 0 -45 45 0
45 0 0 45 0 45 -45 0 -45 0 0 90 0 90 -45 0 -45 0 0 45 0 45 -45 0 -45 0 0
-45z"/>
<path d="M1080 3465 l0 -45 90 0 90 0 0 45 0 45 -90 0 -90 0 0 -45z"/>
<path d="M1530 3105 l0 -45 45 0 45 0 0 -45 0 -45 -45 0 -45 0 0 -45 0 -45 45
0 45 0 0 -45 0 -45 45 0 45 0 0 -45 0 -45 45 0 45 0 0 45 0 45 -45 0 -45 0 0
45 0 45 45 0 45 0 0 45 0 45 -45 0 -45 0 0 90 0 90 -90 0 -90 0 0 -45z m180
-180 l0 -45 -45 0 -45 0 0 45 0 45 45 0 45 0 0 -45z"/>
<path d="M630 2835 l0 -45 -45 0 -45 0 0 -45 0 -45 45 0 45 0 0 -45 0 -45 45
0 45 0 0 -45 0 -45 -45 0 -45 0 0 -45 0 -45 45 0 45 0 0 45 0 45 45 0 45 0 0
180 0 180 -90 0 -90 0 0 -45z m90 -90 l0 -45 -45 0 -45 0 0 45 0 45 45 0 45 0
0 -45z"/>
<path d="M4680 2745 l0 -45 45 0 45 0 0 -45 0 -45 45 0 45 0 0 45 0 45 -45 0
-45 0 0 45 0 45 -45 0 -45 0 0 -45z"/>
<path d="M5670 1935 l0 -45 45 0 45 0 0 45 0 45 -45 0 -45 0 0 -45z"/>
<path d="M2610 1845 l0 -45 90 0 90 0 0 45 0 45 -90 0 -90 0 0 -45z"/>
<path d="M2610 1665 l0 -45 45 0 45 0 0 45 0 45 -45 0 -45 0 0 -45z"/>
<path d="M1530 1395 l0 -45 -45 0 -45 0 0 -45 0 -45 45 0 45 0 0 45 0 45 45 0
45 0 0 45 0 45 -45 0 -45 0 0 -45z"/>
<path d="M2610 495 l0 -45 45 0 45 0 0 45 0 45 -45 0 -45 0 0 -45z"/>
<path d="M3150 5715 l0 -45 45 0 45 0 0 45 0 45 -45 0 -45 0 0 -45z"/>
<path d="M630 3195 l0 -45 45 0 45 0 0 45 0 45 -45 0 -45 0 0 -45z"/>
<path d="M3150 3195 l0 -45 45 0 45 0 0 45 0 45 -45 0 -45 0 0 -45z"/>
<path d="M5670 3195 l0 -45 45 0 45 0 0 45 0 45 -45 0 -45 0 0 -45z"/>
<path d="M3960 675 l0 -45 90 0 90 0 0 45 0 45 -90 0 -90 0 0 -45z"/>
<path d="M3870 495 l0 -45 45 0 45 0 0 45 0 45 -45 0 -45 0 0 -45z"/>
<path d="M3150 675 l0 -45 45 0 45 0 0 45 0 45 -45 0 -45 0 0 -45z"/>
<path d="M5670 675 l0 -45 45 0 45 0 0 45 0 45 -45 0 -45 0 0 -45z"/>
<path d="M2520 6255 l0 -45 45 0 45 0 0 45 0 45 -45 0 -45 0 0 -45z"/>
<path d="M4230 6255 l0 -45 45 0 45 0 0 45 0 45 -45 0 -45 0 0 -45z"/>
<path d="M5670 5985 l0 -315 315 0 315 0 0 315 0 315 -315 0 -315 0 0 -315z
m540 0 l0 -225 -225 0 -225 0 0 225 0 225 225 0 225 0 0 -225z"/>
<path d="M5850 5985 l0 -135 135 0 135 0 0 135 0 135 -135 0 -135 0 0 -135z"/>
<path d="M4320 6075 l0 -45 45 0 45 0 0 45 0 45 -45 0 -45 0 0 -45z"/>
<path d="M5490 5940 l0 -90 45 0 45 0 0 90 0 90 -45 0 -45 0 0 -90z"/>
<path d="M6210 4275 l0 -45 -45 0 -45 0 0 -45 0 -45 -45 0 -45 0 0 -45 0 -45
135 0 135 0 0 45 0 45 -45 0 -45 0 0 45 0 45 45 0 45 0 0 45 0 45 -45 0 -45 0
0 -45z"/>
<path d="M5850 4095 l0 -45 -45 0 -45 0 0 -45 0 -45 45 0 45 0 0 45 0 45 45 0
45 0 0 45 0 45 -45 0 -45 0 0 -45z"/>
<path d="M5220 3375 l0 -45 45 0 45 0 0 45 0 45 -45 0 -45 0 0 -45z"/>
<path d="M270 1485 l0 -135 45 0 45 0 0 45 0 45 45 0 45 0 0 90 0 90 -90 0
-90 0 0 -135z"/>
<path d="M90 1170 l0 -360 45 0 45 0 0 360 0 360 -45 0 -45 0 0 -360z"/>
<path d="M270 1215 l0 -45 45 0 45 0 0 45 0 45 -45 0 -45 0 0 -45z"/>
<path d="M270 1035 l0 -45 45 0 45 0 0 45 0 45 -45 0 -45 0 0 -45z"/>
<path d="M360 855 l0 -45 90 0 90 0 0 45 0 45 -90 0 -90 0 0 -45z"/>
<path d="M90 405 l0 -315 315 0 315 0 0 315 0 315 -315 0 -315 0 0 -315z m540
0 l0 -225 -225 0 -225 0 0 225 0 225 225 0 225 0 0 -225z"/>
<path d="M270 405 l0 -135 135 0 135 0 0 135 0 135 -135 0 -135 0 0 -135z"/>
<path d="M1530 495 l0 -45 45 0 45 0 0 45 0 45 -45 0 -45 0 0 -45z"/>
<path d="M4500 180 l0 -90 90 0 90 0 0 90 0 90 -90 0 -90 0 0 -90z"/>
</g>
</svg>
